<?xml version="1.0" encoding="utf-8"?>
<!-- Generator: Adobe Illustrator 23.0.5, SVG Export Plug-In . SVG Version: 6.00 Build 0)  -->
<svg version="1.1" id="Capa_1" xmlns="http://www.w3.org/2000/svg" xmlns:xlink="http://www.w3.org/1999/xlink" x="0px" y="0px"
	 viewBox="0 0 500 500" style="enable-background:new 0 0 500 500;" xml:space="preserve">
<style type="text/css">
	.st0{fill:url(#Floor_1_);}
	.st1{fill:#46877B;}
	.st2{fill:#C2F9E9;}
	.st3{fill:url(#XMLID_3_);}
	.st4{fill:url(#XMLID_4_);}
	.st5{fill:url(#XMLID_5_);}
	.st6{fill:url(#SVGID_1_);}
	.st7{fill:url(#XMLID_6_);}
	.st8{fill:url(#XMLID_7_);}
	.st9{fill:url(#XMLID_8_);}
	.st10{fill:url(#XMLID_9_);}
	.st11{fill:url(#XMLID_10_);}
	.st12{fill:url(#XMLID_11_);}
	.st13{fill:url(#XMLID_12_);}
	.st14{fill:url(#XMLID_13_);}
	.st15{fill:#12186D;}
	.st16{fill:#AA44C8;}
	.st17{opacity:0.4;fill:#00E2FB;enable-background:new    ;}
	.st18{opacity:0.25;fill:#00E2FB;enable-background:new    ;}
	.st19{opacity:0.15;fill:#00E2FB;enable-background:new    ;}
	.st20{fill:#263238;}
	.st21{opacity:0.3;fill:#00E2FB;enable-background:new    ;}
	.st22{opacity:0.2;}
	.st23{fill:#FFFFFF;}
	.st24{fill:#FFA8A7;}
	.st25{fill:#002141;}
	.st26{opacity:0.15;fill:#002141;enable-background:new    ;}
	.st27{fill:#FAFAFA;}
	.st28{fill:#F28F8F;}
	.st29{fill:#B16668;}
	.st30{opacity:0.9;}
	.st31{opacity:0.8;}
	.st32{opacity:0.3;}
	.st33{opacity:0.1;fill:#AA44C8;enable-background:new    ;}
	.st34{opacity:0.5;}
	.st35{opacity:0.7;}
	.st36{opacity:0.2;fill:#AA44C8;enable-background:new    ;}
	.st37{opacity:0.6;}
	.st38{opacity:5.000000e-02;}
	.st39{fill:#00E2FB;}
	.st40{opacity:0.15;fill:#AA44C8;enable-background:new    ;}
	.st41{opacity:0.2;fill:#00E2FB;enable-background:new    ;}
	.st42{fill:#F5F5F5;}
	.st43{fill:#E0E0E0;}
	.st44{opacity:0.5;fill:#FFFFFF;enable-background:new    ;}
</style>
<g id="Floor">
	
		<radialGradient id="Floor_1_" cx="250" cy="-142" r="189.0343" gradientTransform="matrix(1 0 0 -1 0 212)" gradientUnits="userSpaceOnUse">
		<stop  offset="0" style="stop-color:#00AACB"/>
		<stop  offset="1.160000e-02" style="stop-color:#01B1C7"/>
		<stop  offset="4.970000e-02" style="stop-color:#04C2BD"/>
		<stop  offset="9.730001e-02" style="stop-color:#06CDB6"/>
		<stop  offset="0.1639" style="stop-color:#07D4B2"/>
		<stop  offset="0.3491" style="stop-color:#07D6B1"/>
		<stop  offset="0.6844" style="stop-color:#09E7A7"/>
		<stop  offset="1" style="stop-color:#09A8A7"/>
	</radialGradient>
	<ellipse id="Floor_4_" class="st0" cx="250" cy="354" rx="231.5" ry="133.7"/>
</g>
<g id="Shadows">
	<path id="Shadow_19_" class="st1" d="M34.6,337.7l240.7,139c2.6,1.5,6.8,1.5,9.4,0l126.6-73.1c2.6-1.5,2.6-3.9,0-5.4l-240.7-139
		c-2.6-1.5-6.8-1.5-9.4,0L34.6,332.3C32,333.8,32,336.2,34.6,337.7z"/>
	<ellipse id="Shadow_27_" class="st2" cx="409.5" cy="340.7" rx="64.2" ry="37.1"/>
</g>
<g id="Plants">
	<g id="Plants_13_">
		<g id="XMLID_5600_">
			<g id="XMLID_5603_">
				
					<linearGradient id="XMLID_3_" gradientUnits="userSpaceOnUse" x1="29.2444" y1="-70.418" x2="72.2286" y2="-70.418" gradientTransform="matrix(1 0 0 -1 0 212)">
					<stop  offset="0" style="stop-color:#00FFBB"/>
					<stop  offset="0.3145" style="stop-color:#1E8FB2"/>
					<stop  offset="0.5872" style="stop-color:#3634AA"/>
					<stop  offset="0.7095" style="stop-color:#4010A7"/>
					<stop  offset="1" style="stop-color:#094FA7"/>
				</linearGradient>
				<path id="XMLID_5608_" class="st3" d="M72,314.5c0,0,1.3-17.4-2.3-34.1c-3.6-16.7-12.3-29.6-23-34.6s-23.5,1.8-14.3,13.3
					c9.2,11.5,28.4,31.8,28.3,61.6L72,314.5z"/>
			</g>
			<g id="XMLID_5601_">
				
					<linearGradient id="XMLID_4_" gradientUnits="userSpaceOnUse" x1="39.0969" y1="-69.548" x2="67.301" y2="-69.548" gradientTransform="matrix(1 0 0 -1 0 212)">
					<stop  offset="0" style="stop-color:#00FFBB"/>
					<stop  offset="0.3145" style="stop-color:#1E8FB2"/>
					<stop  offset="0.5872" style="stop-color:#3634AA"/>
					<stop  offset="0.7095" style="stop-color:#4010A7"/>
					<stop  offset="1" style="stop-color:#094FA7"/>
				</linearGradient>
				<path id="XMLID_5602_" class="st4" d="M66.5,313.9L66.5,313.9c0.4,0,0.7-0.3,0.7-0.6c-1-36.5-13.2-54.8-27.2-64
					c-0.3-0.2-0.7-0.1-0.9,0.2s-0.1,0.7,0.2,0.9c13.8,9.2,25.6,27.1,26.6,63C66,313.6,66.3,313.8,66.5,313.9z"/>
			</g>
		</g>
		<g id="XMLID_5597_">
			<g id="XMLID_5598_">
				
					<linearGradient id="XMLID_5_" gradientUnits="userSpaceOnUse" x1="17.6765" y1="-89.6445" x2="69.2264" y2="-89.6445" gradientTransform="matrix(1 0 0 -1 0 212)">
					<stop  offset="0" style="stop-color:#00FFBB"/>
					<stop  offset="0.3145" style="stop-color:#1E8FB2"/>
					<stop  offset="0.5872" style="stop-color:#3634AA"/>
					<stop  offset="0.7095" style="stop-color:#4010A7"/>
					<stop  offset="1" style="stop-color:#094FA7"/>
				</linearGradient>
				<path id="XMLID_5599_" class="st5" d="M17.7,281.7c0.2,2,1.8,3.6,3.4,4.9c1.5,1.3,3.3,2.7,3.7,4.7c0.9,4-3.9,7.7-2.9,11.7
					c0.4,1.7,1.8,2.9,3.3,3.7c1.3,0.7,2.6,1.1,3.9,1.7c0.7,0.2,1.3,0.4,2,0.5c2,0.3,4,0.9,5.4,2.4c2.2,2.4,1.9,6,2.7,9.2
					c0.9,3.8,3.2,6,8.3,7.7l17.5-9.9c4.4-4.5,5.9-12,1.9-17.2c-2.4-3.1-6.9-3.5-9.2-6.6c-2-2.8-0.9-6.8-2.1-10
					c-1.3-3.3-4.6-4.3-7.7-4.9c-3.2-0.6-6.5,0.8-9.5-0.4s-5.9-2.9-9.1-3.7c-3.1-0.8-6.6-0.5-9.2,1.5
					C18.6,278.1,17.5,279.9,17.7,281.7z"/>
			</g>
			
				<linearGradient id="SVGID_1_" gradientUnits="userSpaceOnUse" x1="24.1374" y1="-88.5" x2="57.3534" y2="-88.5" gradientTransform="matrix(1 0 0 -1 0 212)">
				<stop  offset="0" style="stop-color:#00FFBB"/>
				<stop  offset="0.3145" style="stop-color:#1E8FB2"/>
				<stop  offset="0.5872" style="stop-color:#3634AA"/>
				<stop  offset="0.7095" style="stop-color:#4010A7"/>
				<stop  offset="1" style="stop-color:#094FA7"/>
			</linearGradient>
			<path class="st6" d="M50.3,297.5c0-0.1-0.1-0.1-0.1-0.2c-8.2-11.7-21.1-17.2-25.5-18.2c-0.2,0-0.5,0.1-0.5,0.4s0.1,0.5,0.4,0.5
				c4.1,0.9,16.1,6,24.2,16.7c-11.4-3.7-20,1.7-20.1,1.7c-0.2,0.1-0.3,0.4-0.1,0.6c0.1,0.1,0.2,0.2,0.4,0.2c0.1,0,0.2,0,0.3-0.1
				c0.1-0.1,8.9-5.6,20.5-1.2c4.2,6.1,7.1,13.9,6.8,23.5c0,0.2,0.2,0.4,0.4,0.5l0,0c0.3,0,0.5-0.2,0.5-0.4
				C57.7,311.7,54.7,303.7,50.3,297.5z"/>
		</g>
	</g>
	<g id="Plants_1_">
		<g id="XMLID_21_">
			<g id="XMLID_24_">
				
					<linearGradient id="XMLID_6_" gradientUnits="userSpaceOnUse" x1="445.3587" y1="-71.1379" x2="486.431" y2="-71.1379" gradientTransform="matrix(1 0 0 -1 0 212)">
					<stop  offset="0" style="stop-color:#00FFBB"/>
					<stop  offset="0.3145" style="stop-color:#1E8FB2"/>
					<stop  offset="0.5872" style="stop-color:#3634AA"/>
					<stop  offset="0.7095" style="stop-color:#4010A7"/>
					<stop  offset="1" style="stop-color:#094FA7"/>
				</linearGradient>
				<path id="XMLID_25_" class="st7" d="M445.4,315.4c-0.2-12.1,0.1-23.3,6.2-40.6c5.2-14.5,18.4-29.1,27.4-28.4
					c8.4,0.6,10.2,10.8,2.7,20s-23.9,26.6-24.9,39.2l-3.2,14.3L445.4,315.4z"/>
			</g>
			<g id="XMLID_22_">
				
					<linearGradient id="XMLID_7_" gradientUnits="userSpaceOnUse" x1="448.4496" y1="-70.1086" x2="480.0157" y2="-70.1086" gradientTransform="matrix(1 0 0 -1 0 212)">
					<stop  offset="0" style="stop-color:#00FFBB"/>
					<stop  offset="0.3145" style="stop-color:#1E8FB2"/>
					<stop  offset="0.5872" style="stop-color:#3634AA"/>
					<stop  offset="0.7095" style="stop-color:#4010A7"/>
					<stop  offset="1" style="stop-color:#094FA7"/>
				</linearGradient>
				<path id="XMLID_23_" class="st8" d="M449.1,312.3c0.2,0,0.4-0.3,0.4-0.5c1.3-28.2,17.1-51.7,30.2-59c0.3-0.1,0.4-0.5,0.2-0.7
					s-0.5-0.4-0.7-0.2c-13.4,7.4-29.4,31.3-30.8,59.9c0,0.3,0.2,0.5,0.5,0.6C449,312.3,449.1,312.3,449.1,312.3z"/>
			</g>
		</g>
		<g id="XMLID_16_">
			<g id="XMLID_19_">
				
					<linearGradient id="XMLID_8_" gradientUnits="userSpaceOnUse" x1="451.2" y1="-87.4134" x2="489.2841" y2="-87.4134" gradientTransform="matrix(1 0 0 -1 0 212)">
					<stop  offset="0" style="stop-color:#00FFBB"/>
					<stop  offset="0.3145" style="stop-color:#1E8FB2"/>
					<stop  offset="0.5872" style="stop-color:#3634AA"/>
					<stop  offset="0.7095" style="stop-color:#4010A7"/>
					<stop  offset="1" style="stop-color:#094FA7"/>
				</linearGradient>
				<path id="XMLID_20_" class="st9" d="M456.7,321.5c0.5-4.3,4.4-11.8,11.6-18.6c7.9-7.6,18.7-12.2,20.5-17.4
					c2.2-6.2-3.3-9.6-12.4-7.6c-11,2.3-23.1,14.9-25.2,40.5L456.7,321.5z"/>
			</g>
			<g id="XMLID_17_">
				
					<linearGradient id="XMLID_9_" gradientUnits="userSpaceOnUse" x1="453.592" y1="-87.4698" x2="481.518" y2="-87.4698" gradientTransform="matrix(1 0 0 -1 0 212)">
					<stop  offset="0" style="stop-color:#00FFBB"/>
					<stop  offset="0.3145" style="stop-color:#1E8FB2"/>
					<stop  offset="0.5872" style="stop-color:#3634AA"/>
					<stop  offset="0.7095" style="stop-color:#4010A7"/>
					<stop  offset="1" style="stop-color:#094FA7"/>
				</linearGradient>
				<path id="XMLID_18_" class="st10" d="M454.3,317.5c0.2,0,0.4-0.2,0.4-0.4c4.2-22.4,19.2-32.4,26.5-34.6c0.3-0.1,0.5-0.4,0.4-0.7
					c-0.1-0.3-0.4-0.5-0.7-0.4c-8.1,2.4-23,12.6-27.2,35.4c0,0.3,0.1,0.6,0.4,0.6C454.1,317.6,454.2,317.6,454.3,317.5z"/>
			</g>
		</g>
	</g>
</g>
<g id="Clouds">
	<g id="Clouds_3_">
		<g id="XMLID_5443_">
			
				<linearGradient id="XMLID_10_" gradientUnits="userSpaceOnUse" x1="464.5404" y1="89.4198" x2="433.2856" y2="125.3744" gradientTransform="matrix(1 0 0 -1 0 212)">
				<stop  offset="0" style="stop-color:#00AACB;stop-opacity:0"/>
				<stop  offset="0.6872" style="stop-color:#09A8A7"/>
				<stop  offset="1" style="stop-color:#09E7A7"/>
			</linearGradient>
			<path id="XMLID_5444_" class="st11" d="M428.7,92.7l6.6,3.8c0-0.3-0.1-0.6-0.1-0.9v-1.9c0-3.4,2.4-4.8,5.4-3.1
				c1.2,0.7,2.3,1.8,3.2,3.1c0.5-4.3,3.9-5.9,8-3.5c4.4,2.6,8,8.8,8,13.9v2.9c0,1.3-0.3,2.4-0.7,3.3l5.5,3.2c1.6,0.9,3,3.3,3,5.2
				s-1.3,2.7-3,1.7l-36-20.8c-1.6-0.9-3-3.3-3-5.2C425.7,92.5,427.1,91.8,428.7,92.7z"/>
		</g>
		<g id="XMLID_4531_">
			
				<linearGradient id="XMLID_11_" gradientUnits="userSpaceOnUse" x1="414.5505" y1="133.7878" x2="374.4105" y2="179.9636" gradientTransform="matrix(1 0 0 -1 0 212)">
				<stop  offset="0" style="stop-color:#00AACB;stop-opacity:0"/>
				<stop  offset="0.6872" style="stop-color:#09A8A7"/>
				<stop  offset="1" style="stop-color:#09E7A7"/>
			</linearGradient>
			<path id="XMLID_5442_" class="st12" d="M373.5,39.8l3.7,1.4v-8.1c0-6.4,5.1-7.9,10.6-4.7l0,0c5.5,3.2,10,11,10,17.4V47
				c1.3-0.5,2.9-0.3,4.7,0.7l0,0c4,2.3,7.2,7.9,7.2,12.5v0.5l5.1,3c2.6,1.5,4.8,5.2,4.8,8.2s-2.1,4.3-4.8,2.7l-41.3-23.9
				c-2.6-1.5-4.8-5.2-4.8-8.2S370.9,38.3,373.5,39.8z"/>
		</g>
	</g>
	<g id="Clouds_4_">
		<g id="XMLID_5450_">
			
				<linearGradient id="XMLID_12_" gradientUnits="userSpaceOnUse" x1="60.714" y1="89.2216" x2="45.9091" y2="106.2528" gradientTransform="matrix(1 0 0 -1 0 212)">
				<stop  offset="0" style="stop-color:#00AACB;stop-opacity:0"/>
				<stop  offset="0.6872" style="stop-color:#09A8A7"/>
				<stop  offset="1" style="stop-color:#09E7A7"/>
			</linearGradient>
			<path id="XMLID_5451_" class="st13" d="M74.4,103.9l-6.6,3.8c0-0.3,0.1-0.6,0.1-0.9V105c0-3.4-2.4-4.8-5.4-3.1
				c-1.2,0.7-2.3,1.8-3.2,3.1c-0.5-4.3-3.9-5.9-8-3.5c-4.4,2.6-8,8.8-8,13.9v2.9c0,1.3,0.3,2.4,0.7,3.3l-5.5,3.2
				c-1.7,0.9-3,3.3-3,5.2s1.3,2.7,3,1.7l36-20.8c1.6-0.9,3-3.3,3-5.2C77.3,103.8,76,103,74.4,103.9z"/>
		</g>
		<g id="XMLID_5445_">
			
				<linearGradient id="XMLID_13_" gradientUnits="userSpaceOnUse" x1="89.5045" y1="144.1732" x2="71.9976" y2="164.3126" gradientTransform="matrix(1 0 0 -1 0 212)">
				<stop  offset="0" style="stop-color:#00AACB;stop-opacity:0"/>
				<stop  offset="0.6872" style="stop-color:#09A8A7"/>
				<stop  offset="1" style="stop-color:#09E7A7"/>
			</linearGradient>
			<path id="XMLID_5446_" class="st14" d="M104.1,44l-3.7,1.4v-8.1c0-6.4-5.1-7.9-10.6-4.7l0,0c-5.5,3.2-10,11-10,17.4v1.2
				c-1.3-0.5-2.9-0.3-4.7,0.7l0,0c-4,2.3-7.2,7.9-7.2,12.5v0.5l-5.1,2.9C60.2,69.3,58,73,58,76s2.1,4.3,4.8,2.7L104.1,55
				c2.6-1.5,4.8-5.2,4.8-8.2C108.8,43.7,106.7,42.5,104.1,44z"/>
		</g>
	</g>
</g>
<g id="Stars">
	<g id="Stars_1_">
		<g id="XMLID_5570_">
			<path id="XMLID_5572_" class="st15" d="M111.3,82.3c0.4,0.4,0.4,1.1,0,1.5s-1.1,0.4-1.5,0s-0.4-1.1,0-1.5
				C110.1,81.9,110.8,81.9,111.3,82.3z"/>
			<path id="XMLID_5571_" class="st15" d="M121.2,87.1c0.7,0.7,0.7,1.8,0.1,2.5c-0.7,0.7-1.8,0.7-2.5,0.1c-0.7-0.7-0.7-1.8-0.1-2.5
				C119.4,86.4,120.5,86.4,121.2,87.1z"/>
		</g>
		<g id="XMLID_5567_">
			<path id="XMLID_5569_" class="st15" d="M444,34.8c0.5-0.2,1.2,0,1.4,0.6c0.2,0.5,0,1.2-0.6,1.4c-0.5,0.2-1.2,0-1.4-0.6
				C443.1,35.7,443.4,35.1,444,34.8z"/>
			<path id="XMLID_5568_" class="st15" d="M452.4,27.7c0.9-0.4,1.9,0.1,2.3,1s-0.1,1.9-1,2.3s-1.9-0.1-2.3-1
				C451,29,451.5,28,452.4,27.7z"/>
		</g>
		<g id="XMLID_5563_">
			<path id="XMLID_5566_" class="st15" d="M388.9,150.8c0,1-0.8,1.8-1.8,1.8s-1.8-0.8-1.8-1.8s0.8-1.8,1.8-1.8
				S388.9,149.8,388.9,150.8z"/>
			<path id="XMLID_5565_" class="st15" d="M383.7,155.6c0,0.6-0.5,1.1-1,1.1s-1-0.5-1-1.1s0.5-1.1,1-1.1S383.7,155,383.7,155.6z"/>
			<path id="XMLID_5564_" class="st15" d="M380.7,149c0,0.5-0.4,0.9-0.9,0.9s-0.9-0.4-0.9-0.9s0.4-0.9,0.9-0.9
				S380.7,148.5,380.7,149z"/>
		</g>
		<g id="XMLID_5560_">
			<path id="XMLID_5562_" class="st15" d="M277.9,104.3c0.6,0.4,0.9,1.2,0.5,1.8s-1.2,0.8-1.8,0.5c-0.6-0.4-0.9-1.2-0.5-1.8
				C276.4,104.1,277.2,103.9,277.9,104.3z"/>
			<path id="XMLID_5561_" class="st15" d="M281.2,99.9c0.4,0.2,0.5,0.7,0.3,1.1s-0.7,0.5-1.1,0.3s-0.5-0.7-0.3-1.1
				C280.3,99.8,280.8,99.7,281.2,99.9z"/>
		</g>
		<g id="XMLID_5557_">
			<path id="XMLID_5559_" class="st15" d="M293,186.9c0.6,0.4,0.9,1.2,0.5,1.8s-1.2,0.9-1.8,0.5c-0.6-0.4-0.9-1.2-0.5-1.8
				C291.6,186.7,292.4,186.5,293,186.9z"/>
			<path id="XMLID_1_" class="st15" d="M373,89.9c0.6,0.4,0.9,1.2,0.5,1.8s-1.2,0.8-1.8,0.5c-0.6-0.4-0.9-1.2-0.5-1.8
				C371.6,89.7,372.4,89.5,373,89.9z"/>
			<path id="XMLID_5558_" class="st15" d="M296.3,182.5c0.4,0.2,0.5,0.7,0.3,1.1c-0.2,0.4-0.7,0.5-1.1,0.3s-0.5-0.7-0.3-1.1
				C295.5,182.4,296,182.3,296.3,182.5z"/>
		</g>
		<g id="XMLID_5555_">
			<path id="XMLID_5556_" class="st15" d="M472.2,143.3l-2.5,0.9l-0.7,2.6c-0.1,0.2-0.4,0.3-0.5,0.1l-1.6-2.1l-2.6,0.1
				c-0.3,0-0.4-0.3-0.3-0.5l1.5-2.2l-0.9-2.5c-0.1-0.2,0.1-0.5,0.4-0.4l2.5,0.8l2.1-1.6c0.2-0.2,0.5,0,0.5,0.2v2.6l2.2,1.5
				C472.5,142.9,472.5,143.2,472.2,143.3z"/>
		</g>
		<g id="XMLID_5553_">
			<path id="XMLID_5554_" class="st15" d="M324.6,135.6l-2.5,0.9l-0.7,2.6c-0.1,0.2-0.4,0.3-0.5,0.1l-1.6-2.1l-2.6,0.1
				c-0.3,0-0.4-0.3-0.3-0.5l1.5-2.2L317,132c-0.1-0.2,0.1-0.5,0.4-0.4l2.5,0.8l2.1-1.6c0.2-0.2,0.5,0,0.5,0.2v2.6l2.2,1.5
				C324.9,135.2,324.8,135.5,324.6,135.6z"/>
		</g>
		<g id="XMLID_5550_">
			<path id="XMLID_5552_" class="st15" d="M454.2,227.6l-1.5,0.5l-0.4,1.5c0,0.1-0.2,0.2-0.3,0.1l-0.9-1.2l-1.5,0.1
				c-0.1,0-0.2-0.2-0.1-0.3l0.9-1.3l-0.5-1.5c0-0.1,0.1-0.3,0.2-0.2l1.5,0.4l1.2-1c0.1-0.1,0.3,0,0.3,0.1v1.6l1.3,0.9
				C454.4,227.4,454.3,227.6,454.2,227.6z"/>
		</g>
		<g id="XMLID_5547_">
			<path id="XMLID_5549_" class="st15" d="M111.9,152.9l-4,1.4l-1.1,4.1c-0.1,0.4-0.6,0.5-0.9,0.2l-2.6-3.4l-4.3,0.2
				c-0.4,0-0.7-0.4-0.4-0.8l2.4-3.5l-1.5-4c-0.1-0.4,0.2-0.8,0.6-0.6l4.1,1.2l3.3-2.7c0.3-0.3,0.8,0,0.8,0.4l0.1,4.3l3.6,2.4
				C112.4,152.2,112.3,152.8,111.9,152.9z"/>
		</g>
	</g>
</g>
<g id="Device">
	<g id="Mobile_2_">
		<g id="Mobile_3_">
			<path class="st16" d="M398.1,401l-111.9,64.6c-3.6,2.1-7.9,2.1-11.7,0.2l-225.2-130c-3.5-2-6.4-6.6-6.4-10.2s2.9-8.2,6.4-10.2
				L160.8,251c3.5-2,9.3-2,12.9,0l224.5,129.6c3.5,2,6.4,6.6,6.4,10.2S401.7,399,398.1,401z"/>
			<g>
				<path class="st17" d="M160.7,250.9L49.3,315.3c-3.5,2-6.4,6.6-6.4,10.2s2.9,8.2,6.4,10.2l225.3,130.1c1.8,0.9,3.7,1.4,5.6,1.4
					V312.4l-106.5-61.5C170.1,248.9,164.3,248.9,160.7,250.9z"/>
				<path class="st18" d="M286.2,465.6L398.1,401c3.5-2,6.4-6.6,6.4-10.2s-2.9-8.2-6.4-10.2l-118-68.1v154.8
					C282.2,467.2,284.3,466.7,286.2,465.6z"/>
			</g>
			<path class="st16" d="M283.6,454.1c-3.1,1.8-8.2,1.8-11.3,0l-223-128.8c-4.8-2.8-4.8-7.3,0-10.1l111.5-64.4c3.5-2,9.3-2,12.9,0
				l224.5,129.6c3.5,2,3.5,5.4,0,7.4L283.6,454.1z"/>
			<path class="st19" d="M283.6,454.1c-3.1,1.8-8.2,1.8-11.3,0l-223-128.8c-4.8-2.8-4.8-7.3,0-10.1l111.5-64.4c3.5-2,9.3-2,12.9,0
				l224.5,129.6c3.5,2,3.5,5.4,0,7.4L283.6,454.1z"/>
			<path d="M272.7,441.1c-3.4,2-8.8,2-12.2,0L68.6,330.4c-3.4-2-3.4-5.1,0-7l104.9-60.6c3.4-1.9,8.9-1.9,12.2,0l191.9,110.8
				c3.4,1.9,3.4,5.1,0,7L272.7,441.1z"/>
			<path class="st20" d="M179.3,261.3c-2.1,0-4.1,0.5-5.7,1.4l-105,60.6c-3.4,2-3.4,5.1,0,7l20.8,12l89.9-57.4L179.3,261.3
				L179.3,261.3z"/>
			<path d="M185.8,267.3c-3.4-1.9-8.9-1.9-12.2,0L68.7,327.9c-0.7,0.4-1.2,0.8-1.6,1.3c0.4,0.4,0.9,0.8,1.5,1.2l191.9,110.8
				c3.4,2,8.8,2,12.2,0l104.9-60.6c0.7-0.4,1.2-0.8,1.6-1.3c-0.4-0.4-0.9-0.8-1.5-1.2L185.8,267.3z"/>
			<g>
				<path class="st20" d="M107,295l18.6-10.7c1.1-0.6,1.2-1.6,0.1-2.3c-1-0.6-2.8-0.6-3.9,0.1l-18.6,10.7c-1.1,0.6-1.2,1.6-0.1,2.3
					C104.1,295.7,105.9,295.6,107,295z"/>
				<g>
					<path class="st20" d="M138.9,276.6c1-0.6,1-1.6,0-2.2s-2.7-0.6-3.8,0c-1,0.6-1,1.6,0,2.2C136.2,277.2,137.9,277.2,138.9,276.6z
						"/>
					<path class="st20" d="M146.4,272.2c1-0.6,1-1.6,0-2.2s-2.7-0.6-3.8,0c-1,0.6-1,1.6,0,2.2C143.7,272.8,145.4,272.8,146.4,272.2z
						"/>
					<path class="st20" d="M86.1,307c1-0.6,1-1.6,0-2.2s-2.7-0.6-3.8,0c-1,0.6-1,1.6,0,2.2C83.4,307.6,85.1,307.6,86.1,307z"/>
					<path class="st20" d="M93.7,302.7c1-0.6,1-1.6,0-2.2s-2.7-0.6-3.8,0c-1,0.6-1,1.6,0,2.2C90.9,303.3,92.6,303.3,93.7,302.7z"/>
				</g>
			</g>
			<g>
				<path class="st16" d="M119.9,369.2c1.1,0.6,2,2.1,2,3.3c0,0.6-0.2,1-0.6,1.2c-0.2,0.1-1.2,0.7-1.4,0.8c-0.4,0.2-0.9,0.2-1.4-0.2
					l-26.1-15.1c-1.1-0.6-2-2.1-2-3.3c0-0.5,0.2-1,0.5-1.1c0.3-0.2,1.2-0.7,1.4-0.9c0.4-0.2,0.9-0.2,1.4,0.2L119.9,369.2z"/>
				<path class="st17" d="M119.9,369.2c1.1,0.6,2,2.1,2,3.3c0,0.6-0.2,1-0.6,1.2c-0.2,0.1-1.2,0.7-1.4,0.8c-0.4,0.2-0.9,0.2-1.4-0.2
					l-26.1-15.1c-1.1-0.6-2-2.1-2-3.3c0-0.5,0.2-1,0.5-1.1c0.3-0.2,1.2-0.7,1.4-0.9c0.4-0.2,0.9-0.2,1.4,0.2L119.9,369.2z"/>
				<path class="st16" d="M118.5,370l-26.1-15.1c-1.1-0.6-2-0.2-2,1s0.9,2.7,2,3.3l26.1,15.1c1.1,0.6,2,0.2,2-1
					S119.6,370.6,118.5,370z"/>
				<path class="st21" d="M118.5,370l-26.1-15.1c-1.1-0.6-2-0.2-2,1s0.9,2.7,2,3.3l26.1,15.1c1.1,0.6,2,0.2,2-1
					S119.6,370.6,118.5,370z"/>
			</g>
			<g>
				<path class="st16" d="M84.9,349c1.1,0.6,2,2.1,2,3.3c0,0.6-0.2,1-0.6,1.2c-0.2,0.1-1.2,0.7-1.4,0.8c-0.4,0.2-0.9,0.2-1.4-0.2
					L71.2,347c-1.1-0.6-2-2.1-2-3.3c0-0.5,0.2-1,0.5-1.1c0.3-0.2,1.2-0.7,1.4-0.9c0.4-0.2,0.9-0.2,1.4,0.2L84.9,349z"/>
				<path class="st17" d="M84.9,349c1.1,0.6,2,2.1,2,3.3c0,0.6-0.2,1-0.6,1.2c-0.2,0.1-1.2,0.7-1.4,0.8c-0.4,0.2-0.9,0.2-1.4-0.2
					L71.2,347c-1.1-0.6-2-2.1-2-3.3c0-0.5,0.2-1,0.5-1.1c0.3-0.2,1.2-0.7,1.4-0.9c0.4-0.2,0.9-0.2,1.4,0.2L84.9,349z"/>
				<path class="st16" d="M83.6,349.8l-12.3-7.1c-1.1-0.6-2-0.2-2,1s0.9,2.7,2,3.3l12.3,7.1c1.1,0.6,2,0.2,2-1
					C85.6,351.9,84.7,350.5,83.6,349.8z"/>
				<path class="st21" d="M83.6,349.8l-12.3-7.1c-1.1-0.6-2-0.2-2,1s0.9,2.7,2,3.3l12.3,7.1c1.1,0.6,2,0.2,2-1
					C85.6,351.9,84.7,350.5,83.6,349.8z"/>
			</g>
		</g>
	</g>
	<g id="Button_1_">
		<path id="Shadow_20_" class="st18" d="M271.5,434.8c-2.1,0-4.2-0.5-5.8-1.4l-23.8-13.8c-2.1-1.2-3.3-3.1-3.3-5.1s1.2-3.9,3.3-5.1
			l76.6-44.3c1.6-0.9,3.7-1.4,5.8-1.4s4.2,0.5,5.8,1.4l23.8,13.8c2.1,1.2,3.3,3.1,3.3,5.1s-1.2,3.9-3.3,5.1l-76.6,44.3
			C275.8,434.3,273.7,434.8,271.5,434.8z"/>
		<g id="Button">
			<g>
				<g>
					<path class="st16" d="M354.3,373.9c0-0.9-0.6-1.8-1.8-2.5l-23.8-13.8c-2.4-1.4-6.3-1.4-8.7,0l-76.6,44.3
						c-1.2,0.7-1.8,1.6-1.8,2.5s0,9.2,0,10.1s0.6,1.8,1.8,2.5l23.8,13.8c2.4,1.4,6.3,1.4,8.7,0l76.6-44.3c1.2-0.7,1.8-1.6,1.8-2.5
						S354.3,374.9,354.3,373.9z"/>
					<path class="st19" d="M352.5,371.4l-23.8-13.8c-2.4-1.4-6.3-1.4-8.7,0l-48.5,28v46.1c1.6,0,3.1-0.4,4.3-1l76.6-44.3
						c1.2-0.7,1.8-1.6,1.8-2.5s0-9.2,0-10.1C354.3,373,353.7,372.1,352.5,371.4z"/>
					<path class="st18" d="M243.4,401.9c-1.2,0.7-1.8,1.6-1.8,2.5s0,9.2,0,10.1s0.6,1.8,1.8,2.5l23.8,13.8c1.2,0.7,2.8,1,4.3,1
						v-46.1L243.4,401.9z"/>
				</g>
				<g>
					<path class="st16" d="M267.2,420.7l-23.8-13.8c-2.4-1.4-2.4-3.6,0-5l76.6-44.3c2.4-1.4,6.3-1.4,8.7,0l23.8,13.8
						c2.4,1.4,2.4,3.6,0,5l-76.6,44.3C273.5,422.1,269.6,422.1,267.2,420.7z"/>
					<g class="st22">
						<path class="st23" d="M267.2,420.7l-23.8-13.8c-2.4-1.4-2.4-3.6,0-5l76.6-44.3c2.4-1.4,6.3-1.4,8.7,0l23.8,13.8
							c2.4,1.4,2.4,3.6,0,5l-76.6,44.3C273.5,422.1,269.6,422.1,267.2,420.7z"/>
					</g>
				</g>
			</g>
			<g>
				<g>
					<path class="st23" d="M279.8,406.6c0,0-0.4,0.1-1.2,0.4c-0.8,0.3-1.6,0.5-2.4,0.7s-1.7,0.3-2.6,0.3l-0.3-1.7
						c1.1,0,2.1-0.2,3-0.5s1.8-0.6,2.6-1.1c1.1-0.6,1.7-1.2,1.9-1.8c0.2-0.6-0.1-1.1-0.8-1.5l0,0c-0.5-0.3-1.1-0.5-1.6-0.5
						c-0.6,0-1.2,0-1.7,0.2c-0.6,0.2-1.3,0.4-2.1,0.7c0,0,0,0-0.1,0s0,0-0.1,0l-0.2,0.1c-1.2,0.5-2.2,0.8-3,1.1s-1.8,0.3-2.8,0.3
						s-2.1-0.4-3.1-1l0,0c-0.9-0.5-1.5-1.1-1.8-1.7c-0.2-0.6-0.1-1.3,0.3-1.9s1.2-1.3,2.4-2c0.5-0.3,1.1-0.6,1.8-0.8
						s1.3-0.4,2.1-0.6s1.5-0.3,2.4-0.4l0.5,1.7c-1,0.1-1.9,0.2-2.6,0.4c-0.8,0.2-1.5,0.5-2,0.8c-1,0.6-1.6,1.2-1.8,1.7
						c-0.2,0.6,0.1,1.1,0.9,1.5l0,0c0.5,0.3,1.1,0.5,1.7,0.5s1.2-0.1,1.8-0.3s1.3-0.4,2.3-0.8h0.1h0.1h0.1h0.1
						c1.1-0.4,2.1-0.7,2.9-0.9c0.9-0.2,1.8-0.3,2.8-0.2s2,0.4,2.9,1l0,0c0.9,0.5,1.5,1.1,1.7,1.7s0.1,1.3-0.4,2s-1.3,1.3-2.5,2
						C280.2,406.4,279.8,406.6,279.8,406.6z"/>
					<path class="st23" d="M272.2,393.5l10.6-6.1l2,1.2l-10.6,6.1L272.2,393.5z M277.6,391.8l2.1-1.2l13.8,8l-2.1,1.2L277.6,391.8z"
						/>
					<path class="st23" d="M288.5,384.1l1.8-1l20.5,5.5l-2.3,1.3l-16.3-4.6l8,9.4l-2.3,1.3L288.5,384.1z M295.2,391.4l7.9-4.6l2,1.2
						l-7.9,4.6L295.2,391.4z"/>
					<path class="st23" d="M298.1,378.5l2.1-1.2l15,8.7l-2.1,1.2L298.1,378.5z M305.7,381.9l5.1-3c0.4-0.2,0.7-0.5,0.8-0.8
						c0.1-0.3,0.1-0.6-0.1-0.9s-0.5-0.6-1-0.9s-1-0.5-1.5-0.6s-1-0.1-1.5-0.1s-1,0.2-1.4,0.5l-5.1,3l-2-1.2l5-2.9
						c0.9-0.5,1.8-0.8,2.8-1s2-0.2,3,0s2,0.5,2.8,1c0.9,0.5,1.4,1,1.7,1.6s0.3,1.2,0,1.8c-0.3,0.6-0.9,1.1-1.7,1.6l-5,2.9
						L305.7,381.9z M311.3,380.4l1.6-1.5l11.1,2l-2.5,1.4L311.3,380.4z"/>
					<path class="st23" d="M309.8,371.8l10.6-6.1l2,1.2l-10.6,6.1L309.8,371.8z M315.3,370l2.1-1.2l13.8,8l-2.1,1.2L315.3,370z"/>
				</g>
			</g>
		</g>
	</g>
</g>
<g id="Character">
	<g>
		<g id="Bottom_6_">
			<g id="Leg">
				<g>
					<path class="st24" d="M403,311.1c4.1-1.8,11.2-4.6,11.3-4.6c2.5-0.5,4.4,1.2,5.2,2.8c0.9,1.8,6,2.9,6,9.3c0,1.8-5,3.2-6.4,1.8
						c-1.7,1.7-10.6,8.8-10.6,8.8L403,311.1z"/>
					<path class="st20" d="M418.8,336.4c0.1,0.9-0.1,1.5,1.1,2.4c1.2,1,6,2.4,10.1,1.7s9.1-2.7,9.7-8.3c0.7-5.6-0.1-7.9-1.3-10.4
						s-4.3-5.7-5.3-7.6s-1-5.2-1.3-7c-0.4-1.8-1-4.5-3.5-5.8c-2.6-1.3-4.6-0.9-4.6-0.9l-2.5,1.2c0,0,6.2,18.2,8,22.8
						C431,329.1,418.8,336.4,418.8,336.4z"/>
					<path class="st25" d="M437.9,324.8c-1.3-5.6-6.1-7.9-7-10.6c-0.9-2.8,0.1-7.8-3-10.5c-3.1-2.8-6.8-1.9-6.8-1.9
						s-5.3,1.6-7.5,3.1c-2.1,1.6-3,3-3,3l1.2-0.5c2.1-0.4,5.7,1.2,6.8,2.9c0.5,0.8,1,1.5,1.4,2.4c0.4,1,0.7,1.8,1.4,2.6
						c0.4,0.5,1.3,1.1,1.3,1.7c0,0.7-1,0.1-1.3-0.1c-0.8-0.4-2.2-0.9-2.6,0.1c-0.2,0.4-0.2,0.7-0.2,1.4c0,0.8,0.1,1-0.2,1.9
						c-0.2,0.6-0.6,1.1-1.1,1.5l-0.7,0.6c0,0,0.7,0.6,2,1.6c1,0.9,3,3.4,3.6,4.8c0,0-2,1.7-3.3,2.9s-0.9,4.1,0.1,4.8
						s3.2,2.7,8.6,2.5c8-0.2,9.9-4.3,10.6-6.6C438.9,330.3,438.7,328.3,437.9,324.8z"/>
					<path class="st26" d="M437.9,324.8c-1.3-5.6-6.1-7.9-7-10.6c-0.9-2.8,0.1-7.8-3-10.5c-3.1-2.8-6.8-1.9-6.8-1.9
						s-5.3,1.6-7.5,3.1c-2.1,1.6-3,3-3,3l1.2-0.5c2.1-0.4,5.7,1.2,6.8,2.9c0.5,0.8,1,1.5,1.4,2.4c0.4,1,0.7,1.8,1.4,2.6
						c0.4,0.5,1.3,1.1,1.3,1.7c0,0.7-1,0.1-1.3-0.1c-0.8-0.4-2.2-0.9-2.6,0.1c-0.2,0.4-0.2,0.7-0.2,1.4c0,0.8,0.1,1-0.2,1.9
						c-0.2,0.6-0.6,1.1-1.1,1.5l-0.7,0.6c0,0,0.7,0.6,2,1.6c1,0.9,3,3.4,3.6,4.8c0,0-2,1.7-3.3,2.9s-0.9,4.1,0.1,4.8
						s3.2,2.7,8.6,2.5c8-0.2,9.9-4.3,10.6-6.6C438.9,330.3,438.7,328.3,437.9,324.8z"/>
					<path class="st27" d="M421.7,328c1.2-1.4,6-2.5,8.6-1.8c0.4-0.6,0.6-0.9-0.1-1.4c0,0-3-1.1-6.3,0.1c-2.2,0.8-3.1,1.7-3.1,1.7
						S420.9,327.7,421.7,328z"/>
					<path class="st27" d="M420,325.7c1-1.5,5.6-3.2,8.3-2.8c0.4-0.6,0.5-1-0.3-1.4c0,0-3.1-0.7-6.2,0.9c-2.1,1.1-2.8,2.1-2.8,2.1
						S419.2,325.5,420,325.7z"/>
				</g>
				<g>
					<path d="M379.9,276.6l25.5-6.4c1.2,5.1,2,15.3-0.1,23s-9.3,20.7-9.3,20.7l9.9-4c0,0,3.3-0.1,6.4,4.5s0,11.7,0,11.7
						s-13,11.1-26.3,19.1c-13.1,7.9-21.5,10.4-28.6,4.6c-4.2-3.4-4.3-10.5-2.7-19.5C356.3,320.3,379.9,276.6,379.9,276.6"/>
					<path d="M406.5,310c-0.4-0.1-0.7-0.1-0.7-0.1l-9.9,4c0,0,5.8-10.5,8.5-18.2l-22.1-7.2c1.4,7.9,7.8,15.4,7.8,15.4
						s-9.4,23-13.2,34.5c-3.9,11.5-10.7,11.3-17,9.3c-6.3-1.9-6.3-10.4-6.3-10.5c-0.4,5.7,0.5,10.1,3.6,12.6
						c7.2,5.7,15.5,3.3,28.6-4.6c8.9-5.4,17.7-12.1,22.5-16L406.5,310z"/>
					<path class="st19" d="M395.1,324.8c6-7.7,14.8-13,14.8-13c-2.3-2-4-1.8-4-1.8l-9.9,4c0,0-8.5,18.5-15.5,21.3
						C380.4,335.1,389,332.5,395.1,324.8z"/>
				</g>
			</g>
			<g id="Le">
				<g>
					<path class="st24" d="M427.6,324.1c4.1-1.8,11.2-4.6,11.3-4.6c2.5-0.5,4.4,1.2,5.2,2.8c0.9,1.8,6,2.9,6,9.3
						c0,1.8-5,3.2-6.4,1.8c-1.7,1.7-10.6,8.8-10.6,8.8L427.6,324.1z"/>
					<path class="st20" d="M443.3,349.4c0.1,0.9-0.3,1.3,0.9,2.2s6,2.5,10.1,1.9s9.1-3.1,9.7-7.8c0.8-5.6,0.1-8.4-1.1-10.8
						s-4.3-5.7-5.3-7.6s-1-5.2-1.3-7s-1-4.5-3.5-5.8s-4.6-0.9-4.6-0.9l-2.5,1.2c0,0,6.2,18.2,8,22.8
						C455.5,342.1,443.3,349.4,443.3,349.4z"/>
					<path class="st25" d="M462.5,337.8c-1.3-5.6-6.1-7.9-7-10.6c-0.9-2.8,0.1-7.8-3-10.5c-3.1-2.8-6.8-1.9-6.8-1.9
						s-5.3,1.6-7.5,3.1c-2.1,1.6-3,3-3,3l1.2-0.5c2.1-0.4,5.7,1.2,6.8,2.9c0.5,0.8,1,1.5,1.4,2.4c0.4,1,0.7,1.8,1.4,2.6
						c0.4,0.5,1.3,1.1,1.3,1.7c0,0.7-1,0.1-1.3-0.1c-0.8-0.4-2.2-0.9-2.6,0.1c-0.2,0.4-0.2,0.7-0.2,1.4c0,0.8,0.1,1-0.2,1.9
						c-0.2,0.6-0.6,1.1-1.1,1.5l-0.7,0.6c0,0,0.7,0.6,2,1.6c1,0.9,3,3.4,3.6,4.8c0,0-2,1.7-3.3,2.9s-0.9,4.1,0.1,4.8
						s3.2,2.7,8.6,2.5c8-0.2,10.1-4.4,10.6-6.7C463.2,343,463.3,341.3,462.5,337.8z"/>
					<path class="st26" d="M462.5,337.8c-1.3-5.6-6.1-7.9-7-10.6c-0.9-2.8,0.1-7.8-3-10.5c-3.1-2.8-6.8-1.9-6.8-1.9
						s-5.3,1.6-7.5,3.1c-2.1,1.6-3,3-3,3l1.2-0.5c2.1-0.4,5.7,1.2,6.8,2.9c0.5,0.8,1,1.5,1.4,2.4c0.4,1,0.7,1.8,1.4,2.6
						c0.4,0.5,1.3,1.1,1.3,1.7c0,0.7-1,0.1-1.3-0.1c-0.8-0.4-2.2-0.9-2.6,0.1c-0.2,0.4-0.2,0.7-0.2,1.4c0,0.8,0.1,1-0.2,1.9
						c-0.2,0.6-0.6,1.1-1.1,1.5l-0.7,0.6c0,0,0.7,0.6,2,1.6c1,0.9,3,3.4,3.6,4.8c0,0-2,1.7-3.3,2.9s-0.9,4.1,0.1,4.8
						s3.2,2.7,8.6,2.5c8-0.2,10.1-4.4,10.6-6.7C463.2,343,463.3,341.3,462.5,337.8z"/>
					<path class="st27" d="M446.3,341c1.2-1.4,6-2.5,8.6-1.8c0.4-0.6,0.6-0.9-0.1-1.4c0,0-3-1.1-6.3,0.1c-2.2,0.8-3.1,1.7-3.1,1.7
						S445.5,340.7,446.3,341z"/>
					<path class="st27" d="M444.5,338.7c1-1.5,5.6-3.2,8.3-2.8c0.4-0.6,0.5-1-0.3-1.4c0,0-3.1-0.7-6.2,0.9c-2.1,1.1-2.8,2.1-2.8,2.1
						S443.7,338.5,444.5,338.7z"/>
				</g>
				<g>
					<path d="M437.4,327.1c-3-4.7-6.4-4.5-6.4-4.5l-9.9,4c0,0,7.7-12.6,10.6-20.1c3.5-8.9,4.7-14.1,3.2-26.9l-35.8-0.6l-19.3-2.3
						c0.6,18,13.4,26.5,13.4,26.5s-11.8,29.9-13.5,40c-1.6,9-1.5,16.1,2.7,19.5c7.2,5.7,15.5,3.3,28.6-4.6
						c13.3-8,26.3-19.1,26.3-19.1S440.5,331.8,437.4,327.1z"/>
					<path d="M420.3,337.4c6-7.7,14.7-13,14.8-13c-2.5-2.1-4-1.9-4-1.9l-9.9,4c0,0-8.5,18.5-15.5,21.3
						C405.7,347.8,414.3,345.1,420.3,337.4z"/>
				</g>
			</g>
		</g>
		<g id="Top_5_">
			<path class="st24" d="M367.3,287.7c5.2-6.8,4.7-6,6-14.4s6-43.1,6-43.1l-5.8-15.2c0,0-10,3.1-12.4,12.2
				c-3.5,13.1-6.9,46.8-6.9,46.8l-2.9,6.1L367.3,287.7z"/>
			<g>
				<path id="XMLID_5765_" class="st25" d="M375.1,214.2c0,0-6.3,1.2-10.5,5.1c-3.1,2.9-4.5,9-5.7,14.6c-1.4,6.6-3.1,20.7-3.1,20.7
					s9.6,9.3,21.3,7.7l6.4-27.8L375.1,214.2z"/>
			</g>
			<g id="XMLID_5682_">
				<path id="XMLID_5700_" class="st25" d="M424.1,228.4c10.4,28.2,11.1,55.7,11.1,55.7c-6.8,7.9-46.4,15.7-59.3-0.3
					c2.8-19-5.3-25.3-8-48.1c-1.2-10-4.1-19.3,13.4-23.9s30.1-1.3,30.1-1.3C417.8,214,422,222.7,424.1,228.4z"/>
				<g>
					<path d="M438.5,201.8c1.2-2.5-0.6-7.8-4.5-12.7c-3.8-4.9-9.7-7.6-12.3-3.9s2.3,12.8,5.9,15.3
						C431.4,202.9,436.7,205.5,438.5,201.8z"/>
					<path class="st24" d="M425.4,108.1c-2.7,0.4-1.1,6.1,0,10.6c1,4.2,1.8,7.5,1.2,8.2c-0.9,1-2.9-3.5-5.4-4.3
						c-1.3-0.4-2.8-0.1-2.9,0.8c-0.2,1,0.6,1.3,2,3.3c1.1,1.6,3.1,8.2,6.1,11.2c1.2,1.1,2,4.9,2.1,7.9c0.6,13-0.5,28.4-0.5,28.4
						s-4.4,7.8-11.3,20.9c-3.2,6-8.5,15-8.5,15c-1,6.3,3.6,20.7,16.7,20.2c-1.6-5.5,11.1-27.4,17.4-39.1c4.4-8.2,4.9-9.2,4.8-12.9
						c-0.4-10.5-1.3-12.1-2.2-20.8c-1.1-9.9-1.5-14.9-1.6-15.9c-0.4-4.3,0.9-6.2,1.2-8.6c0.5-3.6,0.7-6.2-0.2-9.1
						c-0.3-0.8-0.7-1.7-1.5-2c-0.4-0.2-0.9-0.2-1.3-0.3c-0.6-0.3-1.3-0.9-2-1c-0.9-0.2-2,0.6-3,0.4c-0.4-0.1-1.4-1-1.8-0.9
						c-0.9,0.1-1.2,0.4-1.9,0.6c-0.4,0.1-1.3,0.8-1.6,0.3c-0.4-0.6-0.9-2.4-2.2-6.2C427.9,111.3,426.9,107.9,425.4,108.1z"/>
					<path class="st28" d="M430.9,125.8c1,2.6,1.3,5.7,2.8,6.2c1.2,0.4,2.5-0.4,2.7-1.9c0,0,0.6,1.1,1.8,1.1c1.3,0,1.8-1.1,1.8-1.1
						c0.3,0.5,2,1,3-0.3c-0.1,0.9-1,2.4-2.5,1.5c0,0-1.7,1.8-3.3,0.5c0,0,1.9,1.3,1.6,4.9c0,0-0.6-2.9-2.7-4.3c0,0-1.6,1.2-3.2,0.3
						C431.3,131.7,430.9,125.8,430.9,125.8z"/>
					<path class="st25" d="M404.9,209.7c2-1.7,3.2-2.6,6-5.9s11-18.6,11-18.6s0.3,5.6,5.6,11.3c6.8,7.2,11.1,5.4,11.1,5.4
						s-5.2,9.7-7.9,15.7c-2.4,5.2-5.6,11.9-4.8,15.7c-1.4,2.1-7.7,0.7-14.5-5.6C403.9,220.9,404.9,209.7,404.9,209.7z"/>
				</g>
				<g id="XMLID_263_">
					<g id="XMLID_4764_">
						<g id="XMLID_5431_">
							<path d="M376.8,194.1c1.8,0.7,4,1.4,5.9,1.3c1.8-0.1,3.5,0.4,5.3,0.4c3.8,0,5.5,8.6,8.5,6.1c0.4-4.2,7.1-13.8,5.9-24.6
								c-0.6-5.5-3.6-10.6-9.1-10.9c0.3,0-1.3-2.7-1.6-2.9c-1-0.9-2.3-1.5-3.5-2c-2.8-0.9-5.7-1.1-8.6-0.8s-5.7,0.8-8.5,1.8
								c-2.9,1.1-5.6,2.1-8.7,1.3c-2.6-0.7-1,4.3,0.2,5.1c-1.1,0.3-1.9-1.5-2.7-1.5c-0.9,0-1,1.5-1,2.1c0.3,2.8,0.6,4.5,2.6,6.4
								c-1.9,1.8-0.4,3.9,1.3,5.1c2,1.5,3.1,3.9,4.8,5.8C370,189.9,373.1,192.5,376.8,194.1z"/>
							<path d="M384.6,174c-1.4,3.1,0,12.9,1.8,21.7c0.6,0.1,1.1,0.1,1.7,0.1c3.8,0,5.5,8.6,8.5,6.1c0.4-4.2,7.1-13.8,5.9-24.6
								c-0.6-5.5-3.6-10.6-9.1-10.9C393.4,166.5,387.4,167.9,384.6,174z"/>
							<g>
								<path class="st24" d="M384.6,174c1.4,3.1,4.5,5.3,7.8,5.6c-0.1,2.7-0.1,5.5,0.7,8.1c0.2,0.6,0.4,1.1,0.8,1.6
									c0.4,0.4,1,0.8,1.5,0.7c0.8,0,1.1-0.5,1.2-1.2c0.2-0.8,0.6-1.6,0.9-2.4c0.2-0.4,0.4-0.6,0.6-1c1.1-1.2,4.5-3,6.5,0.6
									c2.1,3.7-0.4,9.2-3.2,10.3c-4.8,1.9-6.2-1.3-6.2-1.3l2.6,15.6c-5,7.6-18.6,8.4-16.2,4.2l-1.6-6.7c0,0-3.7,1-5.9,0.9
									c-3.6-0.3-7-4-8.4-7.8c-3-7.8-3.9-19.4-2.1-25.1C370.8,181,377.5,175.7,384.6,174z"/>
							</g>
							<path class="st20" d="M382.7,186.5c0.1,0.9-0.5,1.7-1.4,1.9s-1.7-0.5-1.9-1.4c-0.1-0.9,0.5-1.7,1.4-1.9
								C381.7,185,382.5,185.6,382.7,186.5z"/>
							<path class="st20" d="M369.6,188.8c0.1,0.9-0.5,1.7-1.4,1.9s-1.7-0.5-1.9-1.4c-0.1-0.9,0.5-1.7,1.4-1.9
								C368.6,187.3,369.5,187.9,369.6,188.8z"/>
							<path id="XMLID_5433_" class="st28" d="M380.2,208.2c0,0,6.9-2.5,9.5-4.2c1.8-1.1,4-4.3,4.4-5.4c0,0-0.5,3.2-2,5.4
								c-1.8,2.8-11.4,6.1-11.4,6.1L380.2,208.2z"/>
						</g>
						<g id="XMLID_4765_">
							<polygon id="XMLID_5274_" class="st28" points="374.9,184.5 376.4,195.2 370.9,195.3 							"/>
							<path id="XMLID_4792_" class="st20" d="M380.1,182l4,1.3c0.3-1.1-0.3-2.3-1.4-2.7C381.5,180.2,380.4,180.8,380.1,182z"/>
							<path id="XMLID_4789_" class="st20" d="M364.8,186.1l3.2-2.7c-0.7-0.9-2-1.1-2.9-0.3C364.2,183.8,364.1,185.2,364.8,186.1z"
								/>
						</g>
					</g>
					<g id="XMLID_4513_">
						<g>
							<g id="XMLID_4520_">
								<path id="XMLID_4760_" class="st29" d="M381.6,196l-5.3,3.2c0.8,1.5,2.7,2,4.1,1.1C382,199.4,382.5,197.5,381.6,196z"/>
							</g>
							<path class="st28" d="M381.4,197.4c0.2-0.1,0.4-0.1,0.6-0.1c0.1,1.2-0.5,2.4-1.5,3c-0.1,0-0.1,0.1-0.2,0.1
								c0-0.1-0.1-0.1-0.1-0.1C379.8,199.1,380.3,197.9,381.4,197.4z"/>
						</g>
					</g>
				</g>
			</g>
			<path class="st24" d="M354.3,274c-1.5,2.5-8.8,16.1-11.6,20.8c-2,3.4-8.3,14.8-9.4,17.2c-2.2,4.8-5.4,10.4-4.9,15.9
				c0.1,1.4,0.5,2.6,0.5,3.9c0,1.5-0.2,3.1,0.8,4.4c0.3,0.4,0.8,0.7,1,1.1c0.3,0.6,0.3,1.4,0.6,1.9c1,1.6,2.2,0,2.8-0.9
				c2.5-3.9,3.9-8.3,6.4-12.1c1-1.6,2.1-3.3,3.4-4.8c0.2-0.3,0.9-0.7,1.3-0.6c0.4,0.2,0.2,1,0.2,1.4c0,1-0.1,1.9,0,2.9
				c0.1,1.3,0.5,2.7,1.5,3.5c0.6,0.4,1.4,0.6,2,0.2c0.4-0.3,0.5-0.7,0.6-1.1s0-0.9,0-1.3c0-1.8,1-3.4,1.5-5.1s0.5-3.5,0.5-5.3
				s-0.2-3.6,0.1-5.4c0.3-1.9,0.8-3.7,2-5.2s4.2-5.5,6.6-8.5c4.4-5.4,7.8-9.3,10.8-14L354.3,274z"/>
		</g>
	</g>
</g>
<g id="Rocket_2_">
	<g id="Rocket_1_">
		<path id="Shadow_28_" class="st18" d="M320.6,337.9c-1.4-0.8-3.2-1.4-5.1-1.6c-0.1-2.1-1.5-4.3-4.3-5.9c-5.8-3.3-15.2-3.3-21,0
			c-5,2.9-5.7,7.3-2.1,10.6c-6.3-0.6-13,0.4-17.9,3.3c-3,1.7-4.9,3.9-5.6,6.1c-9-2.6-20.3-1.8-27.8,2.6c-1.5,0.8-2.7,1.8-3.7,2.8
			l0,0c-8.2-4.8-21.6-4.8-29.8,0c-3.1,1.8-5,4-5.8,6.3c-0.9-2.1-2.7-4-5.5-5.6c-7.1-4.1-17.9-4.6-26-1.7c-1.2-1.9-3-3.7-5.7-5.2
			c-7.4-4.3-18.5-5.2-27.5-2.7c1.7-3.8,0.1-7.9-5-10.9c-5.2-3-12.7-4-19.4-2.8c2.7-3.1,1.8-7.1-2.7-9.7c-5.7-3.3-14.9-3.3-20.6,0
			c-1.8,1-3.1,2.3-3.7,3.6c-3.1-0.4-6.6,0-9,1.4c-3.7,2.1-3.7,5.6,0,7.8s9.8,2.1,13.5,0c0.2-0.1,0.4-0.2,0.5-0.3
			c3.3,1.5,7.4,2.1,11.4,1.7c-5.1,4.4-4.3,10.4,2.4,14.2c5.6,3.2,13.7,4.1,20.6,2.6c-3.2,4.9-1.3,10.7,5.5,14.6
			c8.7,5,22.3,5.4,31.7,1.1c1,1.2,2.4,2.4,4.1,3.4c7.7,4.5,19.9,4.7,28.2,0.9c0.2,0.1,0.4,0.3,0.6,0.4c3.9,2.3,10.2,2.3,14.1,0
			c0.3-0.2,0.6-0.4,0.9-0.6c8.3,3.4,19.8,3,27.2-1.3c0.8-0.4,1.4-0.9,2.1-1.4c0.5,0.4,1.1,0.7,1.6,1c9.4,5.4,24.6,5.4,34,0
			c4.3-2.5,6.6-5.7,7-9c7.1,1.5,15.4,0.6,21.2-2.8c7.5-4.3,7.9-11.2,1.2-15.8c1.5,0,3.1-0.1,4.6-0.3c0.5,0.5,1,0.9,1.7,1.3
			c3.9,2.3,10.2,2.3,14.1,0C324.5,343.8,324.5,340.1,320.6,337.9z"/>
		<g id="Smoke">
			<g id="XMLID_4631_">
				<ellipse id="XMLID_4756_" class="st16" cx="196.5" cy="338.9" rx="58.2" ry="23.9"/>
				<ellipse id="XMLID_4755_" class="st16" cx="196.5" cy="338.9" rx="58.2" ry="23.9"/>
				<g id="XMLID_4753_" class="st30">
					<ellipse class="st23" cx="196.5" cy="338.9" rx="58.2" ry="23.9"/>
				</g>
				<g id="XMLID_4741_">
					<path id="XMLID_4752_" class="st16" d="M135.4,322.9c0.4-14,11.8-25.1,25.8-25.1s25.5,11.2,25.8,25.1c0,0.3,0,0.5,0,0.7
						s0,0.5,0,0.7c-0.3,3.6-2.8,7.1-7.6,9.8c-10.1,5.8-26.5,5.8-36.6,0c-4.7-2.8-7.3-6.3-7.5-9.8c0-0.3,0-0.5,0-0.7
						C135.4,323.4,135.4,323.2,135.4,322.9z"/>
					<g id="XMLID_4750_" class="st31">
						<path class="st23" d="M135.4,322.9c0.4-14,11.8-25.1,25.8-25.1s25.5,11.2,25.8,25.1c0,0.3,0,0.5,0,0.7s0,0.5,0,0.7
							c-0.3,3.6-2.8,7.1-7.6,9.8c-10.1,5.8-26.5,5.8-36.6,0c-4.7-2.8-7.3-6.3-7.5-9.8c0-0.3,0-0.5,0-0.7
							C135.4,323.4,135.4,323.2,135.4,322.9z"/>
					</g>
					<g id="XMLID_4748_" class="st32">
						<path class="st23" d="M150,300.4L150,300.4c3.4-1.6,7.2-2.6,11.2-2.6c14,0,25.5,11.2,25.8,25.1c0,0.3,0,0.5,0,0.7s0,0.5,0,0.7
							c-0.3,3.6-2.8,7.1-7.6,9.8c-3.7,2.1-8.2,3.5-13,4c6.7-1.2,11.1-8.6,9-16.9C173.1,311.8,163.4,297.9,150,300.4z"/>
					</g>
					<path id="XMLID_4747_" class="st33" d="M135.4,324.4c0-0.3,0-0.5,0-0.7s0-0.5,0-0.7c0.2-7.5,3.6-14.1,8.8-18.7
						c-2.8,2.9-9.1,13.8-2.3,22.1c4.5,5.5,25.7,13.2,43.1,3.2c-1.3,1.7-3.1,3.3-5.5,4.6c-10.1,5.8-26.5,5.8-36.6,0
						C138.2,331.5,135.7,328,135.4,324.4z"/>
					<g id="XMLID_4745_" class="st34">
						<path class="st23" d="M161.5,303.6c-1.2,2.6,1.1,6.2,5,7.9s8,1,9.2-1.7c1.2-2.6-1.1-6.2-5-7.9
							C166.7,300.2,162.6,301,161.5,303.6z"/>
					</g>
					<g id="XMLID_4742_" class="st34">
						<path class="st23" d="M176.4,314.3c-0.6,1.4,0.3,3.1,1.9,3.8c1.7,0.7,3.5,0.2,4.1-1.1c0.6-1.4-0.3-3.1-1.9-3.8
							C178.9,312.5,177.1,313,176.4,314.3z"/>
					</g>
				</g>
				<g id="XMLID_4712_">
					<path id="XMLID_4740_" class="st16" d="M245.2,323.6c-0.3-11.9-10-21.4-21.9-21.4s-21.6,9.5-21.9,21.4c0,0.2,0,0.4,0,0.6
						s0,0.4,0,0.6c0.3,3,2.4,6,6.4,8.4c8.6,5,22.5,5,31.1,0c4-2.3,6.2-5.3,6.4-8.4c0-0.2,0-0.4,0-0.6
						C245.2,324,245.2,323.8,245.2,323.6z"/>
					<g id="XMLID_4738_" class="st31">
						<path class="st23" d="M245.2,323.6c-0.3-11.9-10-21.4-21.9-21.4s-21.6,9.5-21.9,21.4c0,0.2,0,0.4,0,0.6s0,0.4,0,0.6
							c0.3,3,2.4,6,6.4,8.4c8.6,5,22.5,5,31.1,0c4-2.3,6.2-5.3,6.4-8.4c0-0.2,0-0.4,0-0.6C245.2,324,245.2,323.8,245.2,323.6z"/>
					</g>
					<g id="XMLID_4735_" class="st32">
						<path class="st23" d="M232.8,304.5L232.8,304.5c-2.9-1.4-6.1-2.2-9.5-2.2c-11.9,0-21.6,9.5-21.9,21.4c0,0.2,0,0.4,0,0.6
							s0,0.4,0,0.6c0.3,3,2.4,6,6.4,8.4c3.1,1.8,7,3,11,3.4c-5.7-1-9.4-7.3-7.6-14.4C213.1,314.1,221.4,302.4,232.8,304.5z"/>
					</g>
					<path id="XMLID_4724_" class="st33" d="M245.2,324.8c0-0.2,0-0.4,0-0.6s0-0.4,0-0.6c-0.2-6.3-3-12-7.4-15.9
						c2.4,2.5,7.7,11.7,1.9,18.7c-3.8,4.6-21.8,11.3-36.6,2.8c1.1,1.4,2.6,2.8,4.7,4c8.6,5,22.5,5,31.1,0
						C242.8,330.9,244.9,327.9,245.2,324.8z"/>
					<g id="XMLID_4719_" class="st34">
						<path class="st23" d="M223,307.2c1,2.2-0.9,5.2-4.2,6.7s-6.8,0.8-7.8-1.4c-1-2.2,0.9-5.2,4.2-6.7S222,305,223,307.2z"/>
					</g>
					<g id="XMLID_4715_" class="st34">
						<path class="st23" d="M210.3,316.3c0.5,1.2-0.2,2.6-1.7,3.3c-1.4,0.6-3,0.2-3.5-1s0.2-2.6,1.7-3.3
							C208.2,314.7,209.8,315.2,210.3,316.3z"/>
					</g>
				</g>
				<g id="XMLID_4701_">
					<path id="XMLID_4711_" class="st16" d="M267.2,327.6c-0.2-7.8-6.6-14.1-14.5-14.1s-14.3,6.3-14.5,14.1c0,0.1,0,0.3,0,0.4
						s0,0.3,0,0.4c0.2,2,1.6,4,4.3,5.5c5.7,3.3,14.9,3.3,20.5,0c2.6-1.5,4.1-3.5,4.2-5.5c0-0.1,0-0.3,0-0.4S267.2,327.7,267.2,327.6
						z"/>
					<g id="XMLID_4709_" class="st30">
						<path class="st23" d="M267.2,327.6c-0.2-7.8-6.6-14.1-14.5-14.1s-14.3,6.3-14.5,14.1c0,0.1,0,0.3,0,0.4s0,0.3,0,0.4
							c0.2,2,1.6,4,4.3,5.5c5.7,3.3,14.9,3.3,20.5,0c2.6-1.5,4.1-3.5,4.2-5.5c0-0.1,0-0.3,0-0.4S267.2,327.7,267.2,327.6z"/>
					</g>
					<g id="XMLID_4707_" class="st34">
						<path class="st23" d="M259,314.9L259,314.9c-1.9-0.9-4-1.5-6.3-1.5c-7.9,0-14.3,6.3-14.5,14.1c0,0.1,0,0.3,0,0.4s0,0.3,0,0.4
							c0.2,2,1.6,4,4.3,5.5c2.1,1.2,4.6,2,7.3,2.3c-3.8-0.6-6.2-4.9-5.1-9.5C246,321.3,251.5,313.5,259,314.9z"/>
					</g>
					<path id="XMLID_4706_" class="st33" d="M267.2,328.4c0-0.1,0-0.3,0-0.4s0-0.3,0-0.4c-0.1-4.2-2-7.9-4.9-10.5
						c1.6,1.6,5.1,7.7,1.3,12.4c-2.5,3.1-14.4,7.4-24.2,1.8c0.7,1,1.7,1.8,3.1,2.6c5.7,3.3,14.9,3.3,20.5,0
						C265.6,332.4,267.1,330.4,267.2,328.4z"/>
					<g id="XMLID_4704_" class="st34">
						<path class="st23" d="M252.6,316.7c0.6,1.5-0.6,3.5-2.8,4.4c-2.2,1-4.5,0.5-5.1-0.9s0.6-3.5,2.8-4.4
							C249.6,314.8,251.9,315.3,252.6,316.7z"/>
					</g>
					<g id="XMLID_4702_" class="st34">
						<path class="st23" d="M244.2,322.8c0.3,0.8-0.1,1.7-1.1,2.1c-0.9,0.4-2,0.1-2.3-0.6c-0.3-0.8,0.1-1.7,1.1-2.1
							C242.8,321.7,243.8,322,244.2,322.8z"/>
					</g>
				</g>
				<g id="XMLID_4638_">
					<path id="XMLID_4700_" class="st16" d="M292.2,333.9c-0.3-10.6-9-19.2-19.7-19.2s-19.4,8.5-19.7,19.2c0,0.2,0,0.4,0,0.5
						s0,0.4,0,0.5c0.2,2.7,2.1,5.4,5.8,7.5c7.7,4.5,20.2,4.5,27.9,0c3.6-2.1,5.5-4.8,5.8-7.5c0-0.2,0-0.4,0-0.5
						C292.2,334.2,292.2,334,292.2,333.9z"/>
					<g id="XMLID_4698_" class="st35">
						<path class="st23" d="M292.2,333.9c-0.3-10.6-9-19.2-19.7-19.2s-19.4,8.5-19.7,19.2c0,0.2,0,0.4,0,0.5s0,0.4,0,0.5
							c0.2,2.7,2.1,5.4,5.8,7.5c7.7,4.5,20.2,4.5,27.9,0c3.6-2.1,5.5-4.8,5.8-7.5c0-0.2,0-0.4,0-0.5
							C292.2,334.2,292.2,334,292.2,333.9z"/>
					</g>
					<g id="XMLID_4696_" class="st32">
						<path class="st23" d="M281,316.6L281,316.6c-2.6-1.3-5.5-2-8.6-2c-10.7,0-19.4,8.5-19.7,19.2c0,0.2,0,0.4,0,0.5s0,0.4,0,0.5
							c0.2,2.7,2.1,5.4,5.8,7.5c2.8,1.6,6.3,2.6,9.9,3.1c-5.1-0.9-8.4-6.6-6.9-12.9C263.4,325.3,270.8,314.7,281,316.6z"/>
					</g>
					<path id="XMLID_4695_" class="st33" d="M292.2,335c0-0.2,0-0.4,0-0.5s0-0.4,0-0.5c-0.1-5.7-2.7-10.8-6.7-14.3
						c2.1,2.2,6.9,10.5,1.7,16.8c-3.4,4.2-19.6,10.1-32.9,2.5c1,1.3,2.4,2.5,4.2,3.5c7.7,4.5,20.2,4.5,27.9,0
						C290,340.4,292,337.7,292.2,335z"/>
					<g id="XMLID_4693_" class="st34">
						<path class="st23" d="M272.3,319.1c0.9,2-0.8,4.7-3.8,6s-6.1,0.7-7-1.3s0.8-4.7,3.8-6C268.2,316.5,271.4,317.1,272.3,319.1z"
							/>
					</g>
					<g id="XMLID_4662_" class="st34">
						<path class="st23" d="M260.8,327.3c0.5,1-0.2,2.4-1.5,2.9c-1.3,0.6-2.7,0.2-3.2-0.9c-0.5-1,0.2-2.4,1.5-2.9
							C259,325.9,260.4,326.2,260.8,327.3z"/>
					</g>
				</g>
			</g>
			<g id="XMLID_4510_">
				<path id="XMLID_4576_" class="st16" d="M223.8,276.6c0,8.7-3.9,16.5-10.1,21.7c-4.2,3.5-6.8,8.6-6.8,14.1v49.4
					c0,1.7-1.1,3.5-3.4,4.8c-1.3,0.7-2.7,1.3-4.3,1.6c-2.6,0.5-5.4,0.5-8,0c-1.6-0.3-3-0.9-4.3-1.6c-2.3-1.3-3.4-3-3.4-4.8v-49.5
					c0-5.4-2.6-10.5-6.7-14c-6.2-5.3-10.2-13.1-10.1-22c0.1-14.9,12.1-27.4,26.9-28.2C210.2,247.3,223.8,260.3,223.8,276.6z"/>
				<g id="XMLID_4564_" class="st34">
					<path class="st23" d="M223.8,276.6c0,8.7-3.9,16.5-10.1,21.7c-4.2,3.5-6.8,8.6-6.8,14.1v49.4c0,1.7-1.1,3.5-3.4,4.8
						c-1.3,0.7-2.7,1.3-4.3,1.6c-2.6,0.5-5.4,0.5-8,0c-1.6-0.3-3-0.9-4.3-1.6c-2.3-1.3-3.4-3-3.4-4.8v-49.5c0-5.4-2.6-10.5-6.7-14
						c-6.2-5.3-10.2-13.1-10.1-22c0.1-14.9,12.1-27.4,26.9-28.2C210.2,247.3,223.8,260.3,223.8,276.6z"/>
				</g>
				<path id="XMLID_4558_" class="st16" d="M211.2,276.6c0,5.4-2.7,10.1-6.7,13c-3.4,2.4-5.2,6.4-5.2,10.6v61.7
					c0,2.2-1.7,4.1-3.9,4.1h-0.1c-2.2,0-3.9-1.9-3.9-4.1V300c0-4.1-1.9-8-5.2-10.4c-4.2-3-6.8-7.9-6.7-13.4
					c0.2-8.2,7-15.1,15.3-15.5C203.7,260.4,211.2,267.6,211.2,276.6z"/>
				<g id="XMLID_4556_" class="st35">
					<path class="st23" d="M211.2,276.6c0,5.4-2.7,10.1-6.7,13c-3.4,2.4-5.2,6.4-5.2,10.6v61.7c0,2.2-1.7,4.1-3.9,4.1h-0.1
						c-2.2,0-3.9-1.9-3.9-4.1V300c0-4.1-1.9-8-5.2-10.4c-4.2-3-6.8-7.9-6.7-13.4c0.2-8.2,7-15.1,15.3-15.5
						C203.7,260.4,211.2,267.6,211.2,276.6z"/>
				</g>
				<g id="XMLID_4554_" class="st35">
					<path class="st23" d="M199.8,287.1c0-4.1,3.3-7.4,7.4-7.4c4.1,0,7.4,3.3,7.4,7.4s-3.3,7.4-7.4,7.4
						C203.1,294.6,199.8,291.3,199.8,287.1z"/>
				</g>
				<g id="XMLID_4552_" class="st35">
					<path class="st23" d="M202.6,272.4c0-2.5,2-4.5,4.5-4.5s4.5,2,4.5,4.5s-2,4.5-4.5,4.5S202.6,274.9,202.6,272.4z"/>
				</g>
				<g id="XMLID_4546_" class="st35">
					<path class="st23" d="M194,265.1c0-1.2,1-2.3,2.3-2.3s2.3,1,2.3,2.3s-1,2.3-2.3,2.3S194,266.4,194,265.1z"/>
				</g>
				<g id="XMLID_4544_" class="st35">
					<path class="st23" d="M176,267.8c0-3.4,2.7-6.1,6.1-6.1c3.4,0,6.1,2.7,6.1,6.1s-2.7,6.1-6.1,6.1S176,271.2,176,267.8z"/>
				</g>
				<g id="XMLID_4542_" class="st35">
					<path class="st23" d="M175,278.8c0,1.6,1.3,2.9,2.9,2.9s2.9-1.3,2.9-2.9s-1.3-2.9-2.9-2.9C176.3,276,175,277.3,175,278.8z"/>
				</g>
				<g id="XMLID_4540_" class="st35">
					<path class="st23" d="M177.1,288.9c0-2.6,2.1-4.6,4.6-4.6s4.6,2.1,4.6,4.6s-2.1,4.6-4.6,4.6S177.1,291.4,177.1,288.9z"/>
				</g>
				<g id="XMLID_4536_" class="st35">
					<path class="st23" d="M188.2,295.9c0-2.1,1.7-3.8,3.8-3.8s3.8,1.7,3.8,3.8c0,2.1-1.7,3.8-3.8,3.8S188.2,298,188.2,295.9z"/>
				</g>
				<g id="XMLID_4532_" class="st35">
					<path class="st23" d="M169.5,272.4c0-1.1,0.9-2,1.9-2s1.9,0.9,1.9,2s-0.9,2-1.9,2C170.4,274.3,169.5,273.4,169.5,272.4z"/>
				</g>
				<g id="XMLID_4522_" class="st35">
					<path class="st23" d="M212,264.3c0-1.4,1.1-2.6,2.6-2.6c1.4,0,2.6,1.1,2.6,2.6s-1.1,2.6-2.6,2.6
						C213.2,266.9,212,265.7,212,264.3z"/>
				</g>
				<g id="XMLID_4515_" class="st35">
					<circle class="st23" cx="217.1" cy="276.9" r="2.6"/>
				</g>
				<g id="XMLID_4511_" class="st35">
					<path class="st23" d="M187.8,279c0-1.4,1.2-2.6,2.6-2.6s2.6,1.2,2.6,2.6s-1.2,2.6-2.6,2.6S187.8,280.4,187.8,279z"/>
				</g>
			</g>
			<g id="XMLID_505_">
				<g id="XMLID_4020_">
					<path id="XMLID_4495_" class="st16" d="M312.8,333.9c-0.2-6.5-5.5-11.7-12-11.7s-11.9,5.2-12,11.7c0,0.1,0,0.2,0,0.3
						c0,0.1,0,0.2,0,0.3c0.1,1.7,1.3,3.3,3.5,4.6c4.7,2.7,12.3,2.7,17,0c2.2-1.3,3.4-2.9,3.5-4.6c0-0.1,0-0.2,0-0.3
						S312.8,334,312.8,333.9z"/>
					<g id="XMLID_4492_" class="st34">
						<path class="st23" d="M312.8,333.9c-0.2-6.5-5.5-11.7-12-11.7s-11.9,5.2-12,11.7c0,0.1,0,0.2,0,0.3c0,0.1,0,0.2,0,0.3
							c0.1,1.7,1.3,3.3,3.5,4.6c4.7,2.7,12.3,2.7,17,0c2.2-1.3,3.4-2.9,3.5-4.6c0-0.1,0-0.2,0-0.3S312.8,334,312.8,333.9z"/>
					</g>
					<g id="XMLID_4490_" class="st34">
						<path class="st23" d="M306,323.4L306,323.4c-1.6-0.8-3.4-1.2-5.2-1.2c-6.5,0-11.9,5.2-12,11.7c0,0.1,0,0.2,0,0.3
							c0,0.1,0,0.2,0,0.3c0.1,1.7,1.3,3.3,3.5,4.6c1.7,1,3.8,1.6,6,1.9c-3.1-0.5-5.1-4-4.2-7.9C295.2,328.7,299.7,322.3,306,323.4z"
							/>
					</g>
					<path id="XMLID_4489_" class="st36" d="M312.8,334.6c0-0.1,0-0.2,0-0.3s0-0.2,0-0.3c-0.1-3.5-1.7-6.5-4.1-8.7
						c1.3,1.3,4.2,6.4,1,10.3c-2.1,2.5-11.9,6.2-20,1.5c0.6,0.8,1.4,1.5,2.5,2.2c4.7,2.7,12.3,2.7,17,0
						C311.4,337.9,312.6,336.2,312.8,334.6z"/>
					<g id="XMLID_4486_" class="st34">
						<path class="st23" d="M300.6,324.9c0.5,1.2-0.5,2.9-2.3,3.7s-3.7,0.5-4.3-0.8s0.5-2.9,2.3-3.7
							C298.2,323.3,300.1,323.7,300.6,324.9z"/>
					</g>
					<g id="XMLID_4021_" class="st34">
						<path class="st23" d="M293.6,329.9c0.3,0.6-0.1,1.4-0.9,1.8c-0.8,0.3-1.6,0.1-1.9-0.5s0.1-1.4,0.9-1.8
							S293.4,329.3,293.6,329.9z"/>
					</g>
				</g>
				<g id="XMLID_3986_">
					<path id="XMLID_4015_" class="st16" d="M301.2,350.3c-0.2-8.9-7.5-16.1-16.5-16.1s-16.3,7.2-16.5,16.1c0,0.2,0,0.3,0,0.5
						s0,0.3,0,0.5c0.2,2.3,1.8,4.5,4.8,6.3c6.5,3.7,17,3.7,23.4,0c3-1.8,4.6-4,4.8-6.3c0-0.2,0-0.3,0-0.5S301.2,350.4,301.2,350.3z"
						/>
					<g id="XMLID_4013_" class="st37">
						<path class="st23" d="M301.2,350.3c-0.2-8.9-7.5-16.1-16.5-16.1s-16.3,7.2-16.5,16.1c0,0.2,0,0.3,0,0.5s0,0.3,0,0.5
							c0.2,2.3,1.8,4.5,4.8,6.3c6.5,3.7,17,3.7,23.4,0c3-1.8,4.6-4,4.8-6.3c0-0.2,0-0.3,0-0.5S301.2,350.4,301.2,350.3z"/>
					</g>
					<g id="XMLID_4011_" class="st34">
						<path class="st23" d="M291.8,335.8L291.8,335.8c-2.2-1-4.6-1.6-7.2-1.6c-9,0-16.3,7.2-16.5,16.1c0,0.2,0,0.3,0,0.5
							s0,0.3,0,0.5c0.2,2.3,1.8,4.5,4.8,6.3c2.4,1.4,5.3,2.2,8.3,2.6c-4.3-0.7-7.1-5.5-5.8-10.8C277,343.1,283.2,334.2,291.8,335.8z
							"/>
					</g>
					<path id="XMLID_4010_" class="st33" d="M301.2,351.2c0-0.2,0-0.3,0-0.5s0-0.3,0-0.5c-0.1-4.8-2.3-9-5.6-12
						c1.8,1.9,5.8,8.8,1.5,14.1c-2.9,3.5-16.4,8.5-27.6,2.1c0.8,1.1,2,2.1,3.5,3c6.5,3.7,17,3.7,23.4,0
						C299.4,355.7,301,353.5,301.2,351.2z"/>
					<g id="XMLID_4008_" class="st32">
						<path class="st23" d="M284.5,337.9c0.7,1.7-0.7,4-3.2,5c-2.5,1.1-5.1,0.6-5.9-1.1s0.7-4,3.2-5
							C281.1,335.7,283.7,336.2,284.5,337.9z"/>
					</g>
					<g id="XMLID_4005_" class="st32">
						<path class="st23" d="M274.9,344.7c0.4,0.9-0.2,2-1.3,2.5s-2.3,0.1-2.6-0.7c-0.4-0.9,0.2-2,1.3-2.5
							C273.3,343.5,274.5,343.9,274.9,344.7z"/>
					</g>
				</g>
				<g id="XMLID_3970_">
					<path id="XMLID_3985_" class="st16" d="M274.4,359c-0.3-11.1-9.4-20-20.5-20s-20.3,8.9-20.5,20c0,0.2,0,0.4,0,0.6s0,0.4,0,0.6
						c0.2,2.9,2.2,5.6,6,7.8c8,4.6,21,4.6,29.1,0c3.8-2.2,5.8-5,6-7.8c0-0.2,0-0.4,0-0.6C274.4,359.4,274.4,359.2,274.4,359z"/>
					<g id="XMLID_3980_" class="st31">
						<path class="st23" d="M274.4,359c-0.3-11.1-9.4-20-20.5-20s-20.3,8.9-20.5,20c0,0.2,0,0.4,0,0.6s0,0.4,0,0.6
							c0.2,2.9,2.2,5.6,6,7.8c8,4.6,21,4.6,29.1,0c3.8-2.2,5.8-5,6-7.8c0-0.2,0-0.4,0-0.6C274.4,359.4,274.4,359.2,274.4,359z"/>
					</g>
					<g id="XMLID_3978_" class="st32">
						<path class="st23" d="M262.8,341L262.8,341c-2.7-1.3-5.7-2-8.9-2c-11.1,0-20.3,8.9-20.5,20c0,0.2,0,0.4,0,0.6s0,0.4,0,0.6
							c0.2,2.9,2.2,5.6,6,7.8c2.9,1.7,6.5,2.8,10.3,3.2c-5.3-0.9-8.8-6.9-7.1-13.4C244.4,350.1,252.1,339.1,262.8,341z"/>
					</g>
					<path id="XMLID_3977_" class="st33" d="M274.4,360.1c0-0.2,0-0.4,0-0.6s0-0.4,0-0.6c-0.1-5.9-2.8-11.2-7-14.9
						c2.2,2.3,7.2,11,1.8,17.5c-3.5,4.3-20.4,10.5-34.3,2.6c1,1.3,2.4,2.6,4.4,3.7c8,4.6,21,4.6,29.1,0
						C272.1,365.8,274.1,363,274.4,360.1z"/>
					<g id="XMLID_3973_" class="st32">
						<path class="st23" d="M253.6,343.6c0.9,2.1-0.9,4.9-3.9,6.3s-6.4,0.8-7.3-1.3c-0.9-2.1,0.9-4.9,3.9-6.3
							C249.5,340.9,252.7,341.5,253.6,343.6z"/>
					</g>
					<g id="XMLID_3971_" class="st32">
						<path class="st23" d="M241.7,352.1c0.5,1.1-0.2,2.5-1.6,3c-1.3,0.6-2.8,0.2-3.3-0.9s0.2-2.5,1.6-3
							C239.8,350.6,241.3,351,241.7,352.1z"/>
					</g>
				</g>
				<g id="XMLID_3956_">
					<path id="XMLID_3969_" class="st16" d="M320.4,341c-0.1-3.9-3.3-7.1-7.3-7.1s-7.2,3.1-7.3,7.1c0,0.1,0,0.1,0,0.2s0,0.1,0,0.2
						c0.1,1,0.8,2,2.1,2.8c2.8,1.6,7.4,1.6,10.3,0c1.3-0.8,2-1.8,2.1-2.8c0-0.1,0-0.1,0-0.2C320.4,341.1,320.4,341.1,320.4,341z"/>
					<g id="XMLID_3967_" class="st22">
						<path class="st23" d="M320.4,341c-0.1-3.9-3.3-7.1-7.3-7.1s-7.2,3.1-7.3,7.1c0,0.1,0,0.1,0,0.2s0,0.1,0,0.2
							c0.1,1,0.8,2,2.1,2.8c2.8,1.6,7.4,1.6,10.3,0c1.3-0.8,2-1.8,2.1-2.8c0-0.1,0-0.1,0-0.2C320.4,341.1,320.4,341.1,320.4,341z"/>
					</g>
					<g id="XMLID_3964_" class="st34">
						<path class="st23" d="M316.3,334.7L316.3,334.7c-1-0.5-2-0.7-3.1-0.7c-3.9,0-7.2,3.1-7.3,7.1c0,0.1,0,0.1,0,0.2s0,0.1,0,0.2
							c0.1,1,0.8,2,2.1,2.8c1,0.6,2.3,1,3.6,1.1c-1.9-0.3-3.1-2.4-2.5-4.8C309.8,337.9,312.5,334,316.3,334.7z"/>
					</g>
					<g id="XMLID_3962_" class="st38">
						<path class="st39" d="M320.4,341.4c0-0.1,0-0.1,0-0.2s0-0.1,0-0.2c0-2.1-1-4-2.5-5.3c0.8,0.8,2.5,3.9,0.6,6.2
							c-1.3,1.5-7.2,3.7-12.1,0.9c0.4,0.5,0.9,0.9,1.5,1.3c2.8,1.6,7.4,1.6,10.3,0C319.6,343.4,320.3,342.4,320.4,341.4z"/>
					</g>
					<g id="XMLID_3960_" class="st32">
						<path class="st23" d="M313.1,335.6c0.3,0.7-0.3,1.7-1.4,2.2s-2.3,0.3-2.6-0.5c-0.3-0.7,0.3-1.7,1.4-2.2
							S312.8,334.8,313.1,335.6z"/>
					</g>
					<g id="XMLID_3957_" class="st32">
						<path class="st23" d="M308.9,338.6c0.2,0.4-0.1,0.9-0.5,1.1c-0.5,0.2-1,0.1-1.2-0.3s0.1-0.9,0.5-1.1
							C308.2,338.1,308.7,338.2,308.9,338.6z"/>
					</g>
				</g>
				<g id="XMLID_3941_">
					<path id="XMLID_3955_" class="st16" d="M83.3,327.3c0.2-6.5,5.5-11.7,12-11.7s11.8,5.2,12,11.7c0,0.1,0,0.2,0,0.3
						c0,0.1,0,0.2,0,0.3c-0.1,1.7-1.3,3.3-3.5,4.6c-4.7,2.7-12.3,2.7-17,0c-2.2-1.3-3.4-2.9-3.5-4.6c0-0.1,0-0.2,0-0.3
						S83.3,327.4,83.3,327.3z"/>
					<g id="XMLID_3953_" class="st34">
						<path class="st23" d="M83.3,327.3c0.2-6.5,5.5-11.7,12-11.7s11.8,5.2,12,11.7c0,0.1,0,0.2,0,0.3c0,0.1,0,0.2,0,0.3
							c-0.1,1.7-1.3,3.3-3.5,4.6c-4.7,2.7-12.3,2.7-17,0c-2.2-1.3-3.4-2.9-3.5-4.6c0-0.1,0-0.2,0-0.3S83.3,327.4,83.3,327.3z"/>
					</g>
					<g id="XMLID_3951_" class="st34">
						<path class="st23" d="M90.1,316.8L90.1,316.8c1.6-0.8,3.3-1.2,5.2-1.2c6.5,0,11.8,5.2,12,11.7c0,0.1,0,0.2,0,0.3
							c0,0.1,0,0.2,0,0.3c-0.1,1.7-1.3,3.3-3.5,4.6c-1.7,1-3.8,1.6-6,1.9c3.1-0.5,5.1-4,4.2-7.9C100.9,322.1,96.4,315.6,90.1,316.8z
							"/>
					</g>
					<path id="XMLID_3950_" class="st36" d="M83.3,328c0-0.1,0-0.2,0-0.3c0-0.1,0-0.2,0-0.3c0.1-3.5,1.7-6.5,4.1-8.7
						c-1.3,1.3-4.2,6.4-1.1,10.3c2.1,2.5,11.9,6.2,20,1.5c-0.6,0.8-1.4,1.5-2.6,2.2c-4.7,2.7-12.3,2.7-17,0
						C84.6,331.3,83.5,329.6,83.3,328z"/>
					<g id="XMLID_3948_" class="st32">
						<path class="st23" d="M95.5,318.3c-0.5,1.2,0.5,2.9,2.3,3.7c1.8,0.8,3.7,0.5,4.3-0.8s-0.5-2.9-2.3-3.7
							C97.9,316.7,96,317.1,95.5,318.3z"/>
					</g>
					<g id="XMLID_3946_" class="st32">
						<path class="st23" d="M102.4,323.3c-0.3,0.6,0.1,1.4,0.9,1.8c0.8,0.3,1.6,0.1,1.9-0.5s-0.1-1.4-0.9-1.8
							C103.6,322.4,102.7,322.6,102.4,323.3z"/>
					</g>
				</g>
				<g id="XMLID_3916_">
					<path id="XMLID_3934_" class="st16" d="M107.8,330.4c0.2-9.4,8-17,17.4-17c9.5,0,17.2,7.5,17.4,17c0,0.2,0,0.3,0,0.5
						s0,0.3,0,0.5c-0.2,2.4-1.9,4.8-5.1,6.6c-6.8,3.9-17.9,3.9-24.7,0c-3.2-1.9-4.9-4.2-5.1-6.6c0-0.2,0-0.3,0-0.5
						C107.8,330.7,107.8,330.5,107.8,330.4z"/>
					<g id="XMLID_3931_" class="st35">
						<path class="st23" d="M107.8,330.4c0.2-9.4,8-17,17.4-17c9.5,0,17.2,7.5,17.4,17c0,0.2,0,0.3,0,0.5s0,0.3,0,0.5
							c-0.2,2.4-1.9,4.8-5.1,6.6c-6.8,3.9-17.9,3.9-24.7,0c-3.2-1.9-4.9-4.2-5.1-6.6c0-0.2,0-0.3,0-0.5
							C107.8,330.7,107.8,330.5,107.8,330.4z"/>
					</g>
					<g id="XMLID_3927_" class="st32">
						<path class="st23" d="M117.6,315.1L117.6,315.1c2.3-1.1,4.8-1.7,7.6-1.7c9.5,0,17.2,7.5,17.4,17c0,0.2,0,0.3,0,0.5
							s0,0.3,0,0.5c-0.2,2.4-1.9,4.8-5.1,6.6c-2.5,1.4-5.5,2.3-8.8,2.7c4.5-0.8,7.4-5.8,6.1-11.4
							C133.2,322.8,126.7,313.5,117.6,315.1z"/>
					</g>
					<path id="XMLID_3923_" class="st33" d="M107.8,331.3c0-0.2,0-0.3,0-0.5s0-0.3,0-0.5c0.1-5,2.4-9.5,5.9-12.6
						c-1.9,2-6.1,9.3-1.5,14.9c3,3.7,17.3,8.9,29.1,2.2c-0.9,1.1-2.1,2.2-3.7,3.1c-6.8,3.9-17.9,3.9-24.7,0
						C109.7,336.1,108,333.8,107.8,331.3z"/>
					<g id="XMLID_3920_" class="st34">
						<path class="st23" d="M125.4,317.3c-0.8,1.8,0.7,4.2,3.3,5.3c2.6,1.2,5.4,0.6,6.2-1.1s-0.7-4.2-3.4-5.3
							C128.9,315,126.2,315.5,125.4,317.3z"/>
					</g>
					<g id="XMLID_3917_" class="st34">
						<path class="st23" d="M135.5,324.6c-0.4,0.9,0.2,2.1,1.3,2.6s2.4,0.1,2.8-0.8c0.4-0.9-0.2-2.1-1.3-2.6
							C137.1,323.3,135.9,323.6,135.5,324.6z"/>
					</g>
				</g>
				<g id="XMLID_3905_">
					<path id="XMLID_3915_" class="st16" d="M97.5,341c0.2-8.9,7.6-16.1,16.5-16.1c9,0,16.3,7.2,16.6,16.1c0,0.2,0,0.3,0,0.5
						s0,0.3,0,0.5c-0.2,2.3-1.8,4.5-4.8,6.3c-6.5,3.7-17,3.7-23.4,0c-3-1.8-4.6-4-4.8-6.3c0-0.2,0-0.3,0-0.5
						C97.5,341.3,97.5,341.2,97.5,341z"/>
					<g id="XMLID_3913_" class="st37">
						<path class="st23" d="M97.5,341c0.2-8.9,7.6-16.1,16.5-16.1c9,0,16.3,7.2,16.6,16.1c0,0.2,0,0.3,0,0.5s0,0.3,0,0.5
							c-0.2,2.3-1.8,4.5-4.8,6.3c-6.5,3.7-17,3.7-23.4,0c-3-1.8-4.6-4-4.8-6.3c0-0.2,0-0.3,0-0.5C97.5,341.3,97.5,341.2,97.5,341z"
							/>
					</g>
					<g id="XMLID_3911_" class="st34">
						<path class="st23" d="M106.8,326.6L106.8,326.6c2.2-1,4.6-1.6,7.2-1.6c9,0,16.3,7.2,16.6,16.1c0,0.2,0,0.3,0,0.5s0,0.3,0,0.5
							c-0.2,2.3-1.8,4.5-4.8,6.3c-2.4,1.4-5.3,2.2-8.3,2.6c4.3-0.7,7.1-5.5,5.8-10.8C121.7,333.9,115.4,325,106.8,326.6z"/>
					</g>
					<path id="XMLID_3910_" class="st40" d="M97.5,342c0-0.2,0-0.3,0-0.5s0-0.3,0-0.5c0.1-4.8,2.3-9,5.6-12
						c-1.8,1.9-5.8,8.8-1.4,14.1c2.9,3.5,16.4,8.5,27.6,2.1c-0.8,1.1-2,2.1-3.5,3c-6.5,3.7-17,3.7-23.4,0
						C99.3,346.5,97.7,344.2,97.5,342z"/>
					<g id="XMLID_3908_" class="st32">
						<path class="st23" d="M114.2,328.6c-0.7,1.7,0.7,4,3.2,5c2.5,1.1,5.1,0.6,5.9-1.1s-0.7-4-3.2-5S114.9,327,114.2,328.6z"/>
					</g>
					<g id="XMLID_3906_" class="st32">
						<path class="st23" d="M123.8,335.5c-0.4,0.9,0.2,2,1.3,2.5s2.3,0.1,2.7-0.7c0.4-0.9-0.2-2-1.3-2.5
							C125.4,334.3,124.2,334.6,123.8,335.5z"/>
					</g>
				</g>
				<g id="XMLID_3865_">
					<path id="XMLID_3904_" class="st16" d="M121.9,356.5c0.3-11.1,9.4-20,20.5-20c11.1,0,20.3,8.9,20.5,20c0,0.2,0,0.4,0,0.6
						s0,0.4,0,0.6c-0.2,2.9-2.2,5.6-6,7.8c-8,4.6-21,4.6-29.1,0c-3.8-2.2-5.8-5-6-7.8c0-0.2,0-0.4,0-0.6
						C121.9,356.9,121.9,356.7,121.9,356.5z"/>
					<g id="XMLID_3902_" class="st31">
						<path class="st23" d="M121.9,356.5c0.3-11.1,9.4-20,20.5-20c11.1,0,20.3,8.9,20.5,20c0,0.2,0,0.4,0,0.6s0,0.4,0,0.6
							c-0.2,2.9-2.2,5.6-6,7.8c-8,4.6-21,4.6-29.1,0c-3.8-2.2-5.8-5-6-7.8c0-0.2,0-0.4,0-0.6C121.9,356.9,121.9,356.7,121.9,356.5z"
							/>
					</g>
					<g id="XMLID_3900_" class="st32">
						<path class="st23" d="M133.5,338.6L133.5,338.6c2.7-1.3,5.7-2,8.9-2c11.1,0,20.3,8.9,20.5,20c0,0.2,0,0.4,0,0.6s0,0.4,0,0.6
							c-0.2,2.9-2.2,5.6-6,7.8c-2.9,1.7-6.5,2.8-10.3,3.2c5.3-0.9,8.8-6.9,7.1-13.4C151.9,347.6,144.2,336.6,133.5,338.6z"/>
					</g>
					<path id="XMLID_3899_" class="st33" d="M121.9,357.6c0-0.2,0-0.4,0-0.6s0-0.4,0-0.6c0.2-5.9,2.8-11.2,7-14.9
						c-2.2,2.3-7.2,11-1.8,17.5c3.6,4.3,20.4,10.5,34.3,2.6c-1,1.3-2.4,2.6-4.4,3.7c-8,4.6-21,4.6-29.1,0
						C124.2,363.3,122.2,360.5,121.9,357.6z"/>
					<g id="XMLID_3877_" class="st32">
						<path class="st23" d="M142.7,341.1c-0.9,2.1,0.9,4.9,3.9,6.3c3.1,1.4,6.4,0.8,7.3-1.3c0.9-2.1-0.9-4.9-3.9-6.3
							S143.6,339,142.7,341.1z"/>
					</g>
					<g id="XMLID_3866_" class="st32">
						<path class="st23" d="M154.6,349.7c-0.5,1.1,0.2,2.5,1.6,3c1.3,0.6,2.8,0.2,3.3-0.9s-0.2-2.5-1.6-3
							C156.5,348.2,155.1,348.6,154.6,349.7z"/>
					</g>
				</g>
				<g id="XMLID_2460_">
					<path id="XMLID_3864_" class="st16" d="M237,360.2c-0.3-10.1-8.6-18.3-18.8-18.3s-18.5,8.1-18.8,18.3c0,0.2,0,0.3,0,0.5
						s0,0.3,0,0.5c0.2,2.6,2,5.1,5.5,7.1c7.3,4.2,19.2,4.2,26.6,0c3.4-2,5.3-4.5,5.5-7.1c0-0.2,0-0.3,0-0.5S237,360.4,237,360.2z"/>
					<g id="XMLID_3845_" class="st30">
						<path class="st23" d="M237,360.2c-0.3-10.1-8.6-18.3-18.8-18.3s-18.5,8.1-18.8,18.3c0,0.2,0,0.3,0,0.5s0,0.3,0,0.5
							c0.2,2.6,2,5.1,5.5,7.1c7.3,4.2,19.2,4.2,26.6,0c3.4-2,5.3-4.5,5.5-7.1c0-0.2,0-0.3,0-0.5S237,360.4,237,360.2z"/>
					</g>
					<g id="XMLID_3836_" class="st34">
						<path class="st23" d="M226.4,343.8L226.4,343.8c-2.5-1.2-5.2-1.9-8.1-1.9c-10.2,0-18.5,8.1-18.8,18.3c0,0.2,0,0.3,0,0.5
							s0,0.3,0,0.5c0.2,2.6,2,5.1,5.5,7.1c2.7,1.5,6,2.5,9.4,2.9c-4.9-0.8-8-6.3-6.5-12.3C209.6,352.1,216.7,342,226.4,343.8z"/>
					</g>
					<path id="XMLID_3804_" class="st33" d="M237,361.2c0-0.2,0-0.3,0-0.5s0-0.3,0-0.5c-0.1-5.4-2.6-10.2-6.4-13.6
						c2,2.1,6.6,10,1.6,16c-3.2,4-18.6,9.6-31.3,2.4c0.9,1.2,2.2,2.4,4,3.4c7.3,4.2,19.2,4.2,26.6,0
						C235,366.4,236.8,363.8,237,361.2z"/>
					<g id="XMLID_2779_" class="st34">
						
							<ellipse transform="matrix(0.9156 -0.4021 0.4021 0.9156 -122.1074 115.0506)" class="st23" cx="213" cy="348.4" rx="5.6" ry="3.8"/>
					</g>
					<g id="XMLID_2647_" class="st34">
						<path class="st23" d="M207.2,354c0.4,1-0.2,2.2-1.4,2.8c-1.2,0.5-2.6,0.2-3-0.8s0.2-2.2,1.4-2.8S206.8,353,207.2,354z"/>
					</g>
				</g>
				<g id="XMLID_1374_">
					<path id="XMLID_2433_" class="st16" d="M158.7,362.2c0.3-9.6,8.1-17.4,17.8-17.4s17.6,7.7,17.8,17.4c0,0.2,0,0.3,0,0.5
						s0,0.3,0,0.5c-0.2,2.5-1.9,4.9-5.2,6.8c-7,4-18.3,4-25.3,0c-3.3-1.9-5-4.3-5.2-6.8c0-0.2,0-0.3,0-0.5S158.7,362.4,158.7,362.2z
						"/>
					<g id="XMLID_2429_" class="st30">
						<path class="st23" d="M158.7,362.2c0.3-9.6,8.1-17.4,17.8-17.4s17.6,7.7,17.8,17.4c0,0.2,0,0.3,0,0.5s0,0.3,0,0.5
							c-0.2,2.5-1.9,4.9-5.2,6.8c-7,4-18.3,4-25.3,0c-3.3-1.9-5-4.3-5.2-6.8c0-0.2,0-0.3,0-0.5S158.7,362.4,158.7,362.2z"/>
					</g>
					<g id="XMLID_2401_" class="st34">
						<path class="st23" d="M168.8,346.6L168.8,346.6c2.3-1.1,5-1.8,7.7-1.8c9.7,0,17.6,7.7,17.8,17.4c0,0.2,0,0.3,0,0.5
							s0,0.3,0,0.5c-0.2,2.5-1.9,4.9-5.2,6.8c-2.5,1.5-5.7,2.4-8.9,2.8c4.6-0.8,7.6-6,6.2-11.7C184.7,354.5,178.1,344.9,168.8,346.6
							z"/>
					</g>
					<path id="XMLID_2342_" class="st33" d="M158.7,363.2c0-0.2,0-0.3,0-0.5s0-0.3,0-0.5c0.1-5.1,2.5-9.7,6.1-12.9
						c-1.9,2-6.3,9.5-1.6,15.2c3.1,3.8,17.7,9.1,29.8,2.2c-0.9,1.2-2.1,2.3-3.8,3.2c-7,4-18.3,4-25.3,0
						C160.6,368.1,158.9,365.7,158.7,363.2z"/>
					<g id="XMLID_1483_" class="st34">
						<path class="st23" d="M176.7,348.9c-0.8,1.8,0.7,4.3,3.4,5.4c2.7,1.2,5.5,0.7,6.3-1.1s-0.7-4.3-3.4-5.4
							C180.3,346.5,177.5,347.1,176.7,348.9z"/>
					</g>
					<g id="XMLID_1375_" class="st34">
						<path class="st23" d="M187,356.3c-0.4,1,0.2,2.1,1.4,2.6s2.4,0.2,2.9-0.8s-0.2-2.1-1.4-2.6S187.5,355.3,187,356.3z"/>
					</g>
				</g>
				<g id="XMLID_1273_">
					<path id="XMLID_1373_" class="st16" d="M205,368.5c-0.1-3.9-3.3-7.1-7.3-7.1c-3.9,0-7.2,3.1-7.3,7.1c0,0.1,0,0.1,0,0.2
						s0,0.1,0,0.2c0.1,1,0.8,2,2.1,2.8c2.8,1.6,7.4,1.6,10.3,0c1.3-0.8,2-1.8,2.1-2.8c0-0.1,0-0.1,0-0.2
						C205,368.6,205,368.5,205,368.5z"/>
					<g id="XMLID_1343_" class="st30">
						<path class="st23" d="M205,368.5c-0.1-3.9-3.3-7.1-7.3-7.1c-3.9,0-7.2,3.1-7.3,7.1c0,0.1,0,0.1,0,0.2s0,0.1,0,0.2
							c0.1,1,0.8,2,2.1,2.8c2.8,1.6,7.4,1.6,10.3,0c1.3-0.8,2-1.8,2.1-2.8c0-0.1,0-0.1,0-0.2C205,368.6,205,368.5,205,368.5z"/>
					</g>
					<g id="XMLID_1333_" class="st37">
						<path class="st23" d="M200.9,362.1L200.9,362.1c-0.9-0.5-2-0.7-3.1-0.7c-3.9,0-7.2,3.1-7.3,7.1c0,0.1,0,0.1,0,0.2s0,0.1,0,0.2
							c0.1,1,0.8,2,2.1,2.8c1,0.6,2.3,1,3.6,1.1c-1.9-0.3-3.1-2.4-2.5-4.8C194.4,365.3,197.1,361.4,200.9,362.1z"/>
					</g>
					<path id="XMLID_1286_" class="st33" d="M205,368.9c0-0.1,0-0.1,0-0.2s0-0.1,0-0.2c-0.1-2.1-1-4-2.5-5.3
						c0.8,0.8,2.6,3.9,0.6,6.2c-1.3,1.5-7.2,3.7-12.1,0.9c0.4,0.5,0.9,0.9,1.5,1.3c2.8,1.6,7.4,1.6,10.3,0
						C204.2,370.9,204.9,369.9,205,368.9z"/>
					<g id="XMLID_1280_" class="st34">
						<path class="st23" d="M197.6,363c0.3,0.7-0.3,1.7-1.4,2.2c-1.1,0.5-2.3,0.3-2.6-0.5s0.3-1.7,1.4-2.2
							C196.2,362.1,197.3,362.3,197.6,363z"/>
					</g>
					<g id="XMLID_1339_" class="st34">
						<path class="st23" d="M193.4,366c0.2,0.4-0.1,0.9-0.6,1.1s-1,0.1-1.2-0.3s0.1-0.9,0.6-1.1S193.3,365.7,193.4,366z"/>
					</g>
				</g>
				<g id="XMLID_1271_">
					<path id="XMLID_1267_" class="st16" d="M71.8,331.3c0.1-3.9,3.3-7.1,7.3-7.1s7.2,3.1,7.3,7.1c0,0.1,0,0.1,0,0.2s0,0.1,0,0.2
						c-0.1,1-0.8,2-2.1,2.8c-2.8,1.6-7.4,1.6-10.3,0c-1.3-0.8-2-1.8-2.1-2.8c0-0.1,0-0.1,0-0.2C71.8,331.4,71.8,331.4,71.8,331.3z"
						/>
					<g id="XMLID_1182_" class="st22">
						<path class="st23" d="M71.8,331.3c0.1-3.9,3.3-7.1,7.3-7.1s7.2,3.1,7.3,7.1c0,0.1,0,0.1,0,0.2s0,0.1,0,0.2
							c-0.1,1-0.8,2-2.1,2.8c-2.8,1.6-7.4,1.6-10.3,0c-1.3-0.8-2-1.8-2.1-2.8c0-0.1,0-0.1,0-0.2C71.8,331.4,71.8,331.4,71.8,331.3z"
							/>
					</g>
					<g id="XMLID_1170_" class="st34">
						<path class="st23" d="M75.9,324.9L75.9,324.9c0.9-0.5,2-0.7,3.2-0.7c3.9,0,7.2,3.1,7.3,7.1c0,0.1,0,0.1,0,0.2s0,0.1,0,0.2
							c-0.1,1-0.8,2-2.1,2.8c-1,0.6-2.3,1-3.7,1.1c1.9-0.3,3.1-2.4,2.5-4.8C82.4,328.1,79.7,324.2,75.9,324.9z"/>
					</g>
					<g id="XMLID_1168_" class="st38">
						<path class="st39" d="M71.8,331.7c0-0.1,0-0.1,0-0.2s0-0.1,0-0.2c0.1-2.1,1-4,2.5-5.3c-0.8,0.8-2.6,3.9-0.6,6.2
							c1.3,1.5,7.2,3.7,12.1,0.9c-0.3,0.5-0.9,0.9-1.5,1.3c-2.8,1.6-7.4,1.6-10.3,0C72.6,333.7,71.9,332.7,71.8,331.7z"/>
					</g>
					<g id="XMLID_1157_" class="st32">
						<path class="st23" d="M79.2,325.9c-0.3,0.7,0.3,1.7,1.4,2.2s2.3,0.3,2.6-0.5c0.3-0.7-0.3-1.7-1.4-2.2
							C80.6,324.9,79.5,325.1,79.2,325.9z"/>
					</g>
					<g id="XMLID_838_" class="st32">
						<path class="st23" d="M83.4,328.9c-0.2,0.4,0.1,0.9,0.6,1.1s1,0.1,1.2-0.3s-0.1-0.9-0.6-1.1C84.1,328.3,83.6,328.5,83.4,328.9
							z"/>
					</g>
				</g>
			</g>
		</g>
		<g id="Flame">
			<path id="XMLID_723_" class="st16" d="M213.5,256.3l-18.2-4.7l-18.2,4.7c0,0-2.2,9.8,0.2,25c2.4,15.3,13,30.6,18,30.6
				s15.6-15.3,18-30.6C215.7,266,213.5,256.3,213.5,256.3z"/>
			<g id="XMLID_669_" class="st35">
				<path class="st23" d="M213.5,256.3l-18.2-4.7l-18.2,4.7c0,0-2.2,9.8,0.2,25c2.4,15.3,13,30.6,18,30.6s15.6-15.3,18-30.6
					C215.7,266,213.5,256.3,213.5,256.3z"/>
			</g>
			<path id="XMLID_605_" class="st16" d="M207.2,258.5h-12.5h-12.5c-3.6,21.5,7.9,38,12.5,38S210.8,280,207.2,258.5z"/>
			<path id="XMLID_503_" class="st23" d="M194.7,258.5h4.3c0,0,2.9,4.4,2.3,11.5c-0.5,5.8-4,13.4-6.6,13.4s-6.1-7.5-6.6-13.4
				c-0.6-7.1,2.3-11.5,2.3-11.5H194.7"/>
		</g>
		<g id="Rocket">
			<g>
				<path d="M223.2,249.7L223.2,249.7l-2.4-25.3h-51.1l-2.4,25.3l0,0c-0.5,4.5,2.2,9,8.1,12.5c10.9,6.3,28.6,6.3,39.6,0
					C221,258.7,223.7,254.2,223.2,249.7z"/>
				<path d="M177.2,235.8c-10-5.8-10-15.1,0-20.9c10-5.8,26.2-5.8,36.2,0s10,15.1,0,20.9S187.2,241.6,177.2,235.8z"/>
				<path class="st16" d="M222.6,243.5l-0.8-8.5c-0.7,3.3-3.3,6.4-7.6,8.9c-10.4,6-27.4,6-37.9,0c-4.4-2.5-6.9-5.7-7.6-8.9l-0.8,8.5
					c0.6,3.5,3.3,6.9,7.9,9.5c10.8,6.2,28.2,6.2,38.9,0C219.4,250.4,222,247,222.6,243.5z"/>
				<path class="st41" d="M195.7,251.5c14.3,0,22.9-4.9,26.8-9.4l-0.6-6.3c-6.7,4.6-15.7,7.1-25.8,7.1c-0.3,0-0.5,0-0.8,0
					c-7,0.1-13.6-1-19.2-3.2c0.3-1.6,0.6-3.4,0.9-5.3l-2.2-10h-3l-2.4,2.3l-2.2,23.1l0,0c-0.5,4.5,2.2,9,8.1,12.5
					c10.9,6.3,28.6,6.3,39.6,0c0.4-0.2,0.7-0.4,1.1-0.7c0,0-8.3,4.1-21,3.6s-20.5-5.4-20.7-9c-0.1-2,0-4.6,0.5-8.8
					C179.9,249.8,186.8,251.5,195.7,251.5z"/>
			</g>
			<path d="M196.1,242.9c-0.3,0-0.5,0-0.8,0c-11.3,0.1-21.3-2.8-28.2-8.3c-2.6-2.1-3.1-5.9-1-8.6c2.1-2.6,5.9-3.1,8.6-1
				c4.8,3.8,12.1,5.8,20.5,5.6h0.1h0.1c8.5,0.1,15.8-1.9,20.5-5.6c2.6-2.1,6.5-1.6,8.6,1s1.6,6.5-1,8.6
				C216.7,239.9,207,242.9,196.1,242.9z"/>
			<path d="M170.8,233.3c1.8,0,8.7,5.1,24.1,5.1s25.6-6,30.6-10.7c-0.2-0.6-0.5-1.2-0.9-1.7c-2.1-2.6-5.9-3.1-8.6-1
				c-4.8,3.8-12.1,5.7-20.5,5.6h-0.1h-0.1c-8.5,0.1-15.8-1.9-20.5-5.6c-2.6-2.1-6.5-1.6-8.6,1s-1.6,6.5,1,8.6
				c6.9,5.5,17,8.4,28.2,8.3c-5.9,0-11.6-1.3-17.8-3.6C171.4,237,169,233.3,170.8,233.3z"/>
			<g>
				<g>
					<path class="st42" d="M195.3,236c-9.3,0-18.1-2.1-24.7-5.9c-6.5-3.8-10.1-8.7-10.1-14v-0.4l0,0c-0.4-6.6-4.6-81.6-2.1-109
						c2.9-32.3,27.1-59.1,34.5-66.5c0.6-0.7,1.5-1,2.4-1s1.8,0.4,2.4,1c7.4,7.4,31.6,34.2,34.5,66.5c2.5,27.4-1.7,102.3-2.1,109l0,0
						v0.4c0,5.3-3.6,10.3-10.1,14C213.4,233.9,204.6,236,195.3,236z"/>
					<path class="st43" d="M195.3,39.5c0.8,0,1.6,0.3,2.1,0.9c7.3,7.4,31.5,34.1,34.4,66.3c2.4,26.9-1.6,99.9-2.1,108.5h-0.1v0.8
						c0,5.1-3.5,10-9.9,13.7c-6.5,3.8-15.2,5.8-24.5,5.8s-17.9-2.1-24.5-5.8c-6.4-3.7-9.9-8.6-9.9-13.7v-0.8l0,0
						c-0.5-8.6-4.5-81.6-2.1-108.5c2.9-32.2,27.1-58.9,34.4-66.3C193.7,39.9,194.5,39.5,195.3,39.5 M195.3,38.8
						c-1,0-1.9,0.4-2.7,1.1c-8.1,8.2-31.7,34.6-34.6,66.8c-2.2,24.6,1,89.1,2.1,109.4l0,0c0,5.2,3.4,10.4,10.3,14.4
						s15.9,5.9,24.9,5.9s18-2,24.9-5.9s10.3-9.2,10.3-14.4l0,0c1.2-20.3,4.4-84.8,2.1-109.4C229.7,74.5,206,48.1,198,39.9
						C197.2,39.2,196.3,38.8,195.3,38.8L195.3,38.8z"/>
				</g>
				<g>
					<path class="st43" d="M230.2,184c-1.6,2.8-4.1,5.1-6.8,7c-1.3,0.9-2.8,1.7-4.3,2.5c-1.5,0.7-3,1.4-4.5,1.9
						c-6.2,2.3-12.8,3.2-19.3,3.3c-6.6-0.1-13.1-1-19.3-3.3c-1.6-0.5-3-1.3-4.5-1.9c-1.4-0.8-2.9-1.5-4.3-2.5
						c-2.7-1.9-5.1-4.2-6.8-7c1.9,2.6,4.4,4.7,7.2,6.4c1.4,0.9,2.8,1.5,4.3,2.2c1.5,0.6,2.9,1.3,4.5,1.7c6.1,2,12.5,2.8,18.9,2.9
						c6.4-0.1,12.8-0.9,18.9-2.9c1.6-0.4,3-1.1,4.5-1.7c1.4-0.7,2.9-1.4,4.3-2.2C225.7,188.7,228.2,186.6,230.2,184z"/>
					<path class="st43" d="M230.2,146.1c-1.6,2.8-4.1,5.1-6.8,7c-1.3,0.9-2.8,1.7-4.3,2.5c-1.5,0.7-3,1.4-4.5,1.9
						c-6.2,2.3-12.8,3.2-19.3,3.3c-6.6-0.1-13.1-1-19.3-3.3c-1.6-0.5-3-1.3-4.5-1.9c-1.4-0.8-2.9-1.5-4.3-2.5
						c-2.7-1.9-5.1-4.2-6.8-7c1.9,2.6,4.4,4.7,7.2,6.4c1.4,0.9,2.8,1.5,4.3,2.2c1.5,0.6,2.9,1.3,4.5,1.7c6.1,2,12.5,2.8,18.9,2.9
						c6.4-0.1,12.8-0.9,18.9-2.9c1.6-0.4,3-1.1,4.5-1.7c1.4-0.7,2.9-1.4,4.3-2.2C225.7,150.9,228.2,148.8,230.2,146.1z"/>
					<path class="st43" d="M196.6,166.4c0,0.7-0.6,1.3-1.3,1.3s-1.3-0.6-1.3-1.3s0.6-1.3,1.3-1.3C196,165.1,196.6,165.7,196.6,166.4
						z"/>
					<circle class="st43" cx="217" cy="161.1" r="1.3"/>
					<circle class="st43" cx="173.5" cy="161.1" r="1.3"/>
					<path class="st43" d="M218.3,200.5c0,0.7-0.6,1.3-1.3,1.3s-1.3-0.6-1.3-1.3s0.6-1.3,1.3-1.3S218.3,199.8,218.3,200.5z"/>
					<path class="st43" d="M174.8,200.5c0,0.7-0.6,1.3-1.3,1.3s-1.3-0.6-1.3-1.3s0.6-1.3,1.3-1.3S174.8,199.8,174.8,200.5z"/>
				</g>
			</g>
			<g>
				<path class="st16" d="M216.3,92.9c-11.6,6.7-30.4,6.7-41.9,0c-7.2-4.2-10-10-8.1-15.4l0,0c0.4-0.9,0.8-1.7,1.2-2.5
					c8.4-17,20.1-29.9,25.2-35.1c1.5-1.5,3.9-1.5,5.4,0c5.2,5.2,16.8,18,25.2,35c0.4,0.9,0.9,1.7,1.3,2.6
					C226.2,83,223.5,88.7,216.3,92.9z"/>
				<path class="st19" d="M195.3,94.1c-7.3,0-14-1.6-19.1-4.5c-5.3-3.1-7.6-6.9-6.5-10.7c0.4-0.8,0.7-1.5,1.1-2.2
					c8.3-16.7,19.8-29.4,24.5-34.1c0,0-7.2,14.7-8.8,27C184.8,81.9,189.1,89.9,195.3,94.1z"/>
				<path class="st44" d="M198.4,45.4c2.4,2.3,4.5,4.8,6.6,7.3s4,5.2,5.8,7.9c0.9,1.4,1.8,2.8,2.7,4.1c0.8,1.4,1.7,2.8,2.5,4.3
					c1.6,2.9,3,5.8,4.2,8.9l-5.3-8.3c-1.8-2.7-3.5-5.5-5.4-8.2c-1.8-2.7-3.6-5.4-5.5-8.1L198.4,45.4z"/>
			</g>
			<path d="M197.5,40.9l-2.2-21.5l-2.2,21.5l0,0c0,0.3,0.2,0.7,0.6,0.9c0.9,0.5,2.3,0.5,3.1,0C197.3,41.5,197.5,41.2,197.5,40.9
				L197.5,40.9z"/>
			<g>
				<ellipse class="st16" cx="195.3" cy="125.1" rx="19.5" ry="19.5"/>
				<ellipse class="st19" cx="195.3" cy="125.1" rx="19.5" ry="19.5"/>
				<circle class="st16" cx="195.3" cy="127.4" r="19.5"/>
				<path class="st41" d="M202.3,145.6l-6.3-17.4l16,9.2c0.1-0.2,0.3-0.4,0.4-0.7l-16-9.2l18.2-3.2c0-0.3-0.1-0.5-0.1-0.8l-18.2,3.2
					l11.9-14.1c-0.2-0.2-0.4-0.3-0.6-0.5l-11.9,14.2v-18.5c-0.1,0-0.3,0-0.4,0s-0.3,0-0.4,0v18.5L183,112.2
					c-0.2,0.2-0.4,0.3-0.6,0.5l11.9,14.1l-18.2-3.2c-0.1,0.3-0.1,0.5-0.1,0.8l18.2,3.2l-16,9.2c0.1,0.2,0.3,0.4,0.4,0.7l16-9.2
					l-6.3,17.4c0.2,0.1,0.5,0.2,0.7,0.3l6.3-17.4l6.3,17.4C201.9,145.8,202.1,145.7,202.3,145.6z"/>
				<circle cx="195.3" cy="127.4" r="14.1"/>
				<path d="M195.3,113.3c-7.3,0-13.4,5.6-14,12.8c0.6,7.2,6.7,12.8,14,12.8s13.4-5.6,14-12.8C208.7,118.9,202.6,113.3,195.3,113.3z
					"/>
				<path class="st43" d="M206.6,123.8c0,2.3-1.9,4.2-4.2,4.2s-4.2-1.9-4.2-4.2c0-2.3,1.9-4.2,4.2-4.2
					C204.7,119.6,206.6,121.5,206.6,123.8z"/>
				<path class="st43" d="M203.9,132.2c0,1.3-1.1,2.4-2.4,2.4s-2.4-1.1-2.4-2.4s1.1-2.4,2.4-2.4
					C202.8,129.7,203.9,130.8,203.9,132.2z"/>
			</g>
			<g>
				<g>
					<path d="M203.6,189.4c0.2-4.7-3.6-8.6-8.3-8.6l0,0c-4.7,0-8.5,3.9-8.3,8.6c0,0,0,3.1,0,3.6l1.9,43.9c0.1,2.7,2.3,4.8,5,4.8h2.8
						c2.7,0,4.9-2.1,5-4.8l1.9-43.9C203.6,192.5,203.6,189.4,203.6,189.4z"/>
					<path d="M196.7,241.8h-2.8c-2.7,0-4.9-2.1-5-4.8l-1.9-44c-0.2-4.7,3.6-8.6,8.3-8.6l0,0c4.7,0,8.5,3.9,8.3,8.6l-1.9,43.9
						C201.6,239.6,199.4,241.8,196.7,241.8z"/>
				</g>
				<g>
					<path class="st16" d="M195.3,271.6L195.3,271.6c-1.3,0-2.4-1.1-2.5-2.4l-2.1-72.8c-0.1-2.6,2-4.8,4.6-4.8l0,0
						c2.6,0,4.7,2.2,4.6,4.8l-2.1,72.8C197.7,270.5,196.6,271.6,195.3,271.6z"/>
					<path class="st41" d="M192.8,269.2c0,1.3,1.1,2.4,2.5,2.4s2.4-1.1,2.5-2.4l0.3-9.2l-0.1-0.3c0,0-0.4,4.3-2.6,3.2
						c-1.6-0.8-2.6-5.8-3-10.9L192.8,269.2z"/>
					<path class="st44" d="M199.9,196.3c0.1-2.6-2-4.8-4.6-4.8l0,0c-0.3,0-0.5,0-0.8,0.1c2.8,0.5,3.7,2.3,3.9,9.1
						c0.2,7.2-0.5,65.4-0.5,65.4L199.9,196.3z"/>
				</g>
			</g>
			<g>
				<g>
					<path class="st20" d="M233.9,164.2c-1.1-0.6-2.7-0.5-4.4,0.5c-3.6,2.1-6.4,7.2-6.3,11.4l1.5,48.5c0,1.1,0.4,1.8,1.1,2.1
						c0.6,0.3,2.6,1.5,3.1,1.8c0.6,0.3,1.4,0.3,2.4-0.2l2.7-1.6c1.8-1.1,3.4-3.6,3.4-5.7l1.5-50.6c0.1-2.2-0.6-3.7-1.8-4.4
						C236.5,165.7,234.4,164.5,233.9,164.2z"/>
					<path d="M231.2,228.2c-1.8,1.1-3.4,0.2-3.4-1.9l-1.5-48.5c-0.1-4.2,2.7-9.3,6.3-11.4c3.6-2.1,6.4-0.3,6.3,3.9l-1.5,50.6
						c-0.1,2.1-1.6,4.7-3.4,5.7L231.2,228.2z"/>
					<path d="M233.9,164.2c0.5,0.3,2.6,1.5,3.1,1.8c-1.1-0.6-2.7-0.5-4.4,0.5c-2.5,1.4-4.6,4.4-5.6,7.5l-3.1-1.8
						c1-3.1,3.1-6.1,5.6-7.5C231.2,163.6,232.7,163.5,233.9,164.2z"/>
				</g>
				<g>
					<path class="st16" d="M238.5,177l-2.8-1.6l-3.1,1.8v79.1c3.3,1.9,6.3,2,8.8,0.6c0.5-0.3,2.6-1.5,3.1-1.8
						c3.1-1.8,5.2-5.9,5.7-11.8l2.8-32.6C254.1,197.9,247.3,182.1,238.5,177z"/>
					<g class="st22">
						<path class="st23" d="M238.5,177l-2.8-1.6l-3.1,1.8v79.1c3.3,1.9,6.3,2,8.8,0.6c0.5-0.3,2.6-1.5,3.1-1.8
							c3.1-1.8,5.2-5.9,5.7-11.8l2.8-32.6C254.1,197.9,247.3,182.1,238.5,177z"/>
					</g>
					<path class="st16" d="M232.6,256.3L232.6,256.3v-79.1l2.8,1.6c8.8,5.1,15.6,20.9,14.5,33.6L247,245
						C246.1,255.7,239.9,260.5,232.6,256.3z"/>
					<path class="st41" d="M232.6,256.3L232.6,256.3v-79.1l2.8,1.6c8.8,5.1,15.6,20.9,14.5,33.6L247,245
						C246.1,255.7,239.9,260.5,232.6,256.3z"/>
					<path class="st41" d="M247.1,244.1c-0.4,5.2-5.6,7.2-9.4,3.2c-3.8-4-5.2-9.2-5.2-25.2v34.2c7.3,4.2,13.5-0.6,14.5-11.3
						L247.1,244.1z"/>
				</g>
			</g>
			<g>
				<g>
					<path class="st20" d="M156.7,164.2c1.1-0.6,2.7-0.5,4.4,0.5c3.6,2.1,6.4,7.2,6.3,11.4l-1.5,48.5c0,1.1-0.4,1.8-1.1,2.1
						c-0.6,0.3-2.6,1.5-3.1,1.8c-0.6,0.3-1.4,0.3-2.4-0.2l-2.7-1.6c-1.8-1.1-3.4-3.6-3.4-5.7l-1.5-50.6c-0.1-2.2,0.6-3.7,1.8-4.4
						C154.1,165.7,156.2,164.5,156.7,164.2z"/>
					<path d="M159.4,228.2c1.8,1.1,3.4,0.2,3.4-1.9l1.5-48.5c0.1-4.2-2.7-9.3-6.3-11.4c-3.6-2.1-6.4-0.3-6.3,3.9l1.5,50.6
						c0.1,2.1,1.6,4.7,3.4,5.7L159.4,228.2z"/>
					<path d="M156.7,164.2c-0.5,0.3-2.6,1.5-3.1,1.8c1.1-0.6,2.7-0.5,4.4,0.5c2.5,1.4,4.6,4.4,5.6,7.5l3.1-1.8
						c-1-3.1-3.1-6.1-5.6-7.5C159.4,163.6,157.8,163.5,156.7,164.2z"/>
				</g>
				<g>
					<path class="st16" d="M152.1,177l2.8-1.6l3.1,1.8v79.1c-3.3,1.9-6.3,2-8.8,0.6c-0.5-0.3-2.6-1.5-3.1-1.8
						c-3.1-1.8-5.2-5.9-5.7-11.8l-2.8-32.6C136.5,197.9,143.3,182.1,152.1,177z"/>
					<g class="st22">
						<path class="st23" d="M152.1,177l2.8-1.6l3.1,1.8v79.1c-3.3,1.9-6.3,2-8.8,0.6c-0.5-0.3-2.6-1.5-3.1-1.8
							c-3.1-1.8-5.2-5.9-5.7-11.8l-2.8-32.6C136.5,197.9,143.3,182.1,152.1,177z"/>
					</g>
					<path class="st16" d="M158,256.3L158,256.3v-79.1l-2.8,1.6c-8.8,5.1-15.6,20.9-14.5,33.6l2.8,32.6
						C144.5,255.7,150.7,260.5,158,256.3z"/>
					<path class="st41" d="M158,256.3L158,256.3v-79.1l-2.8,1.6c-8.8,5.1-15.6,20.9-14.5,33.6l2.8,32.6
						C144.5,255.7,150.7,260.5,158,256.3z"/>
					<path class="st41" d="M143.5,244.1c0.4,5.2,5.6,7.2,9.4,3.2c3.8-4,5.2-9.2,5.2-25.2v34.2c-7.3,4.2-13.5-0.6-14.5-11.3
						L143.5,244.1z"/>
				</g>
			</g>
		</g>
	</g>
</g>
</svg>
