<?xml version="1.0" encoding="utf-8"?>
<!-- Generator: Adobe Illustrator 23.0.5, SVG Export Plug-In . SVG Version: 6.00 Build 0)  -->
<svg version="1.0" xmlns="http://www.w3.org/2000/svg" xmlns:xlink="http://www.w3.org/1999/xlink" x="0px" y="0px"
	 viewBox="0 0 500 500" style="enable-background:new 0 0 500 500;" xml:space="preserve">
<style type="text/css">
	.st0{fill:url(#Floor_2_);}
	.st1{fill:#46877B;}
	.st2{fill:url(#XMLID_7_);}
	.st3{opacity:0.15;fill:url(#XMLID_8_);}
	.st4{fill:url(#XMLID_9_);}
	.st5{fill:url(#XMLID_10_);}
	.st6{opacity:0.2;fill:url(#XMLID_11_);}
	.st7{fill:url(#XMLID_12_);}
	.st8{fill:#002141;}
	.st9{opacity:0.1;fill:#002141;}
	.st10{opacity:0.3;fill:#002141;}
	.st11{fill:#097ECE;}
	.st12{opacity:0.2;fill:#002141;}
	.st13{fill:#C20AEF;}
	.st14{fill:#700789;}
	.st15{opacity:0.3;}
	.st16{opacity:0.1;fill:#700789;}
	.st17{fill:#5627C9;}
	.st18{opacity:0.3;fill:#5627C9;}
	.st19{fill:#9073EA;}
	.st20{opacity:0.1;fill:#5627C9;}
	.st21{opacity:0.2;fill:#5627C9;}
	.st22{fill:#9966CC;}
	.st23{opacity:0.2;}
	.st24{fill:#FFFFFF;}
	.st25{opacity:0.1;}
	.st26{fill:#263238;}
	.st27{opacity:0.5;fill:#FFFFFF;}
	.st28{opacity:0.5;fill:#6FC7FF;}
	.st29{opacity:0.4;fill:#00E2FB;}
	.st30{opacity:0.3;fill:#AFAFD8;}
	.st31{fill:#070707;}
	.st32{opacity:0.3;fill:#00E2FB;}
	.st33{opacity:0.3;fill:#FFFFFF;}
	.st34{opacity:0.15;}
	.st35{fill:#3D36CE;}
	.st36{fill:#67E8CF;}
	.st37{opacity:0.8;fill:#D19EDD;}
	.st38{opacity:0.2;fill:#9966CC;}
	.st39{fill:#AA44C8;}
	.st40{opacity:0.6;}
	.st41{fill:#D19EDD;}
	.st42{opacity:0.8;}
</style>
<g id="Floor">
	<radialGradient id="Floor_2_" cx="250" cy="333.4893" r="192.6849" gradientUnits="userSpaceOnUse">
		<stop  offset="0" style="stop-color:#07D6B1"/>
		<stop  offset="0.8017" style="stop-color:#07E4B0"/>
		<stop  offset="1" style="stop-color:#09A8A7"/>
	</radialGradient>
	<ellipse id="Floor_1_" class="st0" cx="250" cy="333.49" rx="236" ry="136.23"/>
</g>
<g id="Shadow">
	<path id="Shadow_5_" class="st1" d="M41.12,306.5l257.44,148.63c2.76,1.59,7.24,1.59,10,0l140.14-80.91c2.76-1.59,2.76-4.18,0-5.78
		L191.26,219.81c-2.76-1.59-7.24-1.59-10,0L41.12,300.72C38.35,302.32,38.35,304.9,41.12,306.5z"/>
</g>
<g id="Plants">
	<g id="Plants_11_">
		<g id="XMLID_960_">
			<linearGradient id="XMLID_7_" gradientUnits="userSpaceOnUse" x1="38.3586" y1="245.6105" x2="75.3883" y2="245.6105">
				<stop  offset="0" style="stop-color:#29E0A1"/>
				<stop  offset="0.3438" style="stop-color:#394FA5;stop-opacity:0.9456"/>
				<stop  offset="0.5056" style="stop-color:#4010A7;stop-opacity:0.92"/>
				<stop  offset="0.6816" style="stop-color:#4010A7"/>
				<stop  offset="0.7942" style="stop-color:#2F23A7"/>
				<stop  offset="1" style="stop-color:#094FA7"/>
			</linearGradient>
			<path id="XMLID_973_" class="st2" d="M60.46,290.43l10.36-4.66c0,0,4.52-20.73,4.56-37.13c0.06-23.05-11.9-52-30.14-47.33
				c-18.24,4.67,5.06,30.51,8.81,50.44C57.82,271.68,60.46,290.43,60.46,290.43z"/>
			<linearGradient id="XMLID_8_" gradientUnits="userSpaceOnUse" x1="38.3586" y1="245.6105" x2="75.3883" y2="245.6105">
				<stop  offset="0" style="stop-color:#29E0A1"/>
				<stop  offset="0.3438" style="stop-color:#394FA5;stop-opacity:0.9456"/>
				<stop  offset="0.5056" style="stop-color:#4010A7;stop-opacity:0.92"/>
				<stop  offset="0.6816" style="stop-color:#4010A7"/>
				<stop  offset="0.7942" style="stop-color:#2F23A7"/>
				<stop  offset="1" style="stop-color:#094FA7"/>
			</linearGradient>
			<path id="XMLID_972_" class="st3" d="M60.46,290.43l10.36-4.66c0,0,4.52-20.73,4.56-37.13c0.06-23.05-11.9-52-30.14-47.33
				c-18.24,4.67,5.06,30.51,8.81,50.44C57.82,271.68,60.46,290.43,60.46,290.43z"/>
			<linearGradient id="XMLID_9_" gradientUnits="userSpaceOnUse" x1="49.1307" y1="248.3033" x2="67.797" y2="248.3033">
				<stop  offset="0" style="stop-color:#29E0A1"/>
				<stop  offset="0.3438" style="stop-color:#394FA5;stop-opacity:0.9456"/>
				<stop  offset="0.5056" style="stop-color:#4010A7;stop-opacity:0.92"/>
				<stop  offset="0.6816" style="stop-color:#4010A7"/>
				<stop  offset="0.7942" style="stop-color:#2F23A7"/>
				<stop  offset="1" style="stop-color:#094FA7"/>
			</linearGradient>
			<path id="XMLID_961_" class="st4" d="M65.85,288.57c-0.01,0-0.01,0-0.02,0c-0.33-0.04-0.55-0.34-0.51-0.67
				c6.85-50.54-15.82-78.6-16.05-78.88c-0.21-0.25-0.18-0.63,0.08-0.84c0.26-0.21,0.63-0.17,0.84,0.08
				c0.23,0.28,23.23,28.75,16.32,79.8C66.46,288.37,66.17,288.6,65.85,288.57z"/>
		</g>
		<g id="XMLID_955_">
			<linearGradient id="XMLID_10_" gradientUnits="userSpaceOnUse" x1="25.1778" y1="261.2863" x2="61.9799" y2="261.2863">
				<stop  offset="0" style="stop-color:#29E0A1"/>
				<stop  offset="0.3438" style="stop-color:#394FA5;stop-opacity:0.9456"/>
				<stop  offset="0.5056" style="stop-color:#4010A7;stop-opacity:0.92"/>
				<stop  offset="0.6816" style="stop-color:#4010A7"/>
				<stop  offset="0.7942" style="stop-color:#2F23A7"/>
				<stop  offset="1" style="stop-color:#094FA7"/>
			</linearGradient>
			<path id="XMLID_959_" class="st5" d="M53.95,293.33l7.38-3.32c0,0,2.64-14.27-2.65-32.47c-4.6-15.84-18.57-30.01-26.5-28.13
				c-7.93,1.88-8.29,7.33-5.13,13.41C30.2,248.9,51.56,264.79,53.95,293.33z"/>
			<linearGradient id="XMLID_11_" gradientUnits="userSpaceOnUse" x1="25.1778" y1="261.2863" x2="61.9799" y2="261.2863">
				<stop  offset="0" style="stop-color:#29E0A1"/>
				<stop  offset="0.3438" style="stop-color:#394FA5;stop-opacity:0.9456"/>
				<stop  offset="0.5056" style="stop-color:#4010A7;stop-opacity:0.92"/>
				<stop  offset="0.6816" style="stop-color:#4010A7"/>
				<stop  offset="0.7942" style="stop-color:#2F23A7"/>
				<stop  offset="1" style="stop-color:#094FA7"/>
			</linearGradient>
			<path id="XMLID_957_" class="st6" d="M53.95,293.33l7.38-3.32c0,0,2.64-14.27-2.65-32.47c-4.6-15.84-18.57-30.01-26.5-28.13
				c-7.93,1.88-8.29,7.33-5.13,13.41C30.2,248.9,51.56,264.79,53.95,293.33z"/>
			<linearGradient id="XMLID_12_" gradientUnits="userSpaceOnUse" x1="32.217" y1="262.8164" x2="58.7185" y2="262.8164">
				<stop  offset="0" style="stop-color:#29E0A1"/>
				<stop  offset="0.3438" style="stop-color:#394FA5;stop-opacity:0.9456"/>
				<stop  offset="0.5056" style="stop-color:#4010A7;stop-opacity:0.92"/>
				<stop  offset="0.6816" style="stop-color:#4010A7"/>
				<stop  offset="0.7942" style="stop-color:#2F23A7"/>
				<stop  offset="1" style="stop-color:#094FA7"/>
			</linearGradient>
			<path id="XMLID_956_" class="st7" d="M57.78,292.17L57.78,292.17c-0.33-0.04-0.57-0.33-0.53-0.66
				c3.38-32.05-24.54-56.77-24.82-57.01c-0.25-0.22-0.27-0.59-0.06-0.84c0.21-0.25,0.59-0.28,0.84-0.06
				c0.29,0.25,28.67,25.37,25.22,58.04C58.39,291.97,58.1,292.2,57.78,292.17z"/>
		</g>
	</g>
</g>
<g id="Social_Media_Icons">
	<g id="Like_Icon">
		<g id="XMLID_388_">
			<path class="st8" d="M399.15,114.75c0-0.67-0.09-1.19-0.23-1.61l5.85-6.7l-7.5-4.21c-0.71-0.49-1.72-0.55-3.09,0.25l-13.03,7.55
				l-1.75,1.01c0.32-1.62,0.53-3.14,0.63-4.57c0.04-0.64,0.06-1.26,0.05-1.87l0.24,0.13l4.39-5.13l-7.5-4.22l-0.01,0.01
				c-2.52-1.54-6.78,1.5-6.78,2.73c0,1.48,0.65,9.23,0.02,11.45c-0.65,2.21-7.34,17.52-7.34,17.52v1.03l0.02,30.9
				c0,0,21.25-12.29,24.45-14.14c3.22-1.86,5.44-5.82,5.44-8.5c0-2.21-0.65-3.5-0.65-3.5c2.07-1.2,4.15-5.54,4.15-7.38
				c0-2.78-0.95-3.5-0.95-3.5C397.78,120.13,399.15,116.96,399.15,114.75z"/>
			<path class="st9" d="M399.15,114.75c0-0.67-0.09-1.19-0.23-1.61l5.85-6.7l-7.5-4.21c-0.71-0.49-1.72-0.55-3.09,0.25l-13.03,7.55
				l-1.75,1.01c0.32-1.62,0.53-3.14,0.63-4.57c0.04-0.64,0.06-1.26,0.05-1.87l0.24,0.13l4.39-5.13l-7.5-4.22l-0.01,0.01
				c-2.52-1.54-6.78,1.5-6.78,2.73c0,1.48,0.65,9.23,0.02,11.45c-0.65,2.21-7.34,17.52-7.34,17.52v1.03l0.02,30.9
				c0,0,21.25-12.29,24.45-14.14c3.22-1.86,5.44-5.82,5.44-8.5c0-2.21-0.65-3.5-0.65-3.5c2.07-1.2,4.15-5.54,4.15-7.38
				c0-2.78-0.95-3.5-0.95-3.5C397.78,120.13,399.15,116.96,399.15,114.75z"/>
			<polygon id="XMLID_408_" class="st8" points="370.86,163.37 363.12,158.9 363.1,126.98 370.83,131.45 			"/>
			<polygon id="XMLID_449_" class="st8" points="370.86,163.37 363.12,158.9 363.1,126.98 370.83,131.45 			"/>
			<polygon id="XMLID_331_" class="st10" points="370.86,163.37 363.12,158.9 363.1,126.98 370.83,131.45 			"/>
			<g id="XMLID_395_">
				<path id="XMLID_402_" class="st11" d="M404.53,130.45c0,4.13-2.35,5.57-4.42,6.77c0,0,0.63,1.29,0.63,3.52
					c0.02,2.66-2.23,6.64-5.42,8.49c-3.2,1.85-24.45,14.14-24.45,14.14l-0.04-30.55v-1.35c0,0,6.72-15.32,7.34-17.54
					c0.65-2.21,0-9.95,0-11.43c0-1.48,6.07-5.54,7.99-1.29c1.92,4.22,2.09,8.56,0.97,14.19l14.78-8.54c3.12-1.81,4.39,0.78,4.39,2.8
					c0.02,2.87-1.34,5.69-3.12,6.78c0,0,3.4,0.17,3.4,4.13c0,2.23-1.03,4.61-3.28,6.45C403.31,126.99,404.53,127.69,404.53,130.45z"
					/>
			</g>
			<g id="XMLID_390_">
				<polygon id="XMLID_393_" points="356.66,175.87 367.34,169.71 367.31,132.56 356.66,138.72 				"/>
			</g>
		</g>
		<polygon id="XMLID_386_" points="356.66,175.87 348.92,171.41 348.92,134.26 356.66,138.72 		"/>
		<polygon id="XMLID_381_" points="359.58,128.1 367.31,132.56 356.66,138.72 348.92,134.26 		"/>
		<path id="XMLID_375_" class="st8" d="M378.17,113.91c-0.63,2.23-7.34,17.54-7.34,17.54l-7.72-4.36c0,0,6.7-15.32,7.34-17.52
			c0.63-2.23-0.02-9.97-0.02-11.45l7.74,4.36C378.17,103.96,378.82,111.7,378.17,113.91z"/>
		<path id="XMLID_330_" class="st12" d="M378.17,113.91c-0.63,2.23-7.34,17.54-7.34,17.54l-7.72-4.36c0,0,6.7-15.32,7.34-17.52
			c0.63-2.23-0.02-9.97-0.02-11.45l7.74,4.36C378.17,103.96,378.82,111.7,378.17,113.91z"/>
	</g>
	<g id="Heart_icon_1_">
		<path id="XMLID_4346_" class="st13" d="M468.91,146.35l0.01-0.02l-7.37-4.58l0,0c-2.72-1.74-6.86-1.55-11.56,0.96
			c-6.5,3.47-12.25,12.23-14.73,19.66l-5.23-3.23l0,0c-2.67-1.93-6.42-2.33-10.65-0.07c-0.53,0.28-1.05,0.59-1.56,0.91
			c-0.27,0.17-0.54,0.36-0.81,0.55c-0.24,0.16-0.48,0.31-0.71,0.48c-0.36,0.26-0.71,0.55-1.07,0.83c-0.13,0.11-0.27,0.2-0.4,0.31
			c-0.41,0.34-0.82,0.7-1.22,1.07c-0.06,0.06-0.13,0.11-0.19,0.17c-0.45,0.41-0.88,0.84-1.31,1.28c-0.01,0.01-0.02,0.02-0.04,0.04
			c-1.32,1.37-2.52,2.85-3.6,4.4l0,0l0,0c-2.98,4.29-4.9,9.1-5.04,13.36c-0.26,7.93,4.47,13.15,10.38,16.58l0,0l5.81,3.61l0,0
			c3.42,2.3,7.41,3.92,11.13,5.03l9.67,2.9l10.21-13.54c9.73-12.9,21.41-30.78,21.8-42.74C472.6,150.45,471.24,147.74,468.91,146.35
			z"/>
		<g id="XMLID_471_">
			<g id="XMLID_4344_">
				<path id="XMLID_4345_" class="st14" d="M419.57,202.58l-5.72-3.55c-5.9-3.43-10.64-8.65-10.38-16.58
					c0.14-4.25,2.06-9.07,5.04-13.36l7.55,4.69c-2.98,4.29-4.9,9.1-5.04,13.36C410.78,194.23,414.54,199.16,419.57,202.58z"/>
			</g>
			<g id="XMLID_4342_" class="st15">
				<path id="XMLID_4343_" class="st14" d="M419.57,202.58l-5.72-3.55c-5.9-3.43-10.64-8.65-10.38-16.58
					c0.14-4.25,2.06-9.07,5.04-13.36l7.55,4.69c-2.98,4.29-4.9,9.1-5.04,13.36C410.78,194.23,414.54,199.16,419.57,202.58z"/>
			</g>
			<path id="XMLID_4341_" class="st14" d="M468.88,146.3c-2.72-1.58-6.77-1.34-11.34,1.1c-7.84,4.18-14.59,16.07-15.82,24.02
				c-0.74-6.9-6.93-11.87-14.78-7.67c-4.18,2.24-8.02,5.88-10.88,10.02l-7.55-4.69c0.13-0.18,0.25-0.36,0.39-0.54
				c0.1-0.15,0.2-0.3,0.33-0.44c0.27-0.37,0.56-0.74,0.84-1.1c0.81-1,1.68-1.96,2.6-2.87c0.22-0.23,0.46-0.45,0.69-0.67
				c0.17-0.16,0.34-0.31,0.5-0.46c1.73-1.56,3.6-2.9,5.54-3.95c2.11-1.12,4.1-1.59,5.9-1.53c1.8,0.06,3.4,0.64,4.75,1.61l5.23,3.23
				c2.48-7.43,8.23-16.18,14.73-19.65c4.7-2.51,8.83-2.7,11.55-0.96l0.01,0L468.88,146.3z"/>
			<path id="XMLID_4340_" class="st16" d="M468.88,146.3c-2.72-1.58-6.77-1.34-11.34,1.1c-7.84,4.18-14.59,16.07-15.82,24.02
				c-0.74-6.9-6.93-11.87-14.78-7.67c-4.18,2.24-8.02,5.88-10.88,10.02l-7.55-4.69c0.13-0.18,0.25-0.36,0.39-0.54
				c0.1-0.15,0.2-0.3,0.33-0.44c0.27-0.37,0.56-0.74,0.84-1.1c0.81-1,1.68-1.96,2.6-2.87c0.22-0.23,0.46-0.45,0.69-0.67
				c0.17-0.16,0.34-0.31,0.5-0.46c1.73-1.56,3.6-2.9,5.54-3.95c2.11-1.12,4.1-1.59,5.9-1.53c1.8,0.06,3.4,0.64,4.75,1.61l5.23,3.23
				c2.48-7.43,8.23-16.18,14.73-19.65c4.7-2.51,8.83-2.7,11.55-0.96l0.01,0L468.88,146.3z"/>
		</g>
	</g>
	<g id="Twitter_Icon_1_">
		<path id="XMLID_432_" class="st17" d="M349.45,69.31l-7.4-4.6l-2.84,5.72l4.01,4.37c0,0,0.24,0.86,2.19-0.65
			C347.37,72.64,349.45,69.31,349.45,69.31z"/>
		<path id="XMLID_409_" class="st18" d="M349.45,69.31l-7.4-4.6l-2.84,5.72l4.01,4.37c0,0,0.24,0.86,2.19-0.65
			C347.37,72.64,349.45,69.31,349.45,69.31z"/>
		<path id="XMLID_353_" class="st17" d="M343.86,79.42c0.02,9.04-2.59,19.97-7.39,30.12c-5.48,11.57-13.82,22.15-24.4,27.81
			c-6.05,3.24-11.6,3.92-16.21,2.48l-7.39-4.6c4.8-1.83,9.67-5.79,13.87-11.24c0,0-3.27-2.03-4.54-2.83
			c-1.4-0.88-2.44-2.45-2.96-4.59c1.04-0.3,2.08-0.81,3.09-1.48c0,0-1.78-1.1-3.03-1.88c-2.28-1.41-3.56-4.61-3.34-8.79
			c1.4,0.28,3.04,0.03,4.79-0.84c-0.48-0.16-0.92-0.39-1.32-0.68c-3.5-2.49-4.09-9.26-1.39-16.26l7.39,4.59
			c4.08,1.1,9,0.7,14.2-1.74c-1.27-7.93,4.08-19.08,10.99-22.77c3.08-1.65,5.81-1.44,7.68,0.25c2.45-1.94,4.79-4.32,6.9-7.04
			l7.4,4.6c-0.91,3.7-2.69,7.35-4.96,10.26c2.18-1.49,4.26-3.34,6.22-5.49C347.91,72.89,346.03,76.32,343.86,79.42z"/>
		<path id="XMLID_352_" class="st19" d="M343.86,79.42c0.02,9.04-2.59,19.97-7.39,30.12c-5.48,11.57-13.82,22.15-24.4,27.81
			c-6.05,3.24-11.6,3.92-16.21,2.48c5.66-2.16,11.4-7.24,16.04-14.26c-4.68,2.38-8.5,0.45-9.68-4.39c1.66-0.48,3.32-1.48,4.84-2.82
			c-5.1,1.39-8.46-2.78-8.13-9.33c1.41,0.28,3.04,0.03,4.79-0.84c-0.38-0.13-0.73-0.3-1.06-0.51c-3.71-2.34-4.4-9.27-1.63-16.42
			c0.79,3.72,7.71,6.61,13.69,6.52c5.78-0.09,7.77-3.45,7.89-3.66c0.01-0.01,0.01-0.01,0.01-0.01c-1.27-7.93,4.08-19.08,11-22.77
			c3.07-1.65,5.8-1.44,7.67,0.24c2.46-1.93,4.79-4.32,6.91-7.03c-0.91,3.7-2.69,7.35-4.96,10.26c2.18-1.49,4.26-3.34,6.22-5.49
			C347.91,72.89,346.03,76.32,343.86,79.42z"/>
		<path id="XMLID_350_" class="st20" d="M348.19,64.54c0,0.01,0,0.01-0.01,0.02c-2.12,2.7-4.45,5.08-6.9,7.01
			c-0.49-0.44-1.04-0.78-1.65-1l-5.74-3.59c2.45-1.94,4.79-4.32,6.9-7.04L348.19,64.54z"/>
		<path id="XMLID_343_" class="st18" d="M307.06,118.35c-1.52,1.34-3.18,2.35-4.84,2.82l-7.39-4.6c1.04-0.3,2.08-0.81,3.09-1.48
			l4.19,2.6c0.04,0.03,0.08,0.06,0.13,0.09l0.19,0.12C303.7,118.64,305.27,118.84,307.06,118.35z"/>
		<path id="XMLID_342_" class="st20" d="M322.61,94.1C322.61,94.1,322.61,94.1,322.61,94.1c-0.01,0.02-0.02,0.03-0.03,0.04
			c-0.23,0.39-2.26,3.55-7.87,3.63c-5.98,0.09-12.9-2.79-13.69-6.52l-0.01-0.01c1.22,0.33,2.53,0.53,3.88,0.57
			c3.17,0.1,6.67-0.61,10.32-2.32L322.61,94.1z"/>
		<path id="XMLID_341_" class="st21" d="M301.03,91.25L301.03,91.25l-7.4-4.6c-2.7,7-2.11,13.77,1.39,16.26l0.5,0.31l0.68,0.42
			l6.46,4.03C298.95,105.34,298.26,98.41,301.03,91.25z"/>
		<path id="XMLID_340_" class="st18" d="M303.73,108.19c-1.76,0.86-3.38,1.12-4.79,0.84l-7.39-4.6c1.37,0.27,2.95,0.04,4.66-0.78
			l6.46,4.03C302.99,107.88,303.35,108.05,303.73,108.19z"/>
		<path id="XMLID_339_" class="st18" d="M311.9,125.56c-4.64,7.02-10.39,12.11-16.04,14.26l-7.39-4.6
			c4.8-1.83,9.67-5.79,13.87-11.23c0,0,2.24,1.4,2.87,1.79C306.97,126.88,309.3,126.88,311.9,125.56z"/>
		<path id="XMLID_337_" class="st21" d="M339.69,70.59c-1.69-0.69-3.79-0.49-6.08,0.74c-6.91,3.69-12.27,14.84-11,22.77l-7.39-4.6
			c-1.27-7.93,4.08-19.08,10.99-22.77c3.08-1.65,5.81-1.44,7.68,0.25L339.69,70.59z"/>
		<path id="XMLID_324_" class="st21" d="M302.1,117.69l-4.19-2.6c0,0-1.78-1.1-3.03-1.88c-2.28-1.41-3.56-4.61-3.34-8.79l7.39,4.6
			C298.73,113.08,299.94,116.22,302.1,117.69z"/>
		<path id="XMLID_312_" class="st21" d="M304.99,125.64c-0.82-0.5-2.66-1.65-2.66-1.65s-3.27-2.03-4.54-2.83
			c-1.4-0.88-2.45-2.45-2.96-4.59l7.39,4.6C302.72,123.22,303.68,124.74,304.99,125.64z"/>
	</g>
</g>
<g id="Target_1_">
	<g id="Target">
		<g id="XMLID_933_">
			<path id="XMLID_954_" class="st22" d="M442.43,255.5l1.09-1.79l-5.59-3.67c-4.79-3.39-11.72-3.25-19.44,1.23
				c-14.38,8.36-26,28.62-25.95,45.26c0.02,7.88,2.66,13.53,6.96,16.41l0,0l5.52,3.63l0.92-1.5c3.77,0.25,8.11-0.87,12.73-3.55
				c14.38-8.36,26-28.63,25.95-45.26C444.62,261.99,443.83,258.38,442.43,255.5z"/>
			<path id="XMLID_279_" class="st23" d="M442.43,255.5l1.09-1.79l-5.59-3.67c-4.79-3.39-11.72-3.25-19.44,1.23
				c-14.38,8.36-26,28.62-25.95,45.26c0.02,7.88,2.66,13.53,6.96,16.41l0,0l5.52,3.63l0.92-1.5c3.77,0.25,8.11-0.87,12.73-3.55
				c14.38-8.36,26-28.63,25.95-45.26C444.62,261.99,443.83,258.38,442.43,255.5z"/>
			<path id="XMLID_953_" class="st22" d="M450.32,270.02c0.05,16.64-11.57,36.9-25.95,45.26c-14.38,8.36-26.08,1.65-26.13-14.99
				c-0.05-16.64,11.57-36.9,25.95-45.26C438.57,246.67,450.27,253.38,450.32,270.02z"/>
			<path id="XMLID_952_" class="st24" d="M445.98,272.54c0.04,13.86-9.64,30.75-21.63,37.72c-11.99,6.97-21.74,1.38-21.78-12.49
				c-0.04-13.86,9.64-30.75,21.63-37.72C436.19,253.08,445.94,258.67,445.98,272.54z"/>
			<path id="XMLID_945_" class="st22" d="M441.62,275.05c0.02,11.08-7.72,24.59-17.3,30.18c-9.58,5.58-17.37,1.11-17.4-9.98
				c-0.03-11.09,7.71-24.6,17.3-30.18C433.81,259.5,441.6,263.97,441.62,275.05z"/>
			<path id="XMLID_944_" class="st24" d="M437.3,277.58c0.02,8.32-5.78,18.45-12.97,22.63c-7.19,4.18-13.04,0.83-13.06-7.49
				c-0.02-8.32,5.78-18.45,12.97-22.63C431.43,265.91,437.27,269.27,437.3,277.58z"/>
			<path id="XMLID_937_" class="st22" d="M424.25,275.11c-4.8,2.79-8.67,9.54-8.65,15.09c0.02,5.55,3.92,7.78,8.71,4.99
				c4.79-2.79,8.67-9.54,8.65-15.09C432.95,274.56,429.05,272.32,424.25,275.11z"/>
			<path id="XMLID_936_" class="st24" d="M424.26,280.13c-2.4,1.39-4.33,4.77-4.33,7.54c0.01,2.77,1.96,3.89,4.35,2.5
				c2.4-1.39,4.33-4.77,4.33-7.54C428.61,279.86,426.66,278.74,424.26,280.13z"/>
		</g>
		<g id="XMLID_463_">
			<g id="XMLID_986_">
				<polygon id="XMLID_4198_" class="st22" points="467.73,307.55 461.93,305.14 458.33,304.97 458.33,305.62 463.83,308.8 
					467.73,308.2 				"/>
				<polygon id="XMLID_989_" class="st22" points="458.33,304.97 461.93,305.14 467.73,307.55 463.83,308.15 				"/>
				<polygon id="XMLID_988_" class="st23" points="463.83,308.8 463.83,308.15 467.73,307.55 467.73,308.2 				"/>
				<polygon id="XMLID_987_" class="st25" points="463.83,308.15 458.33,304.97 458.33,305.62 463.83,308.8 				"/>
			</g>
			<g id="XMLID_978_">
				<polygon id="XMLID_985_" points="433.62,287.59 424.71,285.16 424.71,286.39 428.63,291.71 430.78,289.65 430.78,289.65 
					433.62,288.83 				"/>
				<polygon id="XMLID_981_" points="424.71,285.16 428.63,290.47 430.78,288.42 430.78,288.42 433.62,287.59 				"/>
				<polygon id="XMLID_980_" class="st26" points="428.63,290.47 428.63,291.71 430.78,289.65 430.78,288.42 				"/>
				<polygon id="XMLID_979_" class="st26" points="430.78,288.42 433.62,287.59 433.62,288.83 430.78,289.65 				"/>
			</g>
			<g id="XMLID_522_">
				<path id="XMLID_976_" d="M431.16,288.41c-0.11-0.07-0.26-0.07-0.43,0.03c-0.33,0.19-0.59,0.65-0.59,1.04
					c0,0.19,0.07,0.33,0.18,0.39l0,0l36.28,20.97l0.82-1.47L431.16,288.41z"/>
				<path id="XMLID_974_" d="M430.27,288.97c-0.08,0.17-0.13,0.34-0.13,0.51c0,0.19,0.07,0.33,0.18,0.39l0,0l36.28,20.97l0.37-0.66
					L430.27,288.97z"/>
				<path id="XMLID_523_" class="st26" d="M467.01,309.41c-0.33,0.19-0.59,0.65-0.59,1.04c0,0.38,0.27,0.54,0.59,0.35
					s0.59-0.65,0.59-1.04C467.6,309.38,467.34,309.22,467.01,309.41z"/>
			</g>
			<g id="XMLID_464_">
				<polygon id="XMLID_492_" class="st22" points="463.44,309.03 463.44,309.02 463.44,308.37 457.95,305.19 457.95,305.85 
					458.24,307.92 462.4,311.28 463.44,309.03 				"/>
				<polygon id="XMLID_470_" class="st23" points="457.95,305.19 458.24,307.27 458.24,307.92 457.95,305.85 				"/>
				<polygon id="XMLID_469_" class="st23" points="463.44,308.37 462.4,310.62 462.4,311.27 463.44,309.02 				"/>
				<polygon id="XMLID_465_" class="st25" points="458.24,307.27 462.4,310.62 462.4,311.27 458.24,307.92 				"/>
			</g>
		</g>
		<g id="XMLID_526_">
			<g id="XMLID_4470_">
				<polygon id="XMLID_4476_" class="st22" points="467.49,261.45 461.69,263.86 458.1,264.03 458.1,263.38 463.59,260.2 
					467.49,260.8 				"/>
				<polygon id="XMLID_4475_" class="st22" points="458.1,264.03 461.69,263.86 467.49,261.45 463.59,260.85 				"/>
				<polygon id="XMLID_4472_" class="st23" points="463.59,260.2 463.59,260.85 467.49,261.45 467.49,260.8 				"/>
				<polygon id="XMLID_4471_" class="st25" points="463.59,260.85 458.1,264.03 458.1,263.38 463.59,260.2 				"/>
			</g>
			<g id="XMLID_4437_">
				<polygon id="XMLID_4469_" points="433.38,281.41 424.48,283.85 424.48,282.61 428.39,277.3 430.54,279.35 430.54,279.35 
					433.38,280.17 				"/>
				<polygon id="XMLID_4468_" points="424.48,283.85 428.39,278.53 430.54,280.59 430.54,280.59 433.38,281.41 				"/>
				<polygon id="XMLID_4467_" class="st26" points="428.39,278.53 428.39,277.3 430.54,279.35 430.54,280.59 				"/>
				<polygon id="XMLID_4458_" class="st26" points="430.54,280.59 433.38,281.41 433.38,280.17 430.54,279.35 				"/>
			</g>
			<g id="XMLID_932_">
				<path id="XMLID_4431_" d="M430.92,280.59c-0.11,0.07-0.26,0.07-0.43-0.03c-0.33-0.19-0.59-0.65-0.59-1.04
					c0-0.19,0.07-0.33,0.18-0.39l0,0l36.28-20.97l0.82,1.47L430.92,280.59z"/>
				<path id="XMLID_4425_" d="M430.04,280.03c-0.08-0.17-0.13-0.34-0.13-0.51c0-0.19,0.07-0.33,0.18-0.39l0,0l36.28-20.97l0.37,0.66
					L430.04,280.03z"/>
				<path id="XMLID_4232_" class="st26" d="M466.77,259.59c-0.33-0.19-0.59-0.65-0.59-1.04c0-0.38,0.27-0.54,0.59-0.35
					c0.33,0.19,0.59,0.65,0.59,1.04C467.36,259.62,467.1,259.78,466.77,259.59z"/>
			</g>
			<g id="XMLID_543_">
				<polygon id="XMLID_931_" class="st22" points="463.2,259.98 463.2,259.98 463.2,260.63 457.71,263.81 457.71,263.15 
					458.01,261.08 462.16,257.72 463.2,259.98 				"/>
				<polygon id="XMLID_929_" class="st23" points="457.71,263.81 458.01,261.73 458.01,261.08 457.71,263.15 				"/>
				<polygon id="XMLID_928_" class="st23" points="463.2,260.63 462.16,258.38 462.16,257.73 463.2,259.98 				"/>
				<polygon id="XMLID_920_" class="st25" points="458.01,261.73 462.16,258.38 462.16,257.73 458.01,261.08 				"/>
			</g>
		</g>
	</g>
</g>
<g id="Speech_Bubbles">
	<g id="Speech_Bubble_7_">
		<g id="Speech_Bubble_1_">
			<path id="XMLID_4194_" class="st22" d="M363.73,279.23l-4.31-11.05l3.47-10.01v-6.13l-10.61,6.13v6.13l4.56,10.85
				c0.08,0.13,0.19,0.22,0.31,0.28l0,0L363.73,279.23z"/>
			<path id="XMLID_4193_" class="st23" d="M363.73,279.23l-4.31-11.05l3.47-10.01v-6.13l-10.61,6.13v6.13l4.56,10.85
				c0.08,0.13,0.19,0.22,0.31,0.28l0,0L363.73,279.23z"/>
			<path id="XMLID_4192_" class="st22" d="M389.36,232.3c0-2.03-1.42-4.5-3.18-5.51l-1.21-0.75c-1.76-1.01-4.61-1.01-6.36,0
				l-43.27,24.98c-1.76,1.01-3.18,3.48-3.18,5.51v14.62c0,2.03,1.43,4.5,3.18,5.51l1.21,0.75c1.76,1.01,4.61,1.01,6.37,0l16.03-9.25
				l4.55,10.83c0.29,0.5,1.04,0.43,1.23-0.12l4.81-16.84l16.64-9.61c1.76-1.01,3.18-3.48,3.18-5.51L389.36,232.3z"/>
			<path id="XMLID_4190_" class="st23" d="M332.15,271.15c0,2.03,1.42,4.5,3.18,5.51l1.21,0.75c1.59,0.92,4.06,1,5.82,0.26
				c-1.5,0.57-2.64-0.28-2.64-2.09l0-14.62c0-1.01,0.36-2.14,0.93-3.14l-7.58-4.42c-0.58,1-0.93,2.12-0.93,3.14V271.15z"/>
			<path id="XMLID_991_" class="st27" d="M389.26,231.4c-0.37-1.35-1.6-1.78-3.07-0.94l-43.27,24.99c-0.88,0.5-1.68,1.37-2.24,2.38
				l-7.58-4.42c0.58-1.01,1.37-1.87,2.24-2.38l43.26-24.99c1.77-1.01,4.62-1.01,6.37,0l1.22,0.75
				C387.68,227.66,388.94,229.59,389.26,231.4z"/>
		</g>
		<g>
			<g>
				<path class="st24" d="M345.64,270.69c-0.54,0.15-0.93,0.15-1.18,0.02c-0.15-0.12-0.22-0.27-0.22-0.46
					c0-0.31,0.08-0.68,0.25-1.11c0.17-0.42,0.35-0.69,0.56-0.81c0.09-0.05,0.23-0.08,0.43-0.08c0.2,0,0.34-0.01,0.43-0.01
					c0.44-0.03,0.83-0.14,1.16-0.33c0.35-0.2,0.65-0.46,0.91-0.78c0.26-0.32,0.39-0.68,0.39-1.08c0-0.3-0.07-0.52-0.2-0.66
					c-0.14-0.13-0.3-0.21-0.5-0.24c-0.2-0.02-0.48-0.03-0.85-0.01c-0.86,0.01-1.47-0.14-1.86-0.46c-0.38-0.32-0.57-0.93-0.57-1.85
					c0-1.01,0.32-1.99,0.97-2.94c0.65-0.95,1.5-1.73,2.57-2.35c0.38-0.22,0.79-0.4,1.21-0.52c0.43-0.13,0.76-0.18,1-0.14
					c0.2,0.03,0.3,0.17,0.3,0.42c0,0.29-0.07,0.64-0.19,1.04c-0.13,0.4-0.29,0.66-0.48,0.77c-0.09,0.05-0.25,0.1-0.49,0.15
					c-0.44,0.08-0.8,0.21-1.1,0.38c-0.45,0.26-0.76,0.54-0.93,0.82c-0.17,0.29-0.25,0.56-0.25,0.8c0,0.42,0.11,0.67,0.33,0.76
					c0.22,0.09,0.57,0.13,1.04,0.12l0.39,0c0.78,0,1.34,0.16,1.68,0.48c0.34,0.32,0.51,0.9,0.51,1.74c0,0.63-0.13,1.29-0.41,1.98
					c-0.27,0.69-0.68,1.36-1.23,2c-0.55,0.64-1.23,1.2-2.04,1.67C346.72,270.31,346.18,270.54,345.64,270.69z"/>
				<path class="st24" d="M352.13,266.54v-10.8c0-0.36,0.33-0.73,0.98-1.11l0.71-0.41c0.64-0.37,0.96-0.38,0.96-0.02v4.17l2.89-1.67
					v-4.17c0-0.36,0.33-0.73,0.98-1.1l0.69-0.4c0.65-0.38,0.98-0.38,0.98-0.03v10.8c0,0.36-0.33,0.73-0.98,1.11l-0.69,0.4
					c-0.65,0.38-0.98,0.38-0.98,0.02v-4.4l-2.89,1.67v4.4c0,0.36-0.32,0.73-0.96,1.1l-0.71,0.41
					C352.46,266.89,352.13,266.9,352.13,266.54z"/>
				<path class="st24" d="M361.33,261.4c0-0.09,0.02-0.2,0.05-0.33l2.6-12.23c0.08-0.36,0.42-0.72,1.03-1.07l1.1-0.63
					c0.62-0.36,0.97-0.4,1.05-0.13l2.6,9.23c0.02,0.15,0.03,0.24,0.03,0.28c0,0.25-0.24,0.51-0.73,0.79l-0.89,0.52
					c-0.54,0.31-0.84,0.37-0.89,0.16l-0.44-1.81l-2.56,1.48l-0.46,2.32c-0.04,0.26-0.31,0.53-0.79,0.81l-0.88,0.51
					C361.6,261.62,361.33,261.65,361.33,261.4z M366.55,254.29l-0.76-3.14c-0.08-0.36-0.15-0.75-0.2-1.17l-0.08,0.05
					c-0.06,0.48-0.12,0.95-0.2,1.4l-0.74,4.01L366.55,254.29z"/>
				<path class="st24" d="M370.73,255.8v-10.63c0-0.24,0.05-0.44,0.16-0.61c0.11-0.17,0.28-0.32,0.52-0.46l2.82-1.63
					c1.04-0.6,1.87-0.82,2.5-0.67c0.63,0.15,0.94,0.82,0.94,2.01c0,1.32-0.53,2.58-1.6,3.78v0.07c0.25-0.01,0.47,0.09,0.67,0.29
					c0.2,0.2,0.35,0.45,0.46,0.75l1,2.66l0.05,0.17c0,0.3-0.35,0.66-1.05,1.06l-0.59,0.34c-0.6,0.34-0.93,0.39-1.01,0.13l-0.89-2.69
					c-0.1-0.19-0.22-0.3-0.35-0.32c-0.13-0.03-0.33,0.04-0.62,0.2l-0.41,0.23v3.81c0,0.36-0.34,0.74-1.01,1.13l-0.57,0.33
					C371.07,256.15,370.73,256.16,370.73,255.8z M374.27,247.48c0.25-0.14,0.46-0.39,0.63-0.74c0.17-0.35,0.26-0.76,0.26-1.23
					c0-0.47-0.09-0.77-0.26-0.89c-0.17-0.12-0.4-0.1-0.68,0.07l-0.89,0.52v2.82L374.27,247.48z"/>
				<path class="st24" d="M379.59,251.04c-0.1-0.05-0.15-0.19-0.15-0.43v-10.46c0-0.24,0.05-0.44,0.15-0.6
					c0.1-0.17,0.26-0.31,0.47-0.43l4.98-2.88c0.17-0.1,0.29-0.1,0.37-0.01c0.08,0.09,0.12,0.28,0.12,0.57v0.52
					c0,0.29-0.04,0.53-0.12,0.71c-0.08,0.18-0.2,0.32-0.37,0.42l-2.97,1.71v2.45l2.63-1.52c0.17-0.1,0.29-0.1,0.37-0.01
					c0.08,0.09,0.12,0.28,0.12,0.57v0.52c0,0.29-0.04,0.53-0.12,0.71c-0.08,0.18-0.2,0.32-0.37,0.42l-2.63,1.52v2.73l2.99-1.72
					c0.17-0.1,0.29-0.1,0.36-0.01c0.07,0.09,0.11,0.29,0.11,0.58v0.52c0,0.29-0.04,0.53-0.11,0.71c-0.07,0.18-0.19,0.31-0.36,0.41
					l-5,2.88C379.85,251.05,379.69,251.08,379.59,251.04z"/>
			</g>
		</g>
	</g>
	<g id="Speech_Bubble_6_">
		<g id="Speech_Bubble_2_">
			<path id="XMLID_417_" class="st22" d="M318.95,249.5l-4.31-11.05l3.47-10.01v-6.13l-10.61,6.13v6.13l4.56,10.85
				c0.08,0.13,0.19,0.22,0.31,0.28l0,0L318.95,249.5z"/>
			<path id="XMLID_277_" class="st23" d="M318.95,249.5l-4.31-11.05l3.47-10.01v-6.13l-10.61,6.13v6.13l4.56,10.85
				c0.08,0.13,0.19,0.22,0.31,0.28l0,0L318.95,249.5z"/>
			<path id="XMLID_276_" class="st22" d="M347.92,200.62c0-2.03-1.42-4.5-3.18-5.51l-1.21-0.75c-1.76-1.01-4.61-1.01-6.36,0
				l-49.92,28.82c-1.76,1.01-3.18,3.48-3.18,5.51v14.62c0,2.03,1.43,4.5,3.18,5.51l1.21,0.75c1.76,1.01,4.61,1.01,6.37,0
				l19.35-11.15l4.55,10.83c0.29,0.5,1.04,0.43,1.23-0.12l4.81-16.84l19.98-11.55c1.76-1.01,3.18-3.48,3.18-5.51L347.92,200.62z"/>
			<path id="XMLID_275_" class="st23" d="M284.05,243.31c0,2.03,1.43,4.5,3.18,5.51l1.21,0.75c1.59,0.92,4.06,1,5.82,0.26
				c-1.5,0.57-2.64-0.28-2.64-2.09l0-14.62c0-1.01,0.36-2.14,0.93-3.14l-7.58-4.42c-0.58,1-0.93,2.12-0.93,3.14V243.31z"/>
			<path id="XMLID_274_" class="st27" d="M347.82,199.72c-0.37-1.35-1.6-1.78-3.07-0.94l-49.93,28.83c-0.88,0.5-1.68,1.37-2.24,2.38
				l-7.58-4.42c0.58-1.01,1.37-1.87,2.24-2.38l49.92-28.83c1.77-1.01,4.62-1.01,6.37,0l1.22,0.75
				C346.24,195.98,347.51,197.91,347.82,199.72z"/>
		</g>
		<g>
			<path class="st24" d="M296.81,241.93v-9.57c0-0.21,0.05-0.39,0.14-0.54c0.09-0.15,0.23-0.28,0.42-0.39l4.18-2.41
				c0.15-0.09,0.26-0.09,0.33-0.01c0.07,0.08,0.11,0.25,0.11,0.52v0.47c0,0.26-0.04,0.48-0.11,0.64c-0.07,0.16-0.18,0.29-0.33,0.38
				l-2.37,1.37v2.22l2.23-1.29c0.15-0.09,0.26-0.09,0.33-0.01c0.07,0.08,0.11,0.25,0.11,0.52v0.47c0,0.26-0.04,0.48-0.11,0.64
				c-0.07,0.16-0.18,0.29-0.33,0.38l-2.23,1.29v3.98c0,0.32-0.29,0.66-0.88,1l-0.61,0.35C297.1,242.24,296.81,242.25,296.81,241.93z
				"/>
			<path class="st24" d="M302.95,233.52c0-3.63,1.33-6.2,3.98-7.74c1.3-0.75,2.28-0.88,2.95-0.38c0.67,0.49,1.01,1.67,1.01,3.54
				s-0.34,3.43-1.01,4.7c-0.67,1.27-1.66,2.28-2.95,3.03C304.27,238.19,302.95,237.15,302.95,233.52z M307.82,233.85
				c0.22-0.33,0.39-0.78,0.5-1.35c0.11-0.56,0.17-1.29,0.17-2.19c0-0.88-0.06-1.54-0.17-1.98c-0.11-0.44-0.28-0.69-0.5-0.77
				c-0.22-0.07-0.52-0.01-0.88,0.2c-0.36,0.21-0.66,0.48-0.89,0.82c-0.23,0.33-0.4,0.79-0.52,1.35c-0.12,0.57-0.17,1.29-0.17,2.17
				c0,0.88,0.06,1.54,0.17,1.98c0.12,0.44,0.29,0.7,0.52,0.77c0.23,0.07,0.52,0,0.89-0.21C307.31,234.45,307.6,234.18,307.82,233.85
				z"/>
			<path class="st24" d="M312.47,233.19c-0.09-0.04-0.14-0.17-0.14-0.38v-9.57c0-0.32,0.29-0.66,0.88-0.99l0.61-0.35
				c0.59-0.34,0.88-0.35,0.88-0.02v8.19l2.26-1.31c0.16-0.09,0.28-0.1,0.35-0.02c0.07,0.08,0.11,0.25,0.11,0.52v0.47
				c0,0.26-0.04,0.48-0.11,0.64c-0.07,0.16-0.19,0.29-0.35,0.38l-4.07,2.35C312.7,233.21,312.56,233.24,312.47,233.19z"/>
			<path class="st24" d="M318.67,229.62c-0.09-0.04-0.14-0.17-0.14-0.38v-9.57c0-0.32,0.29-0.66,0.88-1l0.61-0.35
				c0.59-0.34,0.88-0.35,0.88-0.02v8.19l2.26-1.31c0.16-0.09,0.28-0.1,0.35-0.02c0.07,0.08,0.11,0.25,0.11,0.52v0.47
				c0,0.26-0.04,0.48-0.11,0.64c-0.07,0.16-0.19,0.29-0.35,0.38l-4.07,2.35C318.9,229.63,318.76,229.66,318.67,229.62z"/>
			<path class="st24" d="M324.14,221.29c0-3.63,1.33-6.21,3.98-7.74c1.3-0.75,2.28-0.88,2.96-0.38c0.67,0.49,1.01,1.67,1.01,3.53
				c0,1.87-0.34,3.43-1.01,4.7c-0.67,1.27-1.66,2.28-2.96,3.03C325.47,225.96,324.14,224.91,324.14,221.29z M329.02,221.61
				c0.22-0.33,0.39-0.78,0.5-1.34c0.11-0.57,0.17-1.29,0.17-2.18c0-0.88-0.06-1.54-0.17-1.98c-0.11-0.44-0.28-0.69-0.5-0.77
				c-0.22-0.07-0.52-0.01-0.88,0.21c-0.36,0.21-0.66,0.48-0.89,0.82c-0.23,0.33-0.4,0.78-0.52,1.35c-0.12,0.57-0.17,1.29-0.17,2.17
				s0.06,1.54,0.17,1.98c0.12,0.44,0.29,0.69,0.52,0.76c0.23,0.07,0.52,0,0.89-0.21C328.5,222.22,328.79,221.95,329.02,221.61z"/>
			<path class="st24" d="M334.7,220.46c-0.11,0.01-0.18-0.03-0.2-0.13l-1.99-8.6c-0.01-0.03-0.01-0.08-0.01-0.12
				c0-0.05,0.01-0.08,0.01-0.1c0-0.26,0.3-0.57,0.9-0.91l0.44-0.25c0.61-0.35,0.93-0.38,0.97-0.09l0.71,5.19l0.14,1.01l0.14,1.11
				l0.27-2c0.04-0.22,0.07-0.39,0.08-0.48l0.93-6.29c0.02-0.13,0.08-0.25,0.19-0.36c0.11-0.11,0.28-0.23,0.52-0.37l0.76-0.44
				c0.24-0.14,0.42-0.22,0.52-0.23c0.11-0.02,0.17,0.03,0.19,0.14l0.91,5.23l0.33,2.13l0.21-1.75l0.09-0.75l0.73-6.03
				c0.04-0.34,0.36-0.68,0.97-1.03l0.35-0.2c0.6-0.35,0.9-0.39,0.9-0.12c0,0.09,0,0.17-0.02,0.24l-2.02,10.92
				c-0.04,0.24-0.28,0.48-0.71,0.73l-1,0.58c-0.41,0.23-0.63,0.26-0.68,0.08l-1.03-4.77l-0.17-1.53l-0.18,1.73l-1.05,5.97
				c-0.04,0.24-0.27,0.47-0.68,0.71l-1,0.58C334.98,220.37,334.81,220.45,334.7,220.46z"/>
		</g>
	</g>
</g>
<g id="Mails_1_">
	<g id="Mails">
		<g id="Letter_5_">
			<g>
				<g>
					<path class="st22" d="M229.33,173.21l42-24.25c0.42-0.24,0.79-0.22,1.06,0c0.24,0.21,2.62,1.45,2.88,1.64
						c0.27,0.19,0.44,0.59,0.44,1.13v37.8c0,1.07-0.65,2.31-1.45,2.77l-7.38,4.26l-38.55-22.25
						C228.6,173.83,228.95,173.43,229.33,173.21z"/>
					<path class="st27" d="M229.33,173.21l42-24.25c0.42-0.24,0.79-0.22,1.06,0c0.24,0.21,2.62,1.45,2.88,1.64
						c0.27,0.19,0.44,0.59,0.44,1.13v37.8c0,1.07-0.65,2.31-1.45,2.77l-7.38,4.26l-38.55-22.25
						C228.6,173.83,228.95,173.43,229.33,173.21z"/>
					<path class="st22" d="M231.28,216.61c-0.29-0.19-2.68-1.51-2.94-1.68c-0.28-0.19-0.46-0.59-0.46-1.15v-37.8
						c0-0.56,0.18-1.16,0.46-1.67l38.55,22.25l-34.63,19.99C231.88,216.77,231.54,216.78,231.28,216.61z"/>
					<path class="st23" d="M231.28,216.61c-0.29-0.19-2.68-1.51-2.94-1.68c-0.28-0.19-0.46-0.59-0.46-1.15v-37.8
						c0-0.56,0.18-1.16,0.46-1.67l38.55,22.25l-34.63,19.99C231.88,216.77,231.54,216.78,231.28,216.61z"/>
				</g>
				<path class="st22" d="M232.26,216.55l42-24.25c0.8-0.46,1.45-1.7,1.45-2.77v-37.8c0-1.07-0.65-1.56-1.45-1.1l-42,24.25
					c-0.8,0.46-1.45,1.7-1.45,2.77v37.8C230.81,216.52,231.46,217.01,232.26,216.55z"/>
				<path class="st23" d="M230.81,215.46v-0.74l17.36-28.78l-17.14-9.5c0.04-0.11,0.08-0.21,0.13-0.31l21.36,8.9
					c0.45,0.19,1.03-0.15,1.49-0.86l21.33-33.52c0.05,0.05,0.09,0.08,0.13,0.14l-17.12,29.27l17.36,8.73v0.74
					c0,0.58-0.17,1.2-0.44,1.71l-17.81-9.67l-2.52,4.31c-1,1.71-2.36,2.5-3.37,1.94l-2.52-1.4l-17.78,30.18
					C231.01,216.41,230.81,216.04,230.81,215.46z"/>
			</g>
		</g>
		<g id="Letter_6_">
			<g>
				<g>
					<path class="st22" d="M239.76,179.34l42-24.25c0.42-0.24,0.79-0.22,1.06,0c0.24,0.21,2.62,1.45,2.88,1.64
						c0.27,0.19,0.44,0.59,0.44,1.13v37.8c0,1.07-0.65,2.31-1.45,2.77l-7.38,4.26l-38.55-22.25
						C239.03,179.97,239.37,179.57,239.76,179.34z"/>
					<path class="st27" d="M239.76,179.34l42-24.25c0.42-0.24,0.79-0.22,1.06,0c0.24,0.21,2.62,1.45,2.88,1.64
						c0.27,0.19,0.44,0.59,0.44,1.13v37.8c0,1.07-0.65,2.31-1.45,2.77l-7.38,4.26l-38.55-22.25
						C239.03,179.97,239.37,179.57,239.76,179.34z"/>
					<path class="st22" d="M241.7,222.74c-0.29-0.19-2.68-1.51-2.94-1.68c-0.28-0.19-0.46-0.59-0.46-1.15v-37.8
						c0-0.56,0.18-1.16,0.46-1.67l38.55,22.25l-34.63,19.99C242.31,222.91,241.96,222.91,241.7,222.74z"/>
					<path class="st23" d="M241.7,222.74c-0.29-0.19-2.68-1.51-2.94-1.68c-0.28-0.19-0.46-0.59-0.46-1.15v-37.8
						c0-0.56,0.18-1.16,0.46-1.67l38.55,22.25l-34.63,19.99C242.31,222.91,241.96,222.91,241.7,222.74z"/>
				</g>
				<path class="st22" d="M242.69,222.69l42-24.25c0.8-0.46,1.45-1.7,1.45-2.77v-37.8c0-1.07-0.65-1.56-1.45-1.1l-42,24.25
					c-0.8,0.46-1.45,1.7-1.45,2.77v37.8C241.24,222.66,241.89,223.15,242.69,222.69z"/>
				<path class="st23" d="M241.24,221.59v-0.74l17.36-28.78l-17.14-9.5c0.04-0.11,0.08-0.21,0.13-0.31l21.36,8.9
					c0.45,0.19,1.03-0.15,1.49-0.86l21.33-33.52c0.05,0.05,0.09,0.08,0.13,0.14l-17.12,29.27l17.36,8.73v0.74
					c0,0.58-0.17,1.2-0.44,1.71l-17.81-9.67l-2.52,4.31c-1,1.71-2.36,2.5-3.37,1.94l-2.52-1.4l-17.78,30.18
					C241.44,222.54,241.24,222.17,241.24,221.59z"/>
			</g>
		</g>
		<g id="Letter_7_">
			<g>
				<g>
					<path class="st22" d="M250.18,185.48l42-24.25c0.42-0.24,0.79-0.22,1.06,0c0.24,0.21,2.62,1.45,2.88,1.64
						c0.27,0.19,0.44,0.59,0.44,1.13v37.8c0,1.07-0.65,2.31-1.45,2.77l-7.38,4.26l-38.55-22.25
						C249.45,186.1,249.8,185.7,250.18,185.48z"/>
					<path class="st27" d="M250.18,185.48l42-24.25c0.42-0.24,0.79-0.22,1.06,0c0.24,0.21,2.62,1.45,2.88,1.64
						c0.27,0.19,0.44,0.59,0.44,1.13v37.8c0,1.07-0.65,2.31-1.45,2.77l-7.38,4.26l-38.55-22.25
						C249.45,186.1,249.8,185.7,250.18,185.48z"/>
					<path class="st22" d="M252.13,228.88c-0.29-0.19-2.68-1.51-2.94-1.68c-0.28-0.19-0.46-0.59-0.46-1.15v-37.8
						c0-0.56,0.18-1.16,0.46-1.67l38.55,22.25l-34.63,19.99C252.73,229.04,252.39,229.05,252.13,228.88z"/>
					<path class="st23" d="M252.13,228.88c-0.29-0.19-2.68-1.51-2.94-1.68c-0.28-0.19-0.46-0.59-0.46-1.15v-37.8
						c0-0.56,0.18-1.16,0.46-1.67l38.55,22.25l-34.63,19.99C252.73,229.04,252.39,229.05,252.13,228.88z"/>
				</g>
				<path class="st22" d="M253.11,228.82l42-24.25c0.8-0.46,1.45-1.7,1.45-2.77V164c0-1.07-0.65-1.56-1.45-1.1l-42,24.25
					c-0.8,0.46-1.45,1.7-1.45,2.77v37.8C251.66,228.79,252.31,229.28,253.11,228.82z"/>
				<path class="st23" d="M251.66,227.73v-0.74l17.36-28.78l-17.14-9.5c0.04-0.11,0.08-0.21,0.13-0.31l21.36,8.9
					c0.45,0.19,1.03-0.15,1.49-0.86l21.33-33.52c0.05,0.05,0.09,0.08,0.13,0.14l-17.12,29.27l17.36,8.73v0.74
					c0,0.58-0.17,1.2-0.44,1.71l-17.81-9.67l-2.52,4.31c-1,1.71-2.36,2.5-3.37,1.94l-2.52-1.4l-17.78,30.18
					C251.86,228.68,251.66,228.31,251.66,227.73z"/>
			</g>
		</g>
	</g>
</g>
<g id="Device">
	<g id="Mobile_1_">
		<g id="Mobile_2_">
			<path class="st22" d="M433.31,372.84l-119.68,69.09c-3.88,2.24-8.46,2.29-12.49,0.23L60.19,303.04
				c-3.8-2.19-6.87-7.09-6.87-10.95c0-3.86,3.08-8.76,6.87-10.95l119.24-68.84c3.78-2.18,9.97-2.18,13.75,0l240.14,138.65
				c3.8,2.19,6.87,7.09,6.87,10.95C440.19,365.75,437.11,370.65,433.31,372.84z"/>
			<g>
				<path class="st28" d="M179.43,212.3L60.19,281.14c-3.8,2.19-6.87,7.09-6.87,10.95c0,3.86,3.08,8.76,6.87,10.95l240.95,139.12
					c1.91,0.98,3.95,1.46,5.97,1.48V278.09L193.17,212.3C189.39,210.12,183.21,210.12,179.43,212.3z"/>
				<path class="st29" d="M313.63,441.93l119.68-69.09c3.8-2.19,6.87-7.09,6.87-10.95c0-3.85-3.08-8.76-6.87-10.95l-126.2-72.86
					v165.56C309.36,443.67,311.59,443.11,313.63,441.93z"/>
			</g>
			<path class="st22" d="M310.78,429.62c-3.33,1.92-8.79,1.92-12.12,0L60.16,291.92c-5.13-2.96-5.13-7.8,0-10.77l119.26-68.85
				c3.78-2.18,9.97-2.18,13.75,0L433.3,350.95c3.78,2.18,3.78,5.75,0,7.94L310.78,429.62z"/>
			<path class="st30" d="M310.78,429.62c-3.33,1.92-8.79,1.92-12.12,0L60.16,291.92c-5.13-2.96-5.13-7.8,0-10.77l119.26-68.85
				c3.78-2.18,9.97-2.18,13.75,0L433.3,350.95c3.78,2.18,3.78,5.75,0,7.94L310.78,429.62z"/>
			<path class="st31" d="M299.2,415.76c-3.61,2.08-9.46,2.08-13.06,0L80.91,297.27c-3.61-2.08-3.61-5.46,0-7.54l112.19-64.77
				c3.59-2.07,9.47-2.07,13.06,0l205.23,118.49c3.59,2.07,3.59,5.47,0,7.54L299.2,415.76z"/>
			<path class="st26" d="M199.23,223.43c-2.23,0.06-4.44,0.56-6.13,1.53L80.91,289.73c-3.61,2.08-3.61,5.46,0,7.54l22.24,12.84
				l96.09-61.36V223.43z"/>
			<path d="M206.24,229.86c-3.59-2.07-9.47-2.07-13.06,0L80.99,294.63c-0.71,0.41-1.27,0.88-1.7,1.37c0.42,0.46,0.96,0.89,1.63,1.27
				l205.23,118.49c3.61,2.08,9.46,2.08,13.06,0l112.19-64.77c0.7-0.41,1.27-0.87,1.69-1.35c-0.42-0.46-0.95-0.9-1.62-1.29
				L206.24,229.86z"/>
			<g>
				<path d="M121.92,259.43l19.88-11.48c1.19-0.68,1.25-1.76,0.13-2.4c-1.11-0.64-2.98-0.61-4.16,0.08l-19.88,11.48
					c-1.19,0.68-1.25,1.76-0.13,2.4C118.87,260.15,120.73,260.12,121.92,259.43z"/>
				<g>
					<path d="M156.06,239.75c1.11-0.64,1.11-1.68,0-2.33c-1.11-0.64-2.92-0.64-4.03,0c-1.11,0.64-1.11,1.68,0,2.33
						C153.14,240.39,154.95,240.39,156.06,239.75z"/>
					<path d="M164.12,235.09c1.11-0.64,1.11-1.68,0-2.33c-1.11-0.64-2.92-0.64-4.03,0c-1.11,0.64-1.11,1.68,0,2.33
						C161.2,235.73,163.01,235.73,164.12,235.09z"/>
					<path d="M99.64,272.32c1.11-0.64,1.11-1.68,0-2.33c-1.11-0.64-2.92-0.64-4.03,0c-1.11,0.64-1.11,1.68,0,2.33
						C96.72,272.96,98.53,272.96,99.64,272.32z"/>
					<path d="M107.7,267.66c1.11-0.64,1.11-1.68,0-2.33c-1.11-0.64-2.92-0.64-4.03,0c-1.11,0.64-1.11,1.68,0,2.33
						C104.78,268.3,106.59,268.3,107.7,267.66z"/>
				</g>
			</g>
			<g>
				<path class="st22" d="M135.77,338.8c1.19,0.68,2.15,2.28,2.15,3.57c0,0.62-0.23,1.05-0.59,1.25c-0.26,0.14-1.24,0.73-1.5,0.88
					c-0.39,0.22-0.94,0.18-1.55-0.18l-27.94-16.13c-1.19-0.68-2.15-2.28-2.15-3.57c0-0.59,0.21-1.01,0.54-1.22
					c0.27-0.17,1.28-0.75,1.55-0.9c0.39-0.22,0.94-0.18,1.55,0.18L135.77,338.8z"/>
				<path class="st29" d="M135.77,338.8c1.19,0.68,2.15,2.28,2.15,3.57c0,0.62-0.23,1.05-0.59,1.25c-0.26,0.14-1.24,0.73-1.5,0.88
					c-0.39,0.22-0.94,0.18-1.55-0.18l-27.94-16.13c-1.19-0.68-2.15-2.28-2.15-3.57c0-0.59,0.21-1.01,0.54-1.22
					c0.27-0.17,1.28-0.75,1.55-0.9c0.39-0.22,0.94-0.18,1.55,0.18L135.77,338.8z"/>
				<path class="st22" d="M134.27,339.66l-27.94-16.13c-1.19-0.68-2.15-0.2-2.15,1.09c0,1.29,0.96,2.88,2.15,3.57l27.94,16.13
					c1.19,0.68,2.15,0.2,2.15-1.09C136.42,341.94,135.46,340.35,134.27,339.66z"/>
				<path class="st32" d="M134.27,339.66l-27.94-16.13c-1.19-0.68-2.15-0.2-2.15,1.09c0,1.29,0.96,2.88,2.15,3.57l27.94,16.13
					c1.19,0.68,2.15,0.2,2.15-1.09C136.42,341.94,135.46,340.35,134.27,339.66z"/>
			</g>
			<g>
				<path class="st22" d="M98.37,317.2c1.19,0.68,2.15,2.28,2.15,3.57c0,0.62-0.23,1.05-0.59,1.25c-0.26,0.14-1.24,0.73-1.5,0.88
					c-0.39,0.22-0.94,0.18-1.55-0.18l-13.17-7.61c-1.19-0.68-2.15-2.28-2.15-3.57c0-0.59,0.21-1.01,0.54-1.22
					c0.27-0.17,1.28-0.75,1.55-0.9c0.39-0.22,0.94-0.18,1.55,0.18L98.37,317.2z"/>
				<path class="st29" d="M98.37,317.2c1.19,0.68,2.15,2.28,2.15,3.57c0,0.62-0.23,1.05-0.59,1.25c-0.26,0.14-1.24,0.73-1.5,0.88
					c-0.39,0.22-0.94,0.18-1.55-0.18l-13.17-7.61c-1.19-0.68-2.15-2.28-2.15-3.57c0-0.59,0.21-1.01,0.54-1.22
					c0.27-0.17,1.28-0.75,1.55-0.9c0.39-0.22,0.94-0.18,1.55,0.18L98.37,317.2z"/>
				<path class="st22" d="M96.87,318.07l-13.17-7.61c-1.19-0.68-2.15-0.2-2.15,1.09c0,1.28,0.96,2.88,2.15,3.57l13.17,7.61
					c1.19,0.68,2.15,0.2,2.15-1.09C99.02,320.35,98.06,318.75,96.87,318.07z"/>
				<path class="st32" d="M96.87,317.63l-13.17-7.61c-1.19-0.68-2.15-0.2-2.15,1.09c0,1.29,0.96,2.88,2.15,3.57l13.17,7.61
					c1.19,0.68,2.15,0.2,2.15-1.09C99.02,319.92,98.06,318.32,96.87,317.63z"/>
			</g>
		</g>
	</g>
	<g id="Message_1_">
		<g id="Message">
			<path id="XMLID_4253_" class="st22" d="M246.17,362.78v0.81c0,1.29,0.91,2.87,2.03,3.51l43.51,25.12c1.12,0.65,2.94,0.65,4.06,0
				l72.05-41.6c1.12-0.65,2.03-2.22,2.03-3.51v-0.81c0-1.29-0.91-2.87-2.03-3.51l-43.51-25.12c-1.12-0.65-2.94-0.65-4.06,0
				l-72.05,41.6C247.08,359.91,246.17,361.49,246.17,362.78z"/>
			<path id="XMLID_542_" class="st22" d="M246.17,362.78v0.81c0,1.29,0.91,2.87,2.03,3.51l43.51,25.12c1.12,0.65,2.94,0.65,4.06,0
				l72.05-41.6c1.12-0.65,2.03-2.22,2.03-3.51v-0.81c0-1.29-0.91-2.87-2.03-3.51l-43.51-25.12c-1.12-0.65-2.94-0.65-4.06,0
				l-72.05,41.6C247.08,359.91,246.17,361.49,246.17,362.78z"/>
			<path class="st33" d="M367.82,342.79l-43.51-25.12c-1.12-0.65-2.94-0.65-4.06,0l-26.51,15.31v59.73h0c0.73,0,1.47-0.16,2.03-0.48
				l72.05-41.6c1.12-0.65,2.03-2.22,2.03-3.51v-0.81C369.85,345.01,368.94,343.44,367.82,342.79z"/>
			<path class="st34" d="M367.82,342.79l-43.51-25.12c-1.12-0.65-2.94-0.65-4.06,0l-26.51,15.31v59.73h0c0.73,0,1.47-0.16,2.03-0.48
				l72.05-41.6c1.12-0.65,2.03-2.22,2.03-3.51v-0.81C369.85,345.01,368.94,343.44,367.82,342.79z"/>
			<path class="st33" d="M293.74,332.97l-45.54,26.29c-1.12,0.65-2.03,2.22-2.03,3.51v0.81c0,1.29,0.91,2.87,2.03,3.51l43.51,25.12
				c0.56,0.32,1.29,0.48,2.03,0.48h0V332.97z"/>
			<path class="st23" d="M293.74,332.97l-45.54,26.29c-1.12,0.65-2.03,2.22-2.03,3.51v0.81c0,1.29,0.91,2.87,2.03,3.51l43.51,25.12
				c0.56,0.32,1.29,0.48,2.03,0.48h0V332.97z"/>
			<path id="XMLID_541_" class="st22" d="M284.74,382.71l-36.54-21.1c-1.12-0.65-1.12-1.7,0-2.34l72.05-41.6
				c1.12-0.65,2.94-0.65,4.06,0l43.51,25.12c1.12,0.65,1.12,1.7,0,2.34l-11.95,6.9l-4.18,2.42l-55.91,32.28
				c-1.12,0.65-2.94,0.65-4.06,0l-3.54-2.05L284.74,382.71z"/>
			<path id="XMLID_540_" class="st33" d="M284.74,382.71l-36.54-21.1c-1.12-0.65-1.12-1.7,0-2.34l72.05-41.6
				c1.12-0.65,2.94-0.65,4.06,0l43.51,25.12c1.12,0.65,1.12,1.7,0,2.34l-11.95,6.9l-4.18,2.42l-55.91,32.28
				c-1.12,0.65-2.94,0.65-4.06,0l-3.54-2.05L284.74,382.71z"/>
			<path class="st34" d="M317.92,347.66l49.9-4.87l-49.46,2.8l5.95-27.92c-0.61-0.35-1.42-0.49-2.21-0.46l-9.33,37.74l-65.39,5.39
				c-0.05,0.46,0.22,0.92,0.82,1.27l52.81-3.07l-7.27,28.67l9.29-28.79h0l9.02-0.52c1.14-0.07,2.17-0.52,2.98-1.24l0.01,0l0-0.01
				c0.75-0.67,1.3-1.58,1.52-2.62L317.92,347.66z"/>
			<path id="XMLID_539_" class="st33" d="M262.98,359.05l49.79-4.11l1.78-7.13l0.98-3.97l6.57-26.64c-0.67,0.02-1.34,0.17-1.85,0.47
				l-36.03,20.8l-36.03,20.8c-0.52,0.3-0.78,0.68-0.82,1.07l9.99-0.82L262.98,359.05z"/>
			<path id="XMLID_529_" class="st35" d="M314.04,311.71c4.55-2.63,11.93-2.63,16.48,0c4.55,2.63,4.55,6.89,0,9.51
				c-4.55,2.63-11.93,2.63-16.48,0C309.49,318.6,309.49,314.34,314.04,311.71z"/>
			<g>
				<path class="st24" d="M316.52,318.03c-0.15-0.01-0.26-0.05-0.34-0.12c-0.08-0.07-0.11-0.14-0.09-0.23l0.68-3
					c0.02-0.07,0.04-0.16,0.08-0.26c0.03-0.1,0.11-0.19,0.25-0.27l1.67-0.96c0.1-0.06,0.22-0.09,0.37-0.09
					c0.15,0,0.27,0.03,0.37,0.09l8.82,5.1c0.1,0.06,0.15,0.13,0.15,0.21c0,0.08-0.05,0.15-0.15,0.21l-1.79,1.03
					c-0.1,0.06-0.22,0.09-0.37,0.09c-0.15,0-0.27-0.03-0.37-0.09l-5.97-3.45l-0.4,1.65c-0.02,0.08-0.08,0.15-0.2,0.2
					c-0.11,0.05-0.24,0.07-0.39,0.06L316.52,318.03z"/>
			</g>
		</g>
		<g>
			<path class="st24" d="M204.64,346.33l32.23-18.61l22.04,5.45c2.15,0.53,3.79-1.93,2.47-3.71l-8.26-11.13l32.23-18.61
				c2.38-1.38,2.38-3.63,0-5l-64.49-37.24c-2.38-1.38-6.28-1.37-8.66,0l-80.67,46.61c-2.38,1.38-2.38,3.63,0,5l64.46,37.21
				C198.36,347.71,202.26,347.71,204.64,346.33z"/>
			<g>
				<path class="st36" d="M164.85,297.27c2.03-1.17,4.04-2.03,6.04-2.59c2-0.55,3.93-0.88,5.77-0.99c1.84-0.11,3.56,0,5.15,0.31
					c1.59,0.32,2.98,0.76,4.19,1.33c1.34,0.65,2.72,1.38,4.12,2.19c1.4,0.81,2.66,1.6,3.79,2.38c0.98,0.69,1.75,1.5,2.29,2.42
					c0.55,0.92,0.73,1.91,0.55,2.97c-0.18,1.07-0.77,2.17-1.75,3.31c-0.98,1.14-2.49,2.3-4.51,3.47c-2.03,1.17-4.03,2.04-6.01,2.61
					c-1.98,0.57-3.89,0.9-5.73,1.01c-1.85,0.11-3.56,0-5.15-0.31c-1.59-0.32-2.98-0.76-4.19-1.33c-1.34-0.65-2.71-1.38-4.12-2.19
					c-1.4-0.81-2.66-1.6-3.79-2.38c-0.98-0.69-1.75-1.5-2.29-2.42c-0.55-0.92-0.73-1.91-0.54-2.97c0.18-1.06,0.75-2.17,1.71-3.33
					C161.33,299.61,162.82,298.44,164.85,297.27z M185.3,304.05c-0.23-0.2-0.65-0.47-1.27-0.83c-0.62-0.36-1.26-0.73-1.92-1.11
					c-0.66-0.38-1.31-0.75-1.92-1.11c-0.62-0.36-1.1-0.6-1.43-0.73c-1.06-0.48-2.22-0.74-3.49-0.78c-1.27-0.03-2.7,0.41-4.29,1.32
					c-1.59,0.92-2.35,1.74-2.29,2.47c0.06,0.73,0.51,1.4,1.35,2.01c0.23,0.2,0.64,0.48,1.23,0.85c0.59,0.37,1.22,0.75,1.88,1.13
					c0.67,0.38,1.32,0.75,1.96,1.09c0.64,0.34,1.14,0.58,1.48,0.71c1.06,0.49,2.22,0.75,3.49,0.78c1.27,0.04,2.7-0.41,4.29-1.32
					c1.59-0.92,2.35-1.74,2.29-2.47C186.59,305.33,186.14,304.66,185.3,304.05z M199.53,279.23c-0.04-0.47,0.02-0.89,0.2-1.26
					c0.17-0.37,0.64-0.78,1.41-1.23l4.93-2.85c0.6-0.35,1.21-0.55,1.83-0.6c0.62-0.05,1.14,0.04,1.57,0.29
					c0.1,0.05,0.19,0.14,0.27,0.25c0.09,0.11,0.15,0.24,0.18,0.39l5.67,50.17c0.04,0.47-0.02,0.89-0.2,1.26
					c-0.17,0.38-0.65,0.78-1.41,1.23l-4.93,2.85c-0.6,0.35-1.21,0.55-1.83,0.6c-0.62,0.06-1.14-0.04-1.57-0.29
					c-0.09-0.05-0.19-0.14-0.27-0.25c-0.09-0.11-0.15-0.24-0.18-0.39L199.53,279.23z M225.44,291.15c2.03-1.17,4.04-2.03,6.04-2.59
					c2-0.55,3.93-0.88,5.77-0.99c1.84-0.11,3.56,0,5.15,0.32c1.59,0.32,2.98,0.76,4.18,1.32c1.34,0.65,2.72,1.38,4.12,2.19
					c1.4,0.81,2.66,1.6,3.79,2.38c0.98,0.69,1.75,1.5,2.29,2.42c0.55,0.92,0.73,1.91,0.55,2.97c-0.18,1.07-0.77,2.17-1.75,3.31
					c-0.98,1.14-2.49,2.3-4.51,3.47c-2.03,1.17-4.03,2.04-6.01,2.61c-1.98,0.57-3.89,0.9-5.73,1.01c-1.84,0.11-3.56,0-5.15-0.32
					c-1.59-0.32-2.98-0.76-4.19-1.32c-1.34-0.65-2.71-1.38-4.12-2.19c-1.4-0.81-2.66-1.6-3.79-2.38c-0.98-0.69-1.75-1.5-2.29-2.42
					c-0.55-0.92-0.73-1.91-0.54-2.97c0.18-1.06,0.75-2.17,1.71-3.33C221.92,293.48,223.41,292.32,225.44,291.15z M245.89,297.92
					c-0.23-0.2-0.65-0.47-1.27-0.83c-0.62-0.36-1.26-0.73-1.92-1.11c-0.66-0.38-1.3-0.75-1.92-1.11c-0.62-0.36-1.09-0.6-1.43-0.73
					c-1.06-0.48-2.22-0.74-3.49-0.78c-1.27-0.04-2.7,0.41-4.29,1.32c-1.59,0.92-2.35,1.74-2.29,2.47c0.06,0.73,0.51,1.4,1.35,2.01
					c0.23,0.2,0.64,0.48,1.23,0.85c0.59,0.37,1.22,0.75,1.88,1.13c0.67,0.38,1.32,0.75,1.96,1.09c0.64,0.34,1.14,0.58,1.48,0.71
					c1.06,0.49,2.22,0.75,3.49,0.78c1.27,0.04,2.7-0.4,4.29-1.32c1.59-0.92,2.35-1.74,2.29-2.47
					C247.18,299.21,246.73,298.54,245.89,297.92z"/>
			</g>
		</g>
	</g>
</g>
<g id="Megaphone_1_">
	<g id="Megaphone">
		<g id="XMLID_1244_">
			<g id="XMLID_4100_">
				<path id="XMLID_4191_" d="M83.75,101.58L96.87,94c0,0,0,58.08,0,60.36c0,2.27,2.62,4.55,2.62,4.55l-13.12,7.57
					c0,0-2.62-2.27-2.62-4.55C83.75,159.66,83.75,101.58,83.75,101.58z"/>
				<path id="XMLID_4189_" d="M67.8,101.45l5.53,7.04l-0.02,26.23c0,7.34-2.08,14.53-5.98,20.75l0,0l19.04,11
					c-1.65-1.49-2.49-3.01-2.62-4.55v-51.27L67.8,101.45z"/>
				<polygon id="XMLID_4187_" class="st22" points="67.33,155.48 67.33,158.51 86.38,169.51 86.38,166.48 				"/>
				<polygon id="XMLID_4153_" class="st22" points="86.38,169.51 99.5,161.93 99.5,158.9 86.38,166.48 				"/>
				<polygon id="XMLID_4152_" class="st25" points="86.38,169.51 99.5,161.93 99.5,158.9 86.38,166.48 				"/>
			</g>
			<g id="XMLID_3896_">
				<path id="XMLID_4098_" class="st22" d="M83.15,69.71L83.15,69.71c-2.23-1.33-5.33-1.17-8.76,0.81l-0.12,0.07
					c-6.78,3.92-12.28,13.44-12.28,21.27v0.14c0,4.06,1.48,6.86,3.84,8.08l0,0l9.93,5.85l16.57-30.82L83.15,69.71z"/>
				<path id="XMLID_4097_" class="st37" d="M83.15,69.71L83.15,69.71c-2.23-1.33-5.33-1.17-8.76,0.81l-0.12,0.07
					c-6.78,3.92-12.28,13.44-12.28,21.27v0.14c0,4.06,1.48,6.86,3.84,8.08l0,0l9.93,5.85l16.57-30.82L83.15,69.71z"/>
				<path id="XMLID_4096_" class="st38" d="M65.82,100.1L65.82,100.1l9.93,5.85l5.49-10.22L63.12,85.26
					c-0.73,2.23-1.14,4.48-1.14,6.61v0.14C61.98,96.07,63.46,98.88,65.82,100.1z"/>
				<path id="XMLID_4095_" class="st39" d="M104.59,77.26L104.59,77.26c-2.53-1.44-5.92-1.38-9.68,0.46
					c-0.39,0.19-0.79,0.4-1.2,0.63c-0.48,0.28-0.94,0.57-1.41,0.89c-0.77,0.52-1.52,1.1-2.25,1.73c-1.34,1.14-2.6,2.45-3.78,3.88
					c-3.15,3.84-5.63,8.53-6.94,13.21c-0.66,2.36-1.02,4.72-1.02,6.98c0,4.79,1.64,8.19,4.31,9.84l-9.48-5.46l0.01-0.02
					c-3.31-2.11-5.59-5.87-5.59-10.57c0-2.15,0.33-4.41,0.94-6.66c1.29-4.79,3.8-9.6,7.03-13.52c1.18-1.43,2.44-2.74,3.78-3.88
					c0.73-0.63,1.48-1.21,2.25-1.73c0.47-0.32,0.94-0.62,1.41-0.89c0.4-0.23,0.81-0.44,1.21-0.63c3.72-1.69,7.6-1.45,10.74,0.18
					l0.01-0.01l0.26,0.15c0.11,0.06,0.23,0.13,0.34,0.2L104.59,77.26z"/>
				<path id="XMLID_4094_" class="st25" d="M73.13,109.41l0.01-0.02c-3.31-2.11-5.59-5.87-5.59-10.57c0-2.15,0.33-4.41,0.94-6.66
					l10.84,5.9c-0.66,2.36-1.02,4.72-1.02,6.98c0,4.79,1.64,8.19,4.31,9.84L73.13,109.41z"/>
				<path id="XMLID_4078_" class="st22" d="M109.11,87.24c0,9.83-6.89,21.77-15.4,26.68c-4.28,2.47-8.15,2.69-10.94,1.05
					c-0.05-0.03-0.1-0.06-0.15-0.09c-2.67-1.65-4.31-5.06-4.31-9.84c0-9.83,6.89-21.77,15.4-26.69c4.24-2.45,8.09-2.69,10.88-1.09
					C107.38,78.86,109.11,82.32,109.11,87.24z"/>
				<path id="XMLID_3905_" class="st23" d="M109.11,87.24c0,9.83-6.89,21.77-15.4,26.68c-4.28,2.47-8.15,2.69-10.94,1.05
					c-0.05-0.03-0.1-0.06-0.15-0.09c-2.67-1.65-4.31-5.06-4.31-9.84c0-9.83,6.89-21.77,15.4-26.69c4.24-2.45,8.09-2.69,10.88-1.09
					C107.38,78.86,109.11,82.32,109.11,87.24z"/>
				<path id="XMLID_3903_" class="st22" d="M156.34,84.7c0,0-15.54,7.98-28.81,30.96c-2.61,4.51-4.67,8.82-6.3,12.82
					c-6.67,16.35-6.11,27.61-6.11,27.61c-4.63-11.34-10.39-23.09-20-32.08c-5.95-5.57-11.81-9.88-11.81-9.88l0.01-0.01
					c-2.54-1.48-4.03-4.68-4.03-9.1c0-2.91,0.63-6.01,1.74-9.05c0.69-1.93,1.58-3.83,2.63-5.64c2.7-4.68,6.43-8.76,10.54-11.13
					c3.83-2.21,7.34-2.53,9.89-1.06l0.01-0.01c0,0,6.67,2.92,14.46,5.29C131.15,87.25,144.2,86.36,156.34,84.7z"/>
				<path id="XMLID_3902_" class="st37" d="M156.34,84.7c0,0-15.54,7.98-28.81,30.96c-2.61,4.51-4.67,8.82-6.3,12.82
					c-6.67,16.35-6.11,27.61-6.11,27.61c-4.63-11.34-10.39-23.09-20-32.08c-5.95-5.57-11.81-9.88-11.81-9.88l0.01-0.01
					c-2.54-1.48-4.03-4.68-4.03-9.1c0-2.91,0.63-6.01,1.74-9.05c0.69-1.93,1.58-3.83,2.63-5.64c2.7-4.68,6.43-8.76,10.54-11.13
					c3.83-2.21,7.34-2.53,9.89-1.06l0.01-0.01c0,0,6.67,2.92,14.46,5.29C131.15,87.25,144.2,86.36,156.34,84.7z"/>
				<path id="XMLID_3901_" class="st38" d="M121.23,128.48c-6.67,16.35-6.11,27.61-6.11,27.61c-4.63-11.34-10.39-23.09-20-32.08
					c-5.95-5.57-11.81-9.88-11.81-9.88l0.01-0.01c-2.54-1.48-4.03-4.68-4.03-9.1c0-2.91,0.63-6.01,1.74-9.05
					C92.81,101.88,111.86,112.75,121.23,128.48z"/>
				<path id="XMLID_3900_" class="st39" d="M185.62,106.87c0,10.25-3.15,21.46-8.4,31.81v0.01c-6.73,13.26-16.89,25.1-28.25,31.67
					c-20.24,11.69-36.65,2.21-36.65-21.16c0-5.35,0.86-10.96,2.42-16.57c3.86-13.82,12.02-27.67,22.21-37.64
					c1.43-1.41,2.91-2.73,4.42-3.97c0.63-0.52,1.27-1.02,1.91-1.51h0.01c0.91-0.69,1.83-1.35,2.76-1.97
					c0.97-0.65,1.94-1.26,2.93-1.83C169.2,74.03,185.62,83.5,185.62,106.87z"/>
				<path id="XMLID_3899_" class="st25" d="M177.21,138.69c-6.73,13.26-16.89,25.1-28.25,31.67c-20.24,11.69-36.65,2.21-36.65-21.16
					c0-5.35,0.86-10.96,2.42-16.57h0.01c1.37,3.02,6.29,7.34,8.49,4.32c-1.38,5.03-2.13,10-2.13,14.7c0,6.72,1.5,12.14,4.33,15.68
					c2.42,3.02,5.74,4.56,9.86,4.55c4.01,0.01,8.68-1.47,13.49-4.24c9.67-5.58,18.56-15.61,24.86-26.98
					C173.65,140.66,174.91,141.72,177.21,138.69z"/>
				<path id="XMLID_3898_" class="st22" d="M183.11,108.18c0,10.32-3.62,21.98-9.46,32.48c-6.3,11.36-15.19,21.39-24.86,26.98
					c-4.81,2.77-9.48,4.25-13.49,4.24c-4.13,0.01-7.45-1.53-9.86-4.55c-2.83-3.55-4.33-8.97-4.33-15.68c0-4.7,0.75-9.67,2.13-14.7
					c0.52-1.9,1.12-3.8,1.82-5.7c1.2-3.31,2.65-6.61,4.32-9.81c0.34-0.66,0.69-1.31,1.05-1.96c0.59-1.08,1.2-2.15,1.84-3.2
					c2.17-3.6,4.61-7.02,7.23-10.17c0.03-0.03,0.06-0.07,0.09-0.11c1.75-2.09,3.58-4.06,5.47-5.87c1.36-1.3,2.76-2.53,4.18-3.66
					c0.59-0.48,1.2-0.94,1.8-1.38c0.73-0.53,1.47-1.04,2.21-1.53c0.72-0.47,1.45-0.92,2.18-1.34c4.83-2.79,9.49-4.25,13.5-4.26
					C177.81,87.95,183.11,95.52,183.11,108.18z"/>
				<path id="XMLID_3897_" class="st15" d="M183.11,108.18c0,10.32-3.62,21.98-9.46,32.48c-6.3,11.36-15.19,21.39-24.86,26.98
					c-4.81,2.77-9.48,4.25-13.49,4.24c-4.13,0.01-7.45-1.53-9.86-4.55c-2.83-3.55-4.33-8.97-4.33-15.68c0-4.7,0.75-9.67,2.13-14.7
					c0.52-1.9,1.12-3.8,1.82-5.7c1.2-3.31,2.65-6.61,4.32-9.81c0.34-0.66,0.69-1.31,1.05-1.96c0.59-1.08,1.2-2.15,1.84-3.2
					c2.17-3.6,4.61-7.02,7.23-10.17c0.03-0.03,0.06-0.07,0.09-0.11c1.75-2.09,3.58-4.06,5.47-5.87c1.36-1.3,2.76-2.53,4.18-3.66
					c0.59-0.48,1.2-0.94,1.8-1.38c0.73-0.53,1.47-1.04,2.21-1.53c0.72-0.47,1.45-0.92,2.18-1.34c4.83-2.79,9.49-4.25,13.5-4.26
					C177.81,87.95,183.11,95.52,183.11,108.18z"/>
			</g>
			<g id="XMLID_1271_">
				<path id="XMLID_1334_" class="st22" d="M151.96,113.92l-12.86,24.01c-3.61-1.36-9.73-3.53-14.71-4.8
					c0.21-0.63,0.43-1.26,0.66-1.89c1.2-3.31,2.65-6.61,4.32-9.81c0.34-0.66,0.69-1.31,1.05-1.96c0.59-1.08,1.2-2.15,1.84-3.2
					c2.17-3.6,4.61-7.02,7.23-10.17c0.03-0.03,0.06-0.07,0.09-0.11c0.39-0.46,0.78-0.92,1.17-1.36
					C145.56,109.59,151.96,113.92,151.96,113.92z"/>
			</g>
			<g id="XMLID_1249_" class="st40">
				<path id="XMLID_1252_" class="st41" d="M151.96,113.92l-12.86,24.01c-3.61-1.36-9.73-3.53-14.71-4.8
					c0.21-0.63,0.43-1.26,0.66-1.89c1.2-3.31,2.65-6.61,4.32-9.81c0.34-0.66,0.69-1.31,1.05-1.96c0.59-1.08,1.2-2.15,1.84-3.2
					c2.17-3.6,4.61-7.02,7.23-10.17c0.03-0.03,0.06-0.07,0.09-0.11c0.39-0.46,0.78-0.92,1.17-1.36
					C145.56,109.59,151.96,113.92,151.96,113.92z"/>
			</g>
			<g id="XMLID_1247_">
				<path id="XMLID_1248_" class="st22" d="M140.17,137.87c-2.91,0-4.64-2.35-4.64-6.28v-0.12c0-6.18,4.36-13.73,9.71-16.82
					l0.1-0.06c1.43-0.82,2.83-1.26,4.06-1.26c2.91,0,4.64,2.35,4.64,6.28v0.12c0,6.18-4.36,13.73-9.71,16.82l-0.1,0.06
					C142.8,137.44,141.4,137.87,140.17,137.87L140.17,137.87z"/>
			</g>
			<g id="XMLID_1245_" class="st42">
				<path id="XMLID_1246_" class="st41" d="M140.17,137.87c-2.91,0-4.64-2.35-4.64-6.28v-0.12c0-6.18,4.36-13.73,9.71-16.82
					l0.1-0.06c1.43-0.82,2.83-1.26,4.06-1.26c2.91,0,4.64,2.35,4.64,6.28v0.12c0,6.18-4.36,13.73-9.71,16.82l-0.1,0.06
					C142.8,137.44,141.4,137.87,140.17,137.87L140.17,137.87z"/>
			</g>
		</g>
		<g id="XMLID_994_">
			<g id="XMLID_1022_">
				<path id="XMLID_1242_" d="M154.04,70.24c-1.6,0-2.89-1.29-2.89-2.89V39.38c0-1.6,1.29-2.89,2.89-2.89c1.6,0,2.89,1.29,2.89,2.89
					v27.97C156.93,68.95,155.64,70.24,154.04,70.24z"/>
			</g>
			<g id="XMLID_1019_">
				<path id="XMLID_1020_" d="M128.59,77.06c-1,0-1.97-0.52-2.51-1.45L112.1,51.4c-0.8-1.38-0.32-3.15,1.06-3.95
					c1.38-0.8,3.15-0.32,3.95,1.06l13.98,24.22c0.8,1.38,0.32,3.15-1.06,3.95C129.58,76.94,129.09,77.06,128.59,77.06z"/>
			</g>
			<g id="XMLID_1015_">
				<path id="XMLID_1016_" d="M102.12,211.84c-0.49,0-0.99-0.12-1.44-0.39c-1.38-0.8-1.86-2.57-1.06-3.95l13.98-24.22
					c0.8-1.39,2.57-1.86,3.95-1.06c1.38,0.8,1.86,2.57,1.06,3.95l-13.98,24.22C104.09,211.32,103.12,211.84,102.12,211.84z"/>
			</g>
			<g id="XMLID_1012_">
				<path id="XMLID_1013_" d="M154.04,215.58c-1.6,0-2.89-1.29-2.89-2.89v-27.97c0-1.6,1.29-2.89,2.89-2.89
					c1.6,0,2.89,1.29,2.89,2.89v27.97C156.93,214.29,155.64,215.58,154.04,215.58z"/>
			</g>
			<g id="XMLID_1006_">
				<path id="XMLID_1007_" d="M193.48,189.44c-1,0-1.97-0.52-2.51-1.45l-13.98-24.22c-0.8-1.38-0.32-3.15,1.06-3.95
					c1.38-0.8,3.15-0.33,3.95,1.06l13.98,24.22c0.8,1.38,0.32,3.15-1.06,3.95C194.46,189.31,193.97,189.44,193.48,189.44z"/>
			</g>
			<g id="XMLID_1001_">
				<path id="XMLID_1005_" d="M222.33,160.57c-0.49,0-0.99-0.12-1.44-0.39l-24.22-13.98c-1.38-0.8-1.86-2.57-1.06-3.95
					c0.8-1.39,2.57-1.86,3.95-1.06l24.22,13.98c1.38,0.8,1.86,2.57,1.06,3.95C224.31,160.05,223.33,160.57,222.33,160.57z"/>
			</g>
			<g id="XMLID_999_">
				<path id="XMLID_1000_" d="M232.9,121.14h-27.97c-1.6,0-2.89-1.3-2.89-2.89c0-1.6,1.29-2.89,2.89-2.89h27.97
					c1.6,0,2.89,1.29,2.89,2.89C235.8,119.85,234.5,121.14,232.9,121.14z"/>
			</g>
			<g id="XMLID_997_">
				<path id="XMLID_998_" d="M198.12,95.69c-1,0-1.97-0.52-2.51-1.45c-0.8-1.38-0.32-3.15,1.06-3.95l24.22-13.98
					c1.38-0.8,3.15-0.33,3.95,1.06c0.8,1.38,0.32,3.15-1.06,3.95L199.57,95.3C199.11,95.57,198.61,95.69,198.12,95.69z"/>
			</g>
			<g id="XMLID_995_">
				<path id="XMLID_996_" d="M179.49,77.06c-0.49,0-0.99-0.12-1.44-0.39c-1.38-0.8-1.86-2.57-1.06-3.95l13.98-24.22
					c0.8-1.38,2.57-1.86,3.95-1.06c1.38,0.8,1.86,2.57,1.06,3.95l-13.98,24.22C181.46,76.54,180.49,77.06,179.49,77.06z"/>
			</g>
		</g>
	</g>
</g>
</svg>
